<svg width="203" height="85" viewBox="0 0 203 85" fill="none" xmlns="http://www.w3.org/2000/svg">
<rect x="0.151078" y="0.981156" width="38.6487" height="38.6487" fill="#F25022" stroke="black" stroke-width="0.243074"/>
<rect x="45.0429" y="0.981156" width="38.6487" height="38.6487" fill="#7FBA00" stroke="black" stroke-width="0.243074"/>
<rect x="0.151078" y="44.873" width="38.6487" height="38.6487" fill="#01A4EF" stroke="black" stroke-width="0.243074"/>
<rect x="45.0429" y="44.873" width="38.6487" height="38.6487" fill="#FFB901" stroke="black" stroke-width="0.243074"/>
<mask id="path-5-inside-1_157_641" fill="white">
<path d="M95.1978 83.8596V72.9699H96.8624L100.503 80.7172L104.143 72.9699H105.807V83.8596H104.672V74.3856L100.503 83.0818L96.3179 74.3545V83.8596H95.1978ZM108.349 83.8596V76.2679H109.484V83.8596H108.349ZM108.924 74.3856C108.696 74.3856 108.499 74.3078 108.333 74.1522C108.178 73.9863 108.1 73.7944 108.1 73.5766C108.1 73.3588 108.178 73.1721 108.333 73.0166C108.499 72.8506 108.696 72.7677 108.924 72.7677C109.152 72.7677 109.344 72.8506 109.5 73.0166C109.666 73.1721 109.749 73.3588 109.749 73.5766C109.749 73.7944 109.666 73.9863 109.5 74.1522C109.344 74.3078 109.152 74.3856 108.924 74.3856ZM115.22 83.9841C114.515 83.9841 113.877 83.8129 113.306 83.4707C112.746 83.1181 112.3 82.6462 111.968 82.055C111.637 81.4535 111.471 80.7898 111.471 80.0638C111.471 79.3274 111.637 78.6637 111.968 78.0725C112.3 77.4814 112.746 77.0147 113.306 76.6724C113.877 76.3198 114.515 76.1435 115.22 76.1435C115.78 76.1435 116.314 76.2472 116.822 76.4546C117.33 76.662 117.771 76.9524 118.144 77.3258L117.413 78.1192C117.144 77.8184 116.817 77.5851 116.433 77.4191C116.049 77.2532 115.661 77.1702 115.266 77.1702C114.769 77.1702 114.317 77.2999 113.913 77.5591C113.519 77.8184 113.203 78.1659 112.964 78.6014C112.726 79.037 112.606 79.5245 112.606 80.0638C112.606 80.6031 112.726 81.0905 112.964 81.5261C113.203 81.9617 113.519 82.3091 113.913 82.5684C114.317 82.8277 114.769 82.9573 115.266 82.9573C115.661 82.9573 116.049 82.8744 116.433 82.7084C116.817 82.5321 117.144 82.2988 117.413 82.0084L118.144 82.8018C117.771 83.1751 117.33 83.4655 116.822 83.6729C116.314 83.8804 115.78 83.9841 115.22 83.9841ZM119.728 83.8596V76.2679H120.864V77.8236C121.061 77.2947 121.341 76.885 121.704 76.5946C122.077 76.2939 122.502 76.1435 122.979 76.1435C123.114 76.1435 123.239 76.1539 123.353 76.1746C123.467 76.185 123.581 76.2109 123.695 76.2524V77.2791C123.57 77.2376 123.436 77.2065 123.29 77.1858C123.156 77.1547 123.026 77.1391 122.902 77.1391C122.435 77.1391 122.025 77.2739 121.673 77.5436C121.33 77.8132 121.061 78.1918 120.864 78.6792V83.8596H119.728ZM128.086 83.9841C127.381 83.9841 126.749 83.8129 126.188 83.4707C125.628 83.1285 125.188 82.6618 124.866 82.0706C124.545 81.4794 124.384 80.8105 124.384 80.0638C124.384 79.3171 124.545 78.6481 124.866 78.057C125.188 77.4658 125.628 76.9991 126.188 76.6569C126.749 76.3146 127.381 76.1435 128.086 76.1435C128.781 76.1435 129.404 76.3146 129.953 76.6569C130.513 76.9991 130.954 77.4658 131.276 78.057C131.597 78.6481 131.758 79.3171 131.758 80.0638C131.758 80.8105 131.597 81.4794 131.276 82.0706C130.954 82.6618 130.513 83.1285 129.953 83.4707C129.404 83.8129 128.781 83.9841 128.086 83.9841ZM128.071 82.9884C128.569 82.9884 129.009 82.864 129.393 82.6151C129.777 82.3558 130.078 82.0032 130.295 81.5572C130.524 81.1113 130.638 80.6134 130.638 80.0638C130.638 79.5037 130.524 79.0059 130.295 78.5703C130.078 78.1244 129.777 77.7769 129.393 77.528C129.009 77.2688 128.569 77.1391 128.071 77.1391C127.573 77.1391 127.132 77.2688 126.749 77.528C126.365 77.7769 126.059 78.1244 125.831 78.5703C125.613 79.0059 125.504 79.5037 125.504 80.0638C125.504 80.6134 125.613 81.1113 125.831 81.5572C126.059 82.0032 126.365 82.3558 126.749 82.6151C127.132 82.864 127.573 82.9884 128.071 82.9884ZM136.099 84.0152C135.477 84.0152 134.901 83.9218 134.373 83.7352C133.844 83.5381 133.392 83.2581 133.019 82.8951L133.626 82.1484C134.082 82.4803 134.502 82.724 134.886 82.8795C135.27 83.0247 135.664 83.0973 136.068 83.0973C136.618 83.0973 137.074 82.9677 137.437 82.7084C137.8 82.4491 137.982 82.1173 137.982 81.7128C137.982 81.4017 137.873 81.1579 137.655 80.9816C137.448 80.8053 137.1 80.6705 136.613 80.5771L135.368 80.3594C134.632 80.2245 134.087 79.9964 133.735 79.6749C133.392 79.3534 133.221 78.9178 133.221 78.3681C133.221 77.9325 133.335 77.5488 133.564 77.2169C133.802 76.885 134.129 76.6257 134.544 76.4391C134.959 76.242 135.43 76.1435 135.959 76.1435C136.478 76.1435 136.971 76.2213 137.437 76.3768C137.904 76.522 138.376 76.7606 138.853 77.0924L138.293 77.8858C137.899 77.6058 137.505 77.4036 137.111 77.2791C136.716 77.1443 136.317 77.0769 135.913 77.0769C135.415 77.0769 135.016 77.1858 134.715 77.4036C134.414 77.6214 134.264 77.9169 134.264 78.2903C134.264 78.6014 134.357 78.84 134.544 79.0059C134.741 79.1719 135.083 79.2963 135.57 79.3793L136.846 79.6126C137.614 79.7475 138.174 79.9808 138.526 80.3127C138.879 80.6446 139.055 81.0905 139.055 81.6506C139.055 82.0965 138.925 82.501 138.666 82.864C138.407 83.2166 138.054 83.4966 137.608 83.7041C137.162 83.9115 136.659 84.0152 136.099 84.0152ZM144.22 83.9841C143.515 83.9841 142.883 83.8129 142.323 83.4707C141.762 83.1285 141.322 82.6618 141 82.0706C140.679 81.4794 140.518 80.8105 140.518 80.0638C140.518 79.3171 140.679 78.6481 141 78.057C141.322 77.4658 141.762 76.9991 142.323 76.6569C142.883 76.3146 143.515 76.1435 144.22 76.1435C144.915 76.1435 145.538 76.3146 146.087 76.6569C146.647 76.9991 147.088 77.4658 147.41 78.057C147.731 78.6481 147.892 79.3171 147.892 80.0638C147.892 80.8105 147.731 81.4794 147.41 82.0706C147.088 82.6618 146.647 83.1285 146.087 83.4707C145.538 83.8129 144.915 83.9841 144.22 83.9841ZM144.205 82.9884C144.703 82.9884 145.143 82.864 145.527 82.6151C145.911 82.3558 146.212 82.0032 146.429 81.5572C146.658 81.1113 146.772 80.6134 146.772 80.0638C146.772 79.5037 146.658 79.0059 146.429 78.5703C146.212 78.1244 145.911 77.7769 145.527 77.528C145.143 77.2688 144.703 77.1391 144.205 77.1391C143.707 77.1391 143.266 77.2688 142.883 77.528C142.499 77.7769 142.193 78.1244 141.965 78.5703C141.747 79.0059 141.638 79.5037 141.638 80.0638C141.638 80.6134 141.747 81.1113 141.965 81.5572C142.193 82.0032 142.499 82.3558 142.883 82.6151C143.266 82.864 143.707 82.9884 144.205 82.9884ZM150.378 83.8596V77.2013H148.682V76.2679H150.378V74.6812C150.378 73.9344 150.575 73.3588 150.969 72.9544C151.363 72.5499 151.923 72.3476 152.649 72.3476C152.857 72.3476 153.043 72.358 153.209 72.3788C153.385 72.3995 153.541 72.4358 153.676 72.4877V73.5144C153.51 73.4625 153.36 73.4262 153.225 73.4055C153.09 73.3848 152.934 73.3744 152.758 73.3744C152.322 73.3744 152.006 73.4833 151.809 73.7011C151.612 73.9085 151.513 74.2404 151.513 74.6967V76.2679H153.676V77.2013H151.513V83.8596H150.378ZM158.217 84.0152C157.563 84.0152 157.065 83.8596 156.723 83.5485C156.391 83.227 156.225 82.7655 156.225 82.1639V77.2013H154.654V76.2679H156.225V74.1833L157.361 73.9189V76.2679H159.539V77.2013H157.361V81.8684C157.361 82.2728 157.444 82.5632 157.61 82.7395C157.786 82.9158 158.071 83.004 158.466 83.004C158.663 83.004 158.839 82.9884 158.994 82.9573C159.15 82.9262 159.332 82.8744 159.539 82.8018V83.8129C159.332 83.8855 159.114 83.9374 158.886 83.9685C158.657 83.9996 158.434 84.0152 158.217 84.0152ZM163.807 83.8596L168.116 72.9699H169.547L173.794 83.8596H172.503L171.212 80.4371H166.358L165.067 83.8596H163.807ZM166.731 79.4882H170.854L168.785 74.0589L166.731 79.4882ZM174.802 83.8596V82.9573L179.174 77.2947L174.849 77.3102V76.2679H180.558V77.1547L176.171 82.8484L180.62 82.8329V83.8596H174.802ZM185.178 83.9841C184.639 83.9841 184.162 83.8648 183.747 83.6263C183.332 83.3877 183.005 83.0559 182.767 82.6306C182.539 82.2054 182.425 81.718 182.425 81.1683V76.2679H183.576V80.8416C183.576 81.5157 183.757 82.0499 184.12 82.444C184.483 82.8381 184.976 83.0351 185.598 83.0351C186.024 83.0351 186.402 82.9366 186.734 82.7395C187.076 82.5425 187.361 82.2573 187.59 81.8839V76.2679H188.725V83.8596H187.59V82.6306C187.299 83.0766 186.952 83.4137 186.547 83.6418C186.153 83.87 185.697 83.9841 185.178 83.9841ZM191.055 83.8596V76.2679H192.191V77.8236C192.388 77.2947 192.668 76.885 193.031 76.5946C193.404 76.2939 193.829 76.1435 194.306 76.1435C194.441 76.1435 194.566 76.1539 194.68 76.1746C194.794 76.185 194.908 76.2109 195.022 76.2524V77.2791C194.897 77.2376 194.763 77.2065 194.617 77.1858C194.483 77.1547 194.353 77.1391 194.228 77.1391C193.762 77.1391 193.352 77.2739 193 77.5436C192.657 77.8132 192.388 78.1918 192.191 78.6792V83.8596H191.055ZM199.476 84.0152C198.77 84.0152 198.133 83.8441 197.562 83.5018C196.992 83.1492 196.541 82.6773 196.209 82.0862C195.877 81.4846 195.711 80.8105 195.711 80.0638C195.711 79.3171 195.866 78.6481 196.178 78.057C196.499 77.4658 196.929 76.9991 197.469 76.6569C198.008 76.3146 198.61 76.1435 199.273 76.1435C199.947 76.1435 200.544 76.3146 201.062 76.6569C201.591 76.9887 202.006 77.4451 202.307 78.0258C202.618 78.5963 202.774 79.2445 202.774 79.9704V80.3127H196.815C196.857 80.8312 196.997 81.2979 197.235 81.7128C197.484 82.1173 197.806 82.4388 198.2 82.6773C198.604 82.9055 199.045 83.0196 199.522 83.0196C199.916 83.0196 200.295 82.9521 200.658 82.8173C201.031 82.6721 201.348 82.4803 201.607 82.2417L202.322 83.004C201.887 83.3462 201.436 83.6003 200.969 83.7663C200.502 83.9322 200.005 84.0152 199.476 84.0152ZM196.847 79.5037H201.654C201.602 79.0474 201.462 78.6429 201.234 78.2903C201.016 77.9273 200.736 77.6421 200.393 77.4347C200.062 77.2273 199.688 77.1236 199.273 77.1236C198.859 77.1236 198.48 77.2273 198.138 77.4347C197.795 77.6317 197.51 77.9118 197.282 78.2748C197.064 78.6274 196.919 79.037 196.847 79.5037Z"/>
</mask>
<path d="M95.1978 83.8596V72.9699H96.8624L100.503 80.7172L104.143 72.9699H105.807V83.8596H104.672V74.3856L100.503 83.0818L96.3179 74.3545V83.8596H95.1978ZM108.349 83.8596V76.2679H109.484V83.8596H108.349ZM108.924 74.3856C108.696 74.3856 108.499 74.3078 108.333 74.1522C108.178 73.9863 108.1 73.7944 108.1 73.5766C108.1 73.3588 108.178 73.1721 108.333 73.0166C108.499 72.8506 108.696 72.7677 108.924 72.7677C109.152 72.7677 109.344 72.8506 109.5 73.0166C109.666 73.1721 109.749 73.3588 109.749 73.5766C109.749 73.7944 109.666 73.9863 109.5 74.1522C109.344 74.3078 109.152 74.3856 108.924 74.3856ZM115.22 83.9841C114.515 83.9841 113.877 83.8129 113.306 83.4707C112.746 83.1181 112.3 82.6462 111.968 82.055C111.637 81.4535 111.471 80.7898 111.471 80.0638C111.471 79.3274 111.637 78.6637 111.968 78.0725C112.3 77.4814 112.746 77.0147 113.306 76.6724C113.877 76.3198 114.515 76.1435 115.22 76.1435C115.78 76.1435 116.314 76.2472 116.822 76.4546C117.33 76.662 117.771 76.9524 118.144 77.3258L117.413 78.1192C117.144 77.8184 116.817 77.5851 116.433 77.4191C116.049 77.2532 115.661 77.1702 115.266 77.1702C114.769 77.1702 114.317 77.2999 113.913 77.5591C113.519 77.8184 113.203 78.1659 112.964 78.6014C112.726 79.037 112.606 79.5245 112.606 80.0638C112.606 80.6031 112.726 81.0905 112.964 81.5261C113.203 81.9617 113.519 82.3091 113.913 82.5684C114.317 82.8277 114.769 82.9573 115.266 82.9573C115.661 82.9573 116.049 82.8744 116.433 82.7084C116.817 82.5321 117.144 82.2988 117.413 82.0084L118.144 82.8018C117.771 83.1751 117.33 83.4655 116.822 83.6729C116.314 83.8804 115.78 83.9841 115.22 83.9841ZM119.728 83.8596V76.2679H120.864V77.8236C121.061 77.2947 121.341 76.885 121.704 76.5946C122.077 76.2939 122.502 76.1435 122.979 76.1435C123.114 76.1435 123.239 76.1539 123.353 76.1746C123.467 76.185 123.581 76.2109 123.695 76.2524V77.2791C123.57 77.2376 123.436 77.2065 123.29 77.1858C123.156 77.1547 123.026 77.1391 122.902 77.1391C122.435 77.1391 122.025 77.2739 121.673 77.5436C121.33 77.8132 121.061 78.1918 120.864 78.6792V83.8596H119.728ZM128.086 83.9841C127.381 83.9841 126.749 83.8129 126.188 83.4707C125.628 83.1285 125.188 82.6618 124.866 82.0706C124.545 81.4794 124.384 80.8105 124.384 80.0638C124.384 79.3171 124.545 78.6481 124.866 78.057C125.188 77.4658 125.628 76.9991 126.188 76.6569C126.749 76.3146 127.381 76.1435 128.086 76.1435C128.781 76.1435 129.404 76.3146 129.953 76.6569C130.513 76.9991 130.954 77.4658 131.276 78.057C131.597 78.6481 131.758 79.3171 131.758 80.0638C131.758 80.8105 131.597 81.4794 131.276 82.0706C130.954 82.6618 130.513 83.1285 129.953 83.4707C129.404 83.8129 128.781 83.9841 128.086 83.9841ZM128.071 82.9884C128.569 82.9884 129.009 82.864 129.393 82.6151C129.777 82.3558 130.078 82.0032 130.295 81.5572C130.524 81.1113 130.638 80.6134 130.638 80.0638C130.638 79.5037 130.524 79.0059 130.295 78.5703C130.078 78.1244 129.777 77.7769 129.393 77.528C129.009 77.2688 128.569 77.1391 128.071 77.1391C127.573 77.1391 127.132 77.2688 126.749 77.528C126.365 77.7769 126.059 78.1244 125.831 78.5703C125.613 79.0059 125.504 79.5037 125.504 80.0638C125.504 80.6134 125.613 81.1113 125.831 81.5572C126.059 82.0032 126.365 82.3558 126.749 82.6151C127.132 82.864 127.573 82.9884 128.071 82.9884ZM136.099 84.0152C135.477 84.0152 134.901 83.9218 134.373 83.7352C133.844 83.5381 133.392 83.2581 133.019 82.8951L133.626 82.1484C134.082 82.4803 134.502 82.724 134.886 82.8795C135.27 83.0247 135.664 83.0973 136.068 83.0973C136.618 83.0973 137.074 82.9677 137.437 82.7084C137.8 82.4491 137.982 82.1173 137.982 81.7128C137.982 81.4017 137.873 81.1579 137.655 80.9816C137.448 80.8053 137.1 80.6705 136.613 80.5771L135.368 80.3594C134.632 80.2245 134.087 79.9964 133.735 79.6749C133.392 79.3534 133.221 78.9178 133.221 78.3681C133.221 77.9325 133.335 77.5488 133.564 77.2169C133.802 76.885 134.129 76.6257 134.544 76.4391C134.959 76.242 135.43 76.1435 135.959 76.1435C136.478 76.1435 136.971 76.2213 137.437 76.3768C137.904 76.522 138.376 76.7606 138.853 77.0924L138.293 77.8858C137.899 77.6058 137.505 77.4036 137.111 77.2791C136.716 77.1443 136.317 77.0769 135.913 77.0769C135.415 77.0769 135.016 77.1858 134.715 77.4036C134.414 77.6214 134.264 77.9169 134.264 78.2903C134.264 78.6014 134.357 78.84 134.544 79.0059C134.741 79.1719 135.083 79.2963 135.57 79.3793L136.846 79.6126C137.614 79.7475 138.174 79.9808 138.526 80.3127C138.879 80.6446 139.055 81.0905 139.055 81.6506C139.055 82.0965 138.925 82.501 138.666 82.864C138.407 83.2166 138.054 83.4966 137.608 83.7041C137.162 83.9115 136.659 84.0152 136.099 84.0152ZM144.22 83.9841C143.515 83.9841 142.883 83.8129 142.323 83.4707C141.762 83.1285 141.322 82.6618 141 82.0706C140.679 81.4794 140.518 80.8105 140.518 80.0638C140.518 79.3171 140.679 78.6481 141 78.057C141.322 77.4658 141.762 76.9991 142.323 76.6569C142.883 76.3146 143.515 76.1435 144.22 76.1435C144.915 76.1435 145.538 76.3146 146.087 76.6569C146.647 76.9991 147.088 77.4658 147.41 78.057C147.731 78.6481 147.892 79.3171 147.892 80.0638C147.892 80.8105 147.731 81.4794 147.41 82.0706C147.088 82.6618 146.647 83.1285 146.087 83.4707C145.538 83.8129 144.915 83.9841 144.22 83.9841ZM144.205 82.9884C144.703 82.9884 145.143 82.864 145.527 82.6151C145.911 82.3558 146.212 82.0032 146.429 81.5572C146.658 81.1113 146.772 80.6134 146.772 80.0638C146.772 79.5037 146.658 79.0059 146.429 78.5703C146.212 78.1244 145.911 77.7769 145.527 77.528C145.143 77.2688 144.703 77.1391 144.205 77.1391C143.707 77.1391 143.266 77.2688 142.883 77.528C142.499 77.7769 142.193 78.1244 141.965 78.5703C141.747 79.0059 141.638 79.5037 141.638 80.0638C141.638 80.6134 141.747 81.1113 141.965 81.5572C142.193 82.0032 142.499 82.3558 142.883 82.6151C143.266 82.864 143.707 82.9884 144.205 82.9884ZM150.378 83.8596V77.2013H148.682V76.2679H150.378V74.6812C150.378 73.9344 150.575 73.3588 150.969 72.9544C151.363 72.5499 151.923 72.3476 152.649 72.3476C152.857 72.3476 153.043 72.358 153.209 72.3788C153.385 72.3995 153.541 72.4358 153.676 72.4877V73.5144C153.51 73.4625 153.36 73.4262 153.225 73.4055C153.09 73.3848 152.934 73.3744 152.758 73.3744C152.322 73.3744 152.006 73.4833 151.809 73.7011C151.612 73.9085 151.513 74.2404 151.513 74.6967V76.2679H153.676V77.2013H151.513V83.8596H150.378ZM158.217 84.0152C157.563 84.0152 157.065 83.8596 156.723 83.5485C156.391 83.227 156.225 82.7655 156.225 82.1639V77.2013H154.654V76.2679H156.225V74.1833L157.361 73.9189V76.2679H159.539V77.2013H157.361V81.8684C157.361 82.2728 157.444 82.5632 157.61 82.7395C157.786 82.9158 158.071 83.004 158.466 83.004C158.663 83.004 158.839 82.9884 158.994 82.9573C159.15 82.9262 159.332 82.8744 159.539 82.8018V83.8129C159.332 83.8855 159.114 83.9374 158.886 83.9685C158.657 83.9996 158.434 84.0152 158.217 84.0152ZM163.807 83.8596L168.116 72.9699H169.547L173.794 83.8596H172.503L171.212 80.4371H166.358L165.067 83.8596H163.807ZM166.731 79.4882H170.854L168.785 74.0589L166.731 79.4882ZM174.802 83.8596V82.9573L179.174 77.2947L174.849 77.3102V76.2679H180.558V77.1547L176.171 82.8484L180.62 82.8329V83.8596H174.802ZM185.178 83.9841C184.639 83.9841 184.162 83.8648 183.747 83.6263C183.332 83.3877 183.005 83.0559 182.767 82.6306C182.539 82.2054 182.425 81.718 182.425 81.1683V76.2679H183.576V80.8416C183.576 81.5157 183.757 82.0499 184.12 82.444C184.483 82.8381 184.976 83.0351 185.598 83.0351C186.024 83.0351 186.402 82.9366 186.734 82.7395C187.076 82.5425 187.361 82.2573 187.59 81.8839V76.2679H188.725V83.8596H187.59V82.6306C187.299 83.0766 186.952 83.4137 186.547 83.6418C186.153 83.87 185.697 83.9841 185.178 83.9841ZM191.055 83.8596V76.2679H192.191V77.8236C192.388 77.2947 192.668 76.885 193.031 76.5946C193.404 76.2939 193.829 76.1435 194.306 76.1435C194.441 76.1435 194.566 76.1539 194.68 76.1746C194.794 76.185 194.908 76.2109 195.022 76.2524V77.2791C194.897 77.2376 194.763 77.2065 194.617 77.1858C194.483 77.1547 194.353 77.1391 194.228 77.1391C193.762 77.1391 193.352 77.2739 193 77.5436C192.657 77.8132 192.388 78.1918 192.191 78.6792V83.8596H191.055ZM199.476 84.0152C198.77 84.0152 198.133 83.8441 197.562 83.5018C196.992 83.1492 196.541 82.6773 196.209 82.0862C195.877 81.4846 195.711 80.8105 195.711 80.0638C195.711 79.3171 195.866 78.6481 196.178 78.057C196.499 77.4658 196.929 76.9991 197.469 76.6569C198.008 76.3146 198.61 76.1435 199.273 76.1435C199.947 76.1435 200.544 76.3146 201.062 76.6569C201.591 76.9887 202.006 77.4451 202.307 78.0258C202.618 78.5963 202.774 79.2445 202.774 79.9704V80.3127H196.815C196.857 80.8312 196.997 81.2979 197.235 81.7128C197.484 82.1173 197.806 82.4388 198.2 82.6773C198.604 82.9055 199.045 83.0196 199.522 83.0196C199.916 83.0196 200.295 82.9521 200.658 82.8173C201.031 82.6721 201.348 82.4803 201.607 82.2417L202.322 83.004C201.887 83.3462 201.436 83.6003 200.969 83.7663C200.502 83.9322 200.005 84.0152 199.476 84.0152ZM196.847 79.5037H201.654C201.602 79.0474 201.462 78.6429 201.234 78.2903C201.016 77.9273 200.736 77.6421 200.393 77.4347C200.062 77.2273 199.688 77.1236 199.273 77.1236C198.859 77.1236 198.48 77.2273 198.138 77.4347C197.795 77.6317 197.51 77.9118 197.282 78.2748C197.064 78.6274 196.919 79.037 196.847 79.5037Z" fill="#3CB4FF"/>
<path d="M95.1978 83.8596H94.9727V84.0847H95.1978V83.8596ZM95.1978 72.9699V72.7448H94.9727V72.9699H95.1978ZM96.8624 72.9699L97.0661 72.8742L97.0053 72.7448H96.8624V72.9699ZM100.503 80.7172L100.299 80.8129L100.503 81.2465L100.706 80.8129L100.503 80.7172ZM104.143 72.9699V72.7448H104L103.939 72.8742L104.143 72.9699ZM105.807 72.9699H106.033V72.7448H105.807V72.9699ZM105.807 83.8596V84.0847H106.033V83.8596H105.807ZM104.672 83.8596H104.447V84.0847H104.672V83.8596ZM104.672 74.3856H104.897L104.469 74.2883L104.672 74.3856ZM100.503 83.0818L100.3 83.1791L100.503 83.6024L100.706 83.1791L100.503 83.0818ZM96.3179 74.3545L96.5208 74.2571L96.0928 74.3545H96.3179ZM96.3179 83.8596V84.0847H96.543V83.8596H96.3179ZM95.4229 83.8596V72.9699H94.9727V83.8596H95.4229ZM95.1978 73.195H96.8624V72.7448H95.1978V73.195ZM96.6586 73.0656L100.299 80.8129L100.706 80.6214L97.0661 72.8742L96.6586 73.0656ZM100.706 80.8129L104.347 73.0656L103.939 72.8742L100.299 80.6214L100.706 80.8129ZM104.143 73.195H105.807V72.7448H104.143V73.195ZM105.582 72.9699V83.8596H106.033V72.9699H105.582ZM105.807 83.6345H104.672V84.0847H105.807V83.6345ZM104.897 83.8596V74.3856H104.447V83.8596H104.897ZM104.469 74.2883L100.3 82.9845L100.706 83.1791L104.875 74.4829L104.469 74.2883ZM100.706 82.9845L96.5208 74.2571L96.1149 74.4518L100.3 83.1791L100.706 82.9845ZM96.0928 74.3545V83.8596H96.543V74.3545H96.0928ZM96.3179 83.6345H95.1978V84.0847H96.3179V83.6345ZM108.349 83.8596H108.124V84.0847H108.349V83.8596ZM108.349 76.2679V76.0428H108.124V76.2679H108.349ZM109.484 76.2679H109.709V76.0428H109.484V76.2679ZM109.484 83.8596V84.0847H109.709V83.8596H109.484ZM108.333 74.1522L108.169 74.3062L108.174 74.3115L108.179 74.3164L108.333 74.1522ZM108.333 73.0166L108.492 73.1757L108.492 73.1757L108.333 73.0166ZM109.5 73.0166L109.336 73.1705L109.341 73.1758L109.346 73.1808L109.5 73.0166ZM109.5 74.1522L109.659 74.3114L109.659 74.3114L109.5 74.1522ZM108.574 83.8596V76.2679H108.124V83.8596H108.574ZM108.349 76.493H109.484V76.0428H108.349V76.493ZM109.259 76.2679V83.8596H109.709V76.2679H109.259ZM109.484 83.6345H108.349V84.0847H109.484V83.6345ZM108.924 74.1605C108.753 74.1605 108.611 74.1043 108.487 73.988L108.179 74.3164C108.387 74.5113 108.639 74.6107 108.924 74.6107V74.1605ZM108.497 73.9983C108.379 73.872 108.325 73.7345 108.325 73.5766H107.875C107.875 73.8543 107.976 74.1006 108.169 74.3062L108.497 73.9983ZM108.325 73.5766C108.325 73.4192 108.378 73.2896 108.492 73.1757L108.174 72.8574C107.977 73.0547 107.875 73.2985 107.875 73.5766H108.325ZM108.492 73.1757C108.617 73.0507 108.758 72.9928 108.924 72.9928V72.5426C108.635 72.5426 108.381 72.6506 108.174 72.8574L108.492 73.1757ZM108.924 72.9928C109.09 72.9928 109.223 73.0501 109.336 73.1705L109.664 72.8626C109.466 72.6511 109.214 72.5426 108.924 72.5426V72.9928ZM109.346 73.1808C109.469 73.2959 109.524 73.4241 109.524 73.5766H109.974C109.974 73.2936 109.863 73.0484 109.654 72.8524L109.346 73.1808ZM109.524 73.5766C109.524 73.7298 109.468 73.8657 109.341 73.9931L109.659 74.3114C109.864 74.1069 109.974 73.859 109.974 73.5766H109.524ZM109.341 73.9931C109.229 74.1047 109.095 74.1605 108.924 74.1605V74.6107C109.21 74.6107 109.46 74.5109 109.659 74.3114L109.341 73.9931ZM113.306 83.4707L113.186 83.6612L113.19 83.6637L113.306 83.4707ZM111.968 82.055L111.771 82.1638L111.772 82.1652L111.968 82.055ZM111.968 78.0725L112.165 78.1827L112.165 78.1827L111.968 78.0725ZM113.306 76.6724L113.424 76.8645L113.425 76.8639L113.306 76.6724ZM116.822 76.4546L116.737 76.663L116.737 76.663L116.822 76.4546ZM118.144 77.3258L118.31 77.4783L118.456 77.3194L118.304 77.1666L118.144 77.3258ZM117.413 78.1192L117.246 78.2694L117.411 78.4538L117.579 78.2717L117.413 78.1192ZM116.433 77.4191L116.523 77.2125L116.523 77.2125L116.433 77.4191ZM113.913 77.5591L113.792 77.3696L113.789 77.3711L113.913 77.5591ZM112.964 78.6014L112.767 78.4933L112.767 78.4933L112.964 78.6014ZM112.964 81.5261L113.161 81.418L113.161 81.418L112.964 81.5261ZM113.913 82.5684L113.789 82.7565L113.792 82.7579L113.913 82.5684ZM116.433 82.7084L116.523 82.9151L116.527 82.913L116.433 82.7084ZM117.413 82.0084L117.579 81.8558L117.414 81.6769L117.248 81.8552L117.413 82.0084ZM118.144 82.8018L118.304 82.9609L118.456 82.8081L118.31 82.6492L118.144 82.8018ZM116.822 83.6729L116.907 83.8813L116.822 83.6729ZM115.22 83.759C114.553 83.759 113.955 83.5977 113.422 83.2777L113.19 83.6637C113.798 84.0282 114.476 84.2092 115.22 84.2092V83.759ZM113.426 83.2802C112.899 82.9481 112.479 82.5041 112.165 81.9448L111.772 82.1652C112.122 82.7883 112.594 83.2881 113.186 83.6612L113.426 83.2802ZM112.166 81.9463C111.853 81.38 111.696 80.754 111.696 80.0638H111.246C111.246 80.8256 111.42 81.5271 111.771 82.1638L112.166 81.9463ZM111.696 80.0638C111.696 79.3626 111.853 78.7374 112.165 78.1827L111.772 77.9623C111.42 78.59 111.246 79.2923 111.246 80.0638H111.696ZM112.165 78.1827C112.478 77.624 112.898 77.186 113.424 76.8645L113.189 76.4803C112.595 76.8434 112.122 77.3387 111.772 77.9623L112.165 78.1827ZM113.425 76.8639C113.958 76.5344 114.554 76.3686 115.22 76.3686V75.9184C114.475 75.9184 113.796 76.1052 113.188 76.4809L113.425 76.8639ZM115.22 76.3686C115.751 76.3686 116.256 76.4668 116.737 76.663L116.907 76.2462C116.371 76.0275 115.808 75.9184 115.22 75.9184V76.3686ZM116.737 76.663C117.219 76.8596 117.634 77.1336 117.985 77.485L118.304 77.1666C117.908 76.7712 117.442 76.4645 116.907 76.2462L116.737 76.663ZM117.979 77.1733L117.248 77.9666L117.579 78.2717L118.31 77.4783L117.979 77.1733ZM117.581 77.9689C117.289 77.6431 116.935 77.3909 116.523 77.2125L116.344 77.6257C116.699 77.7792 116.998 77.9938 117.246 78.2694L117.581 77.9689ZM116.523 77.2125C116.112 77.0351 115.693 76.9451 115.266 76.9451V77.3953C115.628 77.3953 115.987 77.4712 116.344 77.6257L116.523 77.2125ZM115.266 76.9451C114.727 76.9451 114.234 77.0863 113.792 77.3696L114.034 77.7486C114.401 77.5135 114.81 77.3953 115.266 77.3953V76.9451ZM113.789 77.3711C113.363 77.6517 113.022 78.0272 112.767 78.4933L113.161 78.7096C113.383 78.3045 113.675 77.9852 114.037 77.7472L113.789 77.3711ZM112.767 78.4933C112.508 78.9649 112.381 79.49 112.381 80.0638H112.831C112.831 79.5589 112.943 79.1092 113.161 78.7096L112.767 78.4933ZM112.381 80.0638C112.381 80.6375 112.508 81.1627 112.767 81.6342L113.161 81.418C112.943 81.0184 112.831 80.5686 112.831 80.0638H112.381ZM112.767 81.6342C113.022 82.1003 113.363 82.4759 113.789 82.7565L114.037 82.3804C113.675 82.1424 113.383 81.8231 113.161 81.418L112.767 81.6342ZM113.792 82.7579C114.234 83.0413 114.727 83.1824 115.266 83.1824V82.7322C114.81 82.7322 114.401 82.6141 114.034 82.3789L113.792 82.7579ZM115.266 83.1824C115.693 83.1824 116.112 83.0924 116.523 82.915L116.344 82.5018C115.987 82.6563 115.628 82.7322 115.266 82.7322V83.1824ZM116.527 82.913C116.936 82.7252 117.287 82.4749 117.578 82.1615L117.248 81.8552C117 82.1226 116.698 82.3391 116.339 82.5039L116.527 82.913ZM117.248 82.1609L117.979 82.9543L118.31 82.6492L117.579 81.8558L117.248 82.1609ZM117.985 82.6426C117.634 82.9939 117.219 83.268 116.737 83.4645L116.907 83.8813C117.442 83.6631 117.908 83.3563 118.304 82.9609L117.985 82.6426ZM116.737 83.4645C116.256 83.6607 115.751 83.759 115.22 83.759V84.2092C115.808 84.2092 116.371 84.1 116.907 83.8813L116.737 83.4645ZM119.728 83.8596H119.503V84.0847H119.728V83.8596ZM119.728 76.2679V76.0428H119.503V76.2679H119.728ZM120.864 76.2679H121.089V76.0428H120.864V76.2679ZM120.864 77.8236H120.638L121.075 77.9022L120.864 77.8236ZM121.704 76.5946L121.844 76.7704L121.845 76.7699L121.704 76.5946ZM123.353 76.1746L123.312 76.3961L123.322 76.3979L123.332 76.3988L123.353 76.1746ZM123.695 76.2524H123.92V76.0947L123.772 76.0408L123.695 76.2524ZM123.695 77.2791L123.624 77.4927L123.92 77.5914V77.2791H123.695ZM123.29 77.1858L123.24 77.4051L123.249 77.4073L123.259 77.4086L123.29 77.1858ZM121.673 77.5436L121.536 77.3648L121.533 77.3668L121.673 77.5436ZM120.864 78.6792L120.655 78.5949L120.638 78.6355V78.6792H120.864ZM120.864 83.8596V84.0847H121.089V83.8596H120.864ZM119.953 83.8596V76.2679H119.503V83.8596H119.953ZM119.728 76.493H120.864V76.0428H119.728V76.493ZM120.638 76.2679V77.8236H121.089V76.2679H120.638ZM121.075 77.9022C121.26 77.4032 121.519 77.0304 121.844 76.7704L121.563 76.4189C121.162 76.7396 120.861 77.1861 120.653 77.745L121.075 77.9022ZM121.845 76.7699C122.178 76.5012 122.554 76.3686 122.979 76.3686V75.9184C122.451 75.9184 121.976 76.0865 121.562 76.4193L121.845 76.7699ZM122.979 76.3686C123.103 76.3686 123.214 76.3781 123.312 76.3961L123.393 75.9531C123.264 75.9296 123.126 75.9184 122.979 75.9184V76.3686ZM123.332 76.3988C123.426 76.4073 123.521 76.4287 123.618 76.4639L123.772 76.0408C123.641 75.9931 123.508 75.9627 123.373 75.9504L123.332 76.3988ZM123.47 76.2524V77.2791H123.92V76.2524H123.47ZM123.766 77.0656C123.627 77.0194 123.479 76.9854 123.322 76.9629L123.259 77.4086C123.392 77.4277 123.513 77.4559 123.624 77.4927L123.766 77.0656ZM123.341 76.9665C123.191 76.9319 123.045 76.914 122.902 76.914V77.3642C123.007 77.3642 123.12 77.3774 123.24 77.4051L123.341 76.9665ZM122.902 76.914C122.388 76.914 121.93 77.0635 121.536 77.3648L121.809 77.7224C122.121 77.4844 122.482 77.3642 122.902 77.3642V76.914ZM121.533 77.3668C121.154 77.6652 120.864 78.0786 120.655 78.5949L121.072 78.7636C121.258 78.305 121.506 77.9612 121.812 77.7204L121.533 77.3668ZM120.638 78.6792V83.8596H121.089V78.6792H120.638ZM120.864 83.6345H119.728V84.0847H120.864V83.6345ZM126.188 83.4707L126.306 83.2786L126.306 83.2786L126.188 83.4707ZM124.866 82.0706L125.064 81.9631L125.064 81.9631L124.866 82.0706ZM124.866 78.057L124.668 77.9494L124.668 77.9494L124.866 78.057ZM126.188 76.6569L126.071 76.4648L126.071 76.4648L126.188 76.6569ZM129.953 76.6569L129.834 76.8479L129.836 76.8489L129.953 76.6569ZM131.276 78.057L131.473 77.9494L131.473 77.9494L131.276 78.057ZM131.276 82.0706L131.473 82.1781L131.473 82.1781L131.276 82.0706ZM129.953 83.4707L129.836 83.2786L129.834 83.2796L129.953 83.4707ZM129.393 82.6151L129.516 82.804L129.519 82.8016L129.393 82.6151ZM130.295 81.5572L130.095 81.4547L130.093 81.4584L130.295 81.5572ZM130.295 78.5703L130.093 78.6692L130.096 78.6748L130.295 78.5703ZM129.393 77.528L129.267 77.7146L129.271 77.7169L129.393 77.528ZM126.749 77.528L126.871 77.7169L126.875 77.7145L126.749 77.528ZM125.831 78.5703L125.63 78.4678L125.629 78.4697L125.831 78.5703ZM125.831 81.5572L125.628 81.656L125.63 81.6597L125.831 81.5572ZM126.749 82.6151L126.622 82.8016L126.626 82.8039L126.749 82.6151ZM128.086 83.759C127.419 83.759 126.828 83.5977 126.306 83.2786L126.071 83.6628C126.669 84.0282 127.343 84.2092 128.086 84.2092V83.759ZM126.306 83.2786C125.78 82.9575 125.367 82.5204 125.064 81.9631L124.668 82.1781C125.008 82.8031 125.476 83.2994 126.071 83.6628L126.306 83.2786ZM125.064 81.9631C124.762 81.4084 124.609 80.7771 124.609 80.0638H124.159C124.159 80.8439 124.327 81.5505 124.668 82.1781L125.064 81.9631ZM124.609 80.0638C124.609 79.3504 124.762 78.7192 125.064 78.1645L124.668 77.9494C124.327 78.5771 124.159 79.2837 124.159 80.0638H124.609ZM125.064 78.1645C125.367 77.6072 125.78 77.17 126.306 76.8489L126.071 76.4648C125.476 76.8282 125.008 77.3244 124.668 77.9494L125.064 78.1645ZM126.306 76.8489C126.828 76.5299 127.419 76.3686 128.086 76.3686V75.9184C127.343 75.9184 126.669 76.0993 126.071 76.4648L126.306 76.8489ZM128.086 76.3686C128.742 76.3686 129.323 76.5296 129.834 76.8479L130.072 76.4658C129.484 76.0997 128.82 75.9184 128.086 75.9184V76.3686ZM129.836 76.8489C130.361 77.17 130.775 77.6072 131.078 78.1645L131.473 77.9494C131.133 77.3244 130.665 76.8282 130.071 76.4648L129.836 76.8489ZM131.078 78.1645C131.379 78.7192 131.533 79.3504 131.533 80.0638H131.983C131.983 79.2837 131.815 78.5771 131.473 77.9494L131.078 78.1645ZM131.533 80.0638C131.533 80.7771 131.379 81.4084 131.078 81.9631L131.473 82.1781C131.815 81.5505 131.983 80.8439 131.983 80.0638H131.533ZM131.078 81.9631C130.775 82.5204 130.361 82.9575 129.836 83.2786L130.071 83.6628C130.665 83.2994 131.133 82.8031 131.473 82.1781L131.078 81.9631ZM129.834 83.2796C129.323 83.598 128.742 83.759 128.086 83.759V84.2092C128.82 84.2092 129.484 84.0279 130.072 83.6618L129.834 83.2796ZM128.071 83.2135C128.608 83.2135 129.092 83.0786 129.516 82.8039L129.271 82.4262C128.927 82.6494 128.529 82.7633 128.071 82.7633V83.2135ZM129.519 82.8016C129.938 82.5187 130.264 82.1348 130.498 81.656L130.093 81.4584C129.891 81.8716 129.616 82.1929 129.267 82.4286L129.519 82.8016ZM130.496 81.6597C130.742 81.1791 130.863 80.6456 130.863 80.0638H130.413C130.413 80.5813 130.305 81.0435 130.095 81.4547L130.496 81.6597ZM130.863 80.0638C130.863 79.4725 130.742 78.9379 130.495 78.4659L130.096 78.6748C130.305 79.0739 130.413 79.535 130.413 80.0638H130.863ZM130.498 78.4716C130.264 77.9921 129.937 77.6122 129.516 77.3392L129.271 77.7169C129.617 77.9417 129.892 78.2566 130.093 78.6691L130.498 78.4716ZM129.519 77.3415C129.095 77.0552 128.61 76.914 128.071 76.914V77.3642C128.527 77.3642 128.923 77.4823 129.267 77.7145L129.519 77.3415ZM128.071 76.914C127.532 76.914 127.046 77.0552 126.623 77.3415L126.875 77.7145C127.218 77.4823 127.614 77.3642 128.071 77.3642V76.914ZM126.626 77.3392C126.206 77.6116 125.875 77.9902 125.63 78.4678L126.031 78.6729C126.243 78.2586 126.523 77.9423 126.871 77.7169L126.626 77.3392ZM125.629 78.4697C125.394 78.9409 125.279 79.474 125.279 80.0638H125.729C125.729 79.5334 125.832 79.0709 126.032 78.671L125.629 78.4697ZM125.279 80.0638C125.279 80.644 125.394 81.1761 125.628 81.656L126.033 81.4584C125.832 81.0464 125.729 80.5829 125.729 80.0638H125.279ZM125.63 81.6597C125.874 82.1367 126.205 82.5193 126.623 82.8016L126.875 82.4286C126.525 82.1923 126.243 81.8697 126.031 81.4547L125.63 81.6597ZM126.626 82.8039C127.049 83.0786 127.534 83.2135 128.071 83.2135V82.7633C127.613 82.7633 127.215 82.6494 126.871 82.4262L126.626 82.8039ZM134.373 83.7352L134.294 83.9461L134.298 83.9474L134.373 83.7352ZM133.019 82.8951L132.844 82.7532L132.715 82.913L132.862 83.0565L133.019 82.8951ZM133.626 82.1484L133.758 81.9663L133.586 81.8408L133.451 82.0064L133.626 82.1484ZM134.886 82.8795L134.801 83.0882L134.806 83.0901L134.886 82.8795ZM137.437 82.7084L137.568 82.8916L137.568 82.8916L137.437 82.7084ZM137.655 80.9816L137.509 81.1532L137.513 81.1566L137.655 80.9816ZM136.613 80.5771L136.655 80.356L136.652 80.3554L136.613 80.5771ZM135.368 80.3594L135.328 80.5808L135.329 80.5811L135.368 80.3594ZM133.735 79.6749L133.581 79.8389L133.583 79.8412L133.735 79.6749ZM133.564 77.2169L133.381 77.0855L133.378 77.0894L133.564 77.2169ZM134.544 76.4391L134.636 76.6444L134.64 76.6424L134.544 76.4391ZM137.437 76.3768L137.366 76.5904L137.37 76.5918L137.437 76.3768ZM138.853 77.0924L139.037 77.2223L139.167 77.0371L138.981 76.9077L138.853 77.0924ZM138.293 77.8858L138.162 78.0693L138.347 78.2001L138.477 78.0156L138.293 77.8858ZM137.111 77.2791L137.038 77.4922L137.043 77.4938L137.111 77.2791ZM134.715 77.4036L134.847 77.5859L134.847 77.5859L134.715 77.4036ZM134.544 79.0059L134.394 79.1742L134.399 79.1781L134.544 79.0059ZM135.57 79.3793L135.611 79.1578L135.608 79.1574L135.57 79.3793ZM136.846 79.6126L136.806 79.8341L136.807 79.8343L136.846 79.6126ZM138.526 80.3127L138.68 80.1488L138.68 80.1488L138.526 80.3127ZM138.666 82.864L138.848 82.9973L138.849 82.9948L138.666 82.864ZM137.608 83.7041L137.513 83.5L137.513 83.5L137.608 83.7041ZM136.099 83.7901C135.5 83.7901 134.95 83.7002 134.447 83.5229L134.298 83.9474C134.853 84.1435 135.454 84.2403 136.099 84.2403V83.7901ZM134.451 83.5242C133.949 83.3372 133.525 83.0732 133.176 82.7337L132.862 83.0565C133.26 83.443 133.738 83.7391 134.294 83.9461L134.451 83.5242ZM133.194 83.037L133.801 82.2903L133.451 82.0064L132.844 82.7532L133.194 83.037ZM133.493 82.3304C133.96 82.6695 134.396 82.9237 134.801 83.0882L134.97 82.6709C134.609 82.5242 134.205 82.291 133.758 81.9663L133.493 82.3304ZM134.806 83.0901C135.215 83.2448 135.636 83.3224 136.068 83.3224V82.8722C135.691 82.8722 135.324 82.8047 134.966 82.669L134.806 83.0901ZM136.068 83.3224C136.654 83.3224 137.159 83.1839 137.568 82.8916L137.306 82.5253C136.99 82.7515 136.582 82.8722 136.068 82.8722V83.3224ZM137.568 82.8916C137.983 82.5951 138.207 82.1982 138.207 81.7128H137.757C137.757 82.0363 137.617 82.3032 137.306 82.5253L137.568 82.8916ZM138.207 81.7128C138.207 81.3422 138.073 81.0308 137.797 80.8067L137.513 81.1566C137.672 81.2851 137.757 81.4611 137.757 81.7128H138.207ZM137.801 80.8101C137.548 80.5955 137.154 80.4516 136.655 80.3561L136.57 80.7982C137.046 80.8894 137.347 81.0152 137.509 81.1531L137.801 80.8101ZM136.652 80.3554L135.407 80.1376L135.329 80.5811L136.574 80.7989L136.652 80.3554ZM135.409 80.1379C134.692 80.0068 134.195 79.7898 133.886 79.5085L133.583 79.8412C133.98 80.203 134.571 80.4423 135.328 80.5808L135.409 80.1379ZM133.889 79.5108C133.6 79.2391 133.446 78.8672 133.446 78.3681H132.996C132.996 78.9684 133.185 79.4676 133.581 79.8389L133.889 79.5108ZM133.446 78.3681C133.446 77.9741 133.549 77.6357 133.749 77.3444L133.378 77.0894C133.122 77.4619 132.996 77.8909 132.996 78.3681H133.446ZM133.746 77.3483C133.959 77.0521 134.253 76.8166 134.636 76.6443L134.451 76.2338C134.005 76.4348 133.645 76.718 133.381 77.0855L133.746 77.3483ZM134.64 76.6424C135.021 76.4617 135.459 76.3686 135.959 76.3686V75.9184C135.402 75.9184 134.896 76.0223 134.447 76.2357L134.64 76.6424ZM135.959 76.3686C136.455 76.3686 136.923 76.4429 137.366 76.5904L137.508 76.1633C137.018 75.9997 136.501 75.9184 135.959 75.9184V76.3686ZM137.37 76.5918C137.811 76.729 138.263 76.9561 138.724 77.2772L138.981 76.9077C138.489 76.565 137.996 76.3151 137.504 76.1619L137.37 76.5918ZM138.669 76.9626L138.109 77.756L138.477 78.0156L139.037 77.2223L138.669 76.9626ZM138.423 77.7023C138.013 77.411 137.598 77.1971 137.178 77.0645L137.043 77.4938C137.411 77.6101 137.784 77.8006 138.162 78.0693L138.423 77.7023ZM137.183 77.0661C136.767 76.9235 136.343 76.8518 135.913 76.8518V77.302C136.292 77.302 136.666 77.3651 137.038 77.4921L137.183 77.0661ZM135.913 76.8518C135.383 76.8518 134.933 76.9676 134.583 77.2213L134.847 77.5859C135.098 77.404 135.446 77.302 135.913 77.302V76.8518ZM134.583 77.2213C134.223 77.4817 134.039 77.8452 134.039 78.2903H134.489C134.489 77.9887 134.605 77.7611 134.847 77.5859L134.583 77.2213ZM134.039 78.2903C134.039 78.6487 134.148 78.9554 134.394 79.1742L134.693 78.8377C134.566 78.7246 134.489 78.5542 134.489 78.2903H134.039ZM134.399 79.1781C134.644 79.3843 135.036 79.5166 135.533 79.6012L135.608 79.1574C135.13 79.076 134.838 78.9594 134.689 78.8337L134.399 79.1781ZM135.53 79.6007L136.806 79.8341L136.887 79.3912L135.611 79.1579L135.53 79.6007ZM136.807 79.8343C137.555 79.9658 138.065 80.188 138.372 80.4766L138.68 80.1488C138.282 79.7736 137.672 79.5291 136.885 79.3909L136.807 79.8343ZM138.372 80.4766C138.672 80.7592 138.83 81.142 138.83 81.6506H139.28C139.28 81.0391 139.085 80.53 138.68 80.1488L138.372 80.4766ZM138.83 81.6506C138.83 82.0496 138.715 82.4083 138.483 82.7332L138.849 82.9948C139.136 82.5937 139.28 82.1435 139.28 81.6506H138.83ZM138.485 82.7306C138.251 83.0492 137.929 83.3065 137.513 83.5L137.703 83.9082C138.179 83.6868 138.563 83.384 138.848 82.9973L138.485 82.7306ZM137.513 83.5C137.101 83.6917 136.631 83.7901 136.099 83.7901V84.2403C136.688 84.2403 137.224 84.1312 137.703 83.9082L137.513 83.5ZM142.323 83.4707L142.44 83.2786L142.44 83.2786L142.323 83.4707ZM141 82.0706L141.198 81.9631L141.198 81.9631L141 82.0706ZM141 78.057L140.802 77.9494L140.802 77.9494L141 78.057ZM142.323 76.6569L142.205 76.4648L142.205 76.4648L142.323 76.6569ZM146.087 76.6569L145.968 76.8479L145.97 76.8489L146.087 76.6569ZM147.41 78.057L147.607 77.9494L147.607 77.9494L147.41 78.057ZM147.41 82.0706L147.607 82.1781L147.607 82.1781L147.41 82.0706ZM146.087 83.4707L145.97 83.2786L145.968 83.2796L146.087 83.4707ZM145.527 82.6151L145.65 82.804L145.653 82.8016L145.527 82.6151ZM146.429 81.5572L146.229 81.4547L146.227 81.4584L146.429 81.5572ZM146.429 78.5703L146.227 78.6692L146.23 78.6748L146.429 78.5703ZM145.527 77.528L145.401 77.7146L145.405 77.7169L145.527 77.528ZM142.883 77.528L143.005 77.7169L143.009 77.7145L142.883 77.528ZM141.965 78.5703L141.764 78.4678L141.763 78.4697L141.965 78.5703ZM141.965 81.5572L141.762 81.656L141.764 81.6597L141.965 81.5572ZM142.883 82.6151L142.757 82.8016L142.76 82.8039L142.883 82.6151ZM144.22 83.759C143.553 83.759 142.962 83.5977 142.44 83.2786L142.205 83.6628C142.803 84.0282 143.477 84.2092 144.22 84.2092V83.759ZM142.44 83.2786C141.914 82.9575 141.501 82.5204 141.198 81.9631L140.802 82.1781C141.142 82.8031 141.61 83.2994 142.205 83.6628L142.44 83.2786ZM141.198 81.9631C140.896 81.4084 140.743 80.7771 140.743 80.0638H140.293C140.293 80.8439 140.461 81.5505 140.802 82.1781L141.198 81.9631ZM140.743 80.0638C140.743 79.3504 140.896 78.7192 141.198 78.1645L140.802 77.9494C140.461 78.5771 140.293 79.2837 140.293 80.0638H140.743ZM141.198 78.1645C141.501 77.6072 141.914 77.17 142.44 76.8489L142.205 76.4648C141.61 76.8282 141.142 77.3244 140.802 77.9494L141.198 78.1645ZM142.44 76.8489C142.962 76.5299 143.553 76.3686 144.22 76.3686V75.9184C143.477 75.9184 142.803 76.0993 142.205 76.4648L142.44 76.8489ZM144.22 76.3686C144.876 76.3686 145.457 76.5296 145.968 76.8479L146.206 76.4658C145.618 76.0997 144.954 75.9184 144.22 75.9184V76.3686ZM145.97 76.8489C146.495 77.17 146.909 77.6072 147.212 78.1645L147.607 77.9494C147.267 77.3244 146.799 76.8282 146.205 76.4648L145.97 76.8489ZM147.212 78.1645C147.513 78.7192 147.667 79.3504 147.667 80.0638H148.117C148.117 79.2837 147.949 78.5771 147.607 77.9494L147.212 78.1645ZM147.667 80.0638C147.667 80.7771 147.513 81.4084 147.212 81.9631L147.607 82.1781C147.949 81.5505 148.117 80.8439 148.117 80.0638H147.667ZM147.212 81.9631C146.909 82.5204 146.495 82.9575 145.97 83.2786L146.205 83.6628C146.799 83.2994 147.267 82.8031 147.607 82.1781L147.212 81.9631ZM145.968 83.2796C145.457 83.598 144.876 83.759 144.22 83.759V84.2092C144.954 84.2092 145.618 84.0279 146.206 83.6618L145.968 83.2796ZM144.205 83.2135C144.742 83.2135 145.226 83.0786 145.65 82.8039L145.405 82.4262C145.061 82.6494 144.663 82.7633 144.205 82.7633V83.2135ZM145.653 82.8016C146.072 82.5187 146.398 82.1348 146.632 81.656L146.227 81.4584C146.025 81.8716 145.75 82.1929 145.401 82.4286L145.653 82.8016ZM146.63 81.6597C146.876 81.1791 146.997 80.6456 146.997 80.0638H146.547C146.547 80.5813 146.439 81.0435 146.229 81.4547L146.63 81.6597ZM146.997 80.0638C146.997 79.4725 146.876 78.9379 146.629 78.4659L146.23 78.6748C146.439 79.0739 146.547 79.535 146.547 80.0638H146.997ZM146.632 78.4716C146.398 77.9921 146.071 77.6122 145.65 77.3392L145.405 77.7169C145.751 77.9417 146.026 78.2566 146.227 78.6691L146.632 78.4716ZM145.653 77.3415C145.229 77.0552 144.744 76.914 144.205 76.914V77.3642C144.661 77.3642 145.057 77.4823 145.401 77.7145L145.653 77.3415ZM144.205 76.914C143.666 76.914 143.18 77.0552 142.757 77.3415L143.009 77.7145C143.352 77.4823 143.748 77.3642 144.205 77.3642V76.914ZM142.76 77.3392C142.34 77.6116 142.009 77.9902 141.764 78.4678L142.165 78.6729C142.377 78.2586 142.657 77.9423 143.005 77.7169L142.76 77.3392ZM141.763 78.4697C141.528 78.9409 141.413 79.474 141.413 80.0638H141.863C141.863 79.5334 141.966 79.0709 142.166 78.671L141.763 78.4697ZM141.413 80.0638C141.413 80.644 141.528 81.1761 141.762 81.656L142.167 81.4584C141.966 81.0464 141.863 80.5829 141.863 80.0638H141.413ZM141.764 81.6597C142.008 82.1367 142.339 82.5193 142.757 82.8016L143.009 82.4286C142.659 82.1923 142.377 81.8697 142.165 81.4547L141.764 81.6597ZM142.76 82.8039C143.183 83.0786 143.668 83.2135 144.205 83.2135V82.7633C143.747 82.7633 143.349 82.6494 143.005 82.4262L142.76 82.8039ZM150.378 83.8596H150.153V84.0847H150.378V83.8596ZM150.378 77.2013H150.603V76.9762H150.378V77.2013ZM148.682 77.2013H148.457V77.4264H148.682V77.2013ZM148.682 76.2679V76.0428H148.457V76.2679H148.682ZM150.378 76.2679V76.493H150.603V76.2679H150.378ZM153.209 72.3788L153.181 72.6021L153.183 72.6023L153.209 72.3788ZM153.676 72.4877H153.901V72.3331L153.757 72.2776L153.676 72.4877ZM153.676 73.5144L153.609 73.7292L153.901 73.8206V73.5144H153.676ZM153.225 73.4055L153.259 73.183L153.259 73.183L153.225 73.4055ZM151.809 73.7011L151.972 73.8562L151.976 73.8521L151.809 73.7011ZM151.513 76.2679H151.288V76.493H151.513V76.2679ZM153.676 76.2679H153.901V76.0428H153.676V76.2679ZM153.676 77.2013V77.4264H153.901V77.2013H153.676ZM151.513 77.2013V76.9762H151.288V77.2013H151.513ZM151.513 83.8596V84.0847H151.739V83.8596H151.513ZM150.603 83.8596V77.2013H150.153V83.8596H150.603ZM150.378 76.9762H148.682V77.4264H150.378V76.9762ZM148.907 77.2013V76.2679H148.457V77.2013H148.907ZM148.682 76.493H150.378V76.0428H148.682V76.493ZM150.603 76.2679V74.6812H150.153V76.2679H150.603ZM150.603 74.6812C150.603 73.9736 150.789 73.4617 151.13 73.1114L150.808 72.7973C150.361 73.2559 150.153 73.8953 150.153 74.6812H150.603ZM151.13 73.1114C151.471 72.762 151.966 72.5727 152.649 72.5727V72.1225C151.881 72.1225 151.255 72.3378 150.808 72.7973L151.13 73.1114ZM152.649 72.5727C152.849 72.5727 153.026 72.5828 153.181 72.6021L153.237 72.1554C153.06 72.1333 152.864 72.1225 152.649 72.1225V72.5727ZM153.183 72.6023C153.345 72.6213 153.481 72.654 153.595 72.6977L153.757 72.2776C153.601 72.2176 153.426 72.1777 153.235 72.1552L153.183 72.6023ZM153.451 72.4877V73.5144H153.901V72.4877H153.451ZM153.743 73.2995C153.569 73.2452 153.407 73.2059 153.259 73.183L153.191 73.628C153.312 73.6466 153.451 73.6799 153.609 73.7292L153.743 73.2995ZM153.259 73.183C153.11 73.1601 152.943 73.1493 152.758 73.1493V73.5995C152.926 73.5995 153.07 73.6094 153.191 73.628L153.259 73.183ZM152.758 73.1493C152.29 73.1493 151.899 73.2662 151.642 73.5501L151.976 73.8521C152.113 73.7004 152.355 73.5995 152.758 73.5995V73.1493ZM151.646 73.546C151.391 73.8142 151.288 74.2155 151.288 74.6967H151.739C151.739 74.2652 151.833 74.0028 151.972 73.8561L151.646 73.546ZM151.288 74.6967V76.2679H151.739V74.6967H151.288ZM151.513 76.493H153.676V76.0428H151.513V76.493ZM153.451 76.2679V77.2013H153.901V76.2679H153.451ZM153.676 76.9762H151.513V77.4264H153.676V76.9762ZM151.288 77.2013V83.8596H151.739V77.2013H151.288ZM151.513 83.6345H150.378V84.0847H151.513V83.6345ZM156.723 83.5485L156.566 83.7102L156.572 83.715L156.723 83.5485ZM156.225 77.2013H156.45V76.9762H156.225V77.2013ZM154.654 77.2013H154.429V77.4264H154.654V77.2013ZM154.654 76.2679V76.0428H154.429V76.2679H154.654ZM156.225 76.2679V76.493H156.45V76.2679H156.225ZM156.225 74.1833L156.174 73.9641L156 74.0046V74.1833H156.225ZM157.361 73.9189H157.586V73.6353L157.31 73.6996L157.361 73.9189ZM157.361 76.2679H157.136V76.493H157.361V76.2679ZM159.539 76.2679H159.764V76.0428H159.539V76.2679ZM159.539 77.2013V77.4264H159.764V77.2013H159.539ZM157.361 77.2013V76.9762H157.136V77.2013H157.361ZM157.61 82.7395L157.446 82.8939L157.451 82.8987L157.61 82.7395ZM158.994 82.9573L159.039 83.1781L159.039 83.1781L158.994 82.9573ZM159.539 82.8018H159.764V82.4845L159.465 82.5893L159.539 82.8018ZM159.539 83.8129L159.613 84.0254L159.764 83.9727V83.8129H159.539ZM158.886 83.9685L158.916 84.1915L158.916 84.1915L158.886 83.9685ZM158.217 83.7901C157.596 83.7901 157.161 83.6423 156.875 83.3819L156.572 83.715C156.97 84.0769 157.53 84.2403 158.217 84.2403V83.7901ZM156.88 83.3868C156.604 83.1195 156.45 82.7238 156.45 82.1639H156C156 82.8071 156.179 83.3345 156.567 83.7102L156.88 83.3868ZM156.45 82.1639V77.2013H156V82.1639H156.45ZM156.225 76.9762H154.654V77.4264H156.225V76.9762ZM154.879 77.2013V76.2679H154.429V77.2013H154.879ZM154.654 76.493H156.225V76.0428H154.654V76.493ZM156.45 76.2679V74.1833H156V76.2679H156.45ZM156.276 74.4026L157.412 74.1381L157.31 73.6996L156.174 73.9641L156.276 74.4026ZM157.136 73.9189V76.2679H157.586V73.9189H157.136ZM157.361 76.493H159.539V76.0428H157.361V76.493ZM159.314 76.2679V77.2013H159.764V76.2679H159.314ZM159.539 76.9762H157.361V77.4264H159.539V76.9762ZM157.136 77.2013V81.8684H157.586V77.2013H157.136ZM157.136 81.8684C157.136 82.2942 157.222 82.6554 157.446 82.8938L157.774 82.5853C157.666 82.4711 157.586 82.2515 157.586 81.8684H157.136ZM157.451 82.8987C157.688 83.1361 158.045 83.2291 158.466 83.2291V82.7789C158.098 82.7789 157.884 82.6955 157.769 82.5804L157.451 82.8987ZM158.466 83.2291C158.674 83.2291 158.866 83.2127 159.039 83.1781L158.95 82.7366C158.812 82.7642 158.651 82.7789 158.466 82.7789V83.2291ZM159.039 83.1781C159.207 83.1443 159.399 83.0891 159.613 83.0142L159.465 82.5893C159.264 82.6597 159.093 82.7082 158.95 82.7366L159.039 83.1781ZM159.314 82.8018V83.8129H159.764V82.8018H159.314ZM159.465 83.6005C159.272 83.6679 159.069 83.7163 158.855 83.7455L158.916 84.1915C159.158 84.1585 159.391 84.1032 159.613 84.0254L159.465 83.6005ZM158.855 83.7455C158.636 83.7753 158.424 83.7901 158.217 83.7901V84.2403C158.445 84.2403 158.678 84.224 158.916 84.1915L158.855 83.7455ZM163.807 83.8596L163.597 83.7768L163.475 84.0847H163.807V83.8596ZM168.116 72.9699V72.7448H167.963L167.906 72.8871L168.116 72.9699ZM169.547 72.9699L169.757 72.8881L169.701 72.7448H169.547V72.9699ZM173.794 83.8596V84.0847H174.123L174.004 83.7778L173.794 83.8596ZM172.503 83.8596L172.292 83.9391L172.347 84.0847H172.503V83.8596ZM171.212 80.4371L171.422 80.3577L171.367 80.212H171.212V80.4371ZM166.358 80.4371V80.212H166.202L166.147 80.3577L166.358 80.4371ZM165.067 83.8596V84.0847H165.222L165.277 83.9391L165.067 83.8596ZM166.731 79.4882L166.521 79.4085L166.405 79.7133H166.731V79.4882ZM170.854 79.4882V79.7133H171.18L171.064 79.408L170.854 79.4882ZM168.785 74.0589L168.995 73.9787L168.784 73.4247L168.574 73.9792L168.785 74.0589ZM164.016 83.9424L168.325 73.0527L167.906 72.8871L163.597 83.7768L164.016 83.9424ZM168.116 73.195H169.547V72.7448H168.116V73.195ZM169.337 73.0517L173.584 83.9414L174.004 83.7778L169.757 72.8881L169.337 73.0517ZM173.794 83.6345H172.503V84.0847H173.794V83.6345ZM172.713 83.7802L171.422 80.3577L171.001 80.5166L172.292 83.9391L172.713 83.7802ZM171.212 80.212H166.358V80.6622H171.212V80.212ZM166.147 80.3577L164.856 83.7802L165.277 83.9391L166.569 80.5166L166.147 80.3577ZM165.067 83.6345H163.807V84.0847H165.067V83.6345ZM166.731 79.7133H170.854V79.2631H166.731V79.7133ZM171.064 79.408L168.995 73.9787L168.574 74.139L170.643 79.5683L171.064 79.408ZM168.574 73.9792L166.521 79.4085L166.942 79.5678L168.995 74.1385L168.574 73.9792ZM174.802 83.8596H174.577V84.0847H174.802V83.8596ZM174.802 82.9573L174.624 82.8198L174.577 82.8806V82.9573H174.802ZM179.174 77.2947L179.352 77.4322L179.633 77.0679L179.173 77.0696L179.174 77.2947ZM174.849 77.3102H174.624V77.5361L174.85 77.5353L174.849 77.3102ZM174.849 76.2679V76.0428H174.624V76.2679H174.849ZM180.558 76.2679H180.783V76.0428H180.558V76.2679ZM180.558 77.1547L180.736 77.2921L180.783 77.2313V77.1547H180.558ZM176.171 82.8484L175.993 82.711L175.712 83.0751L176.172 83.0735L176.171 82.8484ZM180.62 82.8329H180.845V82.607L180.62 82.6078L180.62 82.8329ZM180.62 83.8596V84.0847H180.845V83.8596H180.62ZM175.027 83.8596V82.9573H174.577V83.8596H175.027ZM174.98 83.0949L179.352 77.4322L178.995 77.1571L174.624 82.8198L174.98 83.0949ZM179.173 77.0696L174.848 77.0851L174.85 77.5353L179.174 77.5198L179.173 77.0696ZM175.074 77.3102V76.2679H174.624V77.3102H175.074ZM174.849 76.493H180.558V76.0428H174.849V76.493ZM180.333 76.2679V77.1547H180.783V76.2679H180.333ZM180.38 77.0173L175.993 82.711L176.349 82.9858L180.736 77.2921L180.38 77.0173ZM176.172 83.0735L180.621 83.058L180.62 82.6078L176.17 82.6233L176.172 83.0735ZM180.395 82.8329V83.8596H180.845V82.8329H180.395ZM180.62 83.6345H174.802V84.0847H180.62V83.6345ZM183.747 83.6263L183.635 83.8214L183.635 83.8214L183.747 83.6263ZM182.767 82.6306L182.569 82.7371L182.571 82.7408L182.767 82.6306ZM182.425 76.2679V76.0428H182.2V76.2679H182.425ZM183.576 76.2679H183.801V76.0428H183.576V76.2679ZM186.734 82.7395L186.622 82.5444L186.619 82.546L186.734 82.7395ZM187.59 81.8839L187.782 82.0013L187.815 81.9472V81.8839H187.59ZM187.59 76.2679V76.0428H187.364V76.2679H187.59ZM188.725 76.2679H188.95V76.0428H188.725V76.2679ZM188.725 83.8596V84.0847H188.95V83.8596H188.725ZM187.59 83.8596H187.364V84.0847H187.59V83.8596ZM187.59 82.6306H187.815V81.8724L187.401 82.5078L187.59 82.6306ZM186.547 83.6418L186.437 83.4458L186.434 83.447L186.547 83.6418ZM185.178 83.759C184.673 83.759 184.236 83.6476 183.859 83.4311L183.635 83.8214C184.088 84.082 184.605 84.2092 185.178 84.2092V83.759ZM183.859 83.4311C183.48 83.2132 183.182 82.911 182.963 82.5205L182.571 82.7408C182.829 83.2007 183.184 83.5622 183.635 83.8214L183.859 83.4311ZM182.965 82.5242C182.757 82.136 182.65 81.6861 182.65 81.1683H182.2C182.2 81.7499 182.321 82.2748 182.569 82.7371L182.965 82.5242ZM182.65 81.1683V76.2679H182.2V81.1683H182.65ZM182.425 76.493H183.576V76.0428H182.425V76.493ZM183.351 76.2679V80.8416H183.801V76.2679H183.351ZM183.351 80.8416C183.351 81.5571 183.544 82.1508 183.955 82.5965L184.286 82.2915C183.97 81.9489 183.801 81.4744 183.801 80.8416H183.351ZM183.955 82.5965C184.367 83.0444 184.924 83.2602 185.598 83.2602V82.81C185.028 82.81 184.599 82.6317 184.286 82.2915L183.955 82.5965ZM185.598 83.2602C186.06 83.2602 186.479 83.1528 186.849 82.9331L186.619 82.546C186.325 82.7203 185.987 82.81 185.598 82.81V83.2602ZM186.846 82.9346C187.225 82.7168 187.536 82.4033 187.782 82.0013L187.397 81.7665C187.187 82.1113 186.928 82.3682 186.622 82.5445L186.846 82.9346ZM187.815 81.8839V76.2679H187.364V81.8839H187.815ZM187.59 76.493H188.725V76.0428H187.59V76.493ZM188.5 76.2679V83.8596H188.95V76.2679H188.5ZM188.725 83.6345H187.59V84.0847H188.725V83.6345ZM187.815 83.8596V82.6306H187.364V83.8596H187.815ZM187.401 82.5078C187.127 82.9279 186.805 83.2378 186.437 83.4458L186.658 83.8379C187.098 83.5895 187.471 83.2253 187.778 82.7535L187.401 82.5078ZM186.434 83.447C186.079 83.6527 185.663 83.759 185.178 83.759V84.2092C185.731 84.2092 186.227 84.0873 186.66 83.8366L186.434 83.447ZM191.055 83.8596H190.83V84.0847H191.055V83.8596ZM191.055 76.2679V76.0428H190.83V76.2679H191.055ZM192.191 76.2679H192.416V76.0428H192.191V76.2679ZM192.191 77.8236H191.965L192.401 77.9022L192.191 77.8236ZM193.031 76.5946L193.171 76.7704L193.172 76.7699L193.031 76.5946ZM194.68 76.1746L194.639 76.3961L194.649 76.3979L194.659 76.3988L194.68 76.1746ZM195.022 76.2524H195.247V76.0947L195.099 76.0408L195.022 76.2524ZM195.022 77.2791L194.951 77.4927L195.247 77.5914V77.2791H195.022ZM194.617 77.1858L194.567 77.4051L194.576 77.4073L194.586 77.4086L194.617 77.1858ZM193 77.5436L192.863 77.3648L192.86 77.3668L193 77.5436ZM192.191 78.6792L191.982 78.5949L191.965 78.6355V78.6792H192.191ZM192.191 83.8596V84.0847H192.416V83.8596H192.191ZM191.28 83.8596V76.2679H190.83V83.8596H191.28ZM191.055 76.493H192.191V76.0428H191.055V76.493ZM191.965 76.2679V77.8236H192.416V76.2679H191.965ZM192.401 77.9022C192.587 77.4032 192.846 77.0304 193.171 76.7704L192.89 76.4189C192.489 76.7396 192.188 77.1861 191.98 77.745L192.401 77.9022ZM193.172 76.7699C193.505 76.5012 193.881 76.3686 194.306 76.3686V75.9184C193.778 75.9184 193.303 76.0865 192.889 76.4193L193.172 76.7699ZM194.306 76.3686C194.43 76.3686 194.541 76.3781 194.639 76.3961L194.72 75.9531C194.591 75.9296 194.452 75.9184 194.306 75.9184V76.3686ZM194.659 76.3988C194.753 76.4073 194.848 76.4287 194.945 76.4639L195.099 76.0408C194.968 75.9931 194.835 75.9627 194.7 75.9504L194.659 76.3988ZM194.797 76.2524V77.2791H195.247V76.2524H194.797ZM195.093 77.0656C194.954 77.0194 194.806 76.9854 194.649 76.9629L194.586 77.4086C194.719 77.4277 194.84 77.4559 194.951 77.4927L195.093 77.0656ZM194.668 76.9665C194.518 76.9319 194.372 76.914 194.228 76.914V77.3642C194.334 77.3642 194.447 77.3774 194.567 77.4051L194.668 76.9665ZM194.228 76.914C193.715 76.914 193.257 77.0635 192.863 77.3648L193.136 77.7224C193.448 77.4844 193.808 77.3642 194.228 77.3642V76.914ZM192.86 77.3668C192.481 77.6652 192.191 78.0786 191.982 78.5949L192.399 78.7636C192.585 78.305 192.833 77.9612 193.139 77.7204L192.86 77.3668ZM191.965 78.6792V83.8596H192.416V78.6792H191.965ZM192.191 83.6345H191.055V84.0847H192.191V83.6345ZM197.562 83.5018L197.444 83.6933L197.446 83.6948L197.562 83.5018ZM196.209 82.0862L196.012 82.1949L196.012 82.1963L196.209 82.0862ZM196.178 78.057L195.98 77.9494L195.978 77.9521L196.178 78.057ZM197.469 76.6569L197.348 76.4668L197.348 76.4668L197.469 76.6569ZM201.062 76.6569L200.938 76.8448L200.943 76.8475L201.062 76.6569ZM202.307 78.0258L202.107 78.1294L202.109 78.1336L202.307 78.0258ZM202.774 80.3127V80.5378H202.999V80.3127H202.774ZM196.815 80.3127V80.0876H196.572L196.591 80.3306L196.815 80.3127ZM197.235 81.7128L197.04 81.825L197.044 81.8308L197.235 81.7128ZM198.2 82.6773L198.083 82.87L198.089 82.8734L198.2 82.6773ZM200.658 82.8173L200.736 83.0284L200.74 83.0271L200.658 82.8173ZM201.607 82.2417L201.771 82.0877L201.618 81.9252L201.454 82.0761L201.607 82.2417ZM202.322 83.004L202.462 83.181L202.655 83.0291L202.487 82.8499L202.322 83.004ZM200.969 83.7663L201.044 83.9784L201.044 83.9784L200.969 83.7663ZM196.847 79.5037L196.624 79.4691L196.584 79.7288H196.847V79.5037ZM201.654 79.5037V79.7288H201.906L201.877 79.4783L201.654 79.5037ZM201.234 78.2903L201.04 78.4062L201.045 78.4126L201.234 78.2903ZM200.393 77.4347L200.274 77.6256L200.277 77.6272L200.393 77.4347ZM198.138 77.4347L198.25 77.6298L198.254 77.6272L198.138 77.4347ZM197.282 78.2748L197.092 78.155L197.091 78.1565L197.282 78.2748ZM199.476 83.7901C198.809 83.7901 198.211 83.6288 197.678 83.3088L197.446 83.6948C198.054 84.0593 198.732 84.2403 199.476 84.2403V83.7901ZM197.68 83.3103C197.143 82.978 196.718 82.5342 196.405 81.976L196.012 82.1963C196.363 82.8204 196.841 83.3204 197.444 83.6933L197.68 83.3103ZM196.406 81.9774C196.094 81.412 195.936 80.7759 195.936 80.0638H195.486C195.486 80.8451 195.66 81.5572 196.012 82.1949L196.406 81.9774ZM195.936 80.0638C195.936 79.3492 196.085 78.717 196.377 78.1618L195.978 77.9521C195.648 78.5793 195.486 79.2849 195.486 80.0638H195.936ZM196.375 78.1645C196.68 77.6051 197.084 77.1675 197.589 76.8469L197.348 76.4668C196.775 76.8307 196.319 77.3265 195.98 77.9494L196.375 78.1645ZM197.589 76.8469C198.091 76.5285 198.651 76.3686 199.273 76.3686V75.9184C198.569 75.9184 197.925 76.1007 197.348 76.4668L197.589 76.8469ZM199.273 76.3686C199.907 76.3686 200.46 76.5288 200.938 76.8447L201.186 76.469C200.628 76.1004 199.988 75.9184 199.273 75.9184V76.3686ZM200.943 76.8475C201.436 77.157 201.824 77.5825 202.107 78.1294L202.507 77.9223C202.188 77.3076 201.747 76.8205 201.182 76.4662L200.943 76.8475ZM202.109 78.1336C202.4 78.6672 202.549 79.2776 202.549 79.9704H202.999C202.999 79.2113 202.836 78.5253 202.505 77.9181L202.109 78.1336ZM202.549 79.9704V80.3127H202.999V79.9704H202.549ZM202.774 80.0876H196.815V80.5378H202.774V80.0876ZM196.591 80.3306C196.635 80.8795 196.784 81.3788 197.04 81.825L197.431 81.6006C197.21 81.2171 197.079 80.783 197.04 80.2947L196.591 80.3306ZM197.044 81.8308C197.311 82.2647 197.658 82.6122 198.083 82.8699L198.317 82.4847C197.954 82.2653 197.658 81.9698 197.427 81.5948L197.044 81.8308ZM198.089 82.8734C198.529 83.1211 199.008 83.2447 199.522 83.2447V82.7945C199.083 82.7945 198.68 82.6898 198.311 82.4813L198.089 82.8734ZM199.522 83.2447C199.943 83.2447 200.348 83.1726 200.736 83.0283L200.58 82.6063C200.242 82.7316 199.89 82.7945 199.522 82.7945V83.2447ZM200.74 83.0271C201.135 82.8731 201.477 82.6673 201.759 82.4074L201.454 82.0761C201.218 82.2932 200.927 82.4711 200.576 82.6075L200.74 83.0271ZM201.443 82.3958L202.158 83.1581L202.487 82.8499L201.771 82.0877L201.443 82.3958ZM202.183 82.827C201.765 83.1559 201.335 83.3973 200.894 83.5542L201.044 83.9784C201.537 83.8034 202.009 83.5365 202.462 83.181L202.183 82.827ZM200.894 83.5542C200.453 83.711 199.981 83.7901 199.476 83.7901V84.2403C200.028 84.2403 200.552 84.1535 201.044 83.9784L200.894 83.5542ZM196.847 79.7288H201.654V79.2786H196.847V79.7288ZM201.877 79.4783C201.822 78.9907 201.671 78.5525 201.423 78.168L201.045 78.4126C201.252 78.7334 201.382 79.1041 201.43 79.5292L201.877 79.4783ZM201.427 78.1745C201.191 77.782 200.885 77.4697 200.51 77.2422L200.277 77.6272C200.586 77.8145 200.84 78.0727 201.041 78.4061L201.427 78.1745ZM200.513 77.2438C200.143 77.0127 199.728 76.8985 199.273 76.8985V77.3487C199.649 77.3487 199.98 77.4419 200.274 77.6256L200.513 77.2438ZM199.273 76.8985C198.819 76.8985 198.4 77.0126 198.021 77.2422L198.254 77.6272C198.56 77.4419 198.898 77.3487 199.273 77.3487V76.8985ZM198.025 77.2396C197.649 77.4565 197.338 77.7636 197.092 78.155L197.473 78.3945C197.683 78.0599 197.942 77.8069 198.25 77.6298L198.025 77.2396ZM197.091 78.1565C196.855 78.538 196.701 78.9769 196.624 79.4691L197.069 79.5383C197.138 79.0972 197.274 78.7168 197.474 78.393L197.091 78.1565Z" fill="black" mask="url(#path-5-inside-1_157_641)"/>
</svg>
