<svg width="64" height="72" viewBox="0 0 64 72" fill="none" xmlns="http://www.w3.org/2000/svg">
<g id="Group 28">
<g id="Group 27">
<path id="Vector 30" d="M63.4141 0.582067L63.415 0.562805L63.3957 0.563015C57.826 0.623556 37.4959 0.708316 0.734569 0.563014L0.715423 0.562938L0.716356 0.582062L3.62239 60.1558L3.62295 60.1673L3.63362 60.1717L32.3307 71.9775L32.3277 71.9848L32.3449 71.9774L60.4971 59.8083L60.5075 59.8039L60.508 59.7926L63.4141 0.582067Z" fill="#0774B9" stroke="black" stroke-width="0.0363255"/>
<path id="Vector 31" d="M56.8572 7.12012H31.9742V65.0592L54.6777 55.433L56.8572 7.12012Z" fill="#3397D3"/>
<path id="Vector 32" d="M51.2262 12.932H13.0845L13.6294 21.2869H43.053L42.3265 30.005H22.7107V37.6333H41.6L40.6918 47.9861L32.1553 50.8921L23.2556 47.9861V42.5373H14.9007L15.6273 52.7084L32.1553 59.7918L48.6834 52.7084L51.2262 12.932Z" fill="white"/>
</g>
</g>
</svg>
