<svg width="31" height="70" viewBox="0 0 31 70" fill="none" xmlns="http://www.w3.org/2000/svg">
<g id="Group 54">
<path id="Vector 39" d="M16.6423 69.5665H15.0873L14.1603 61.2749L14.9238 58.1928L15.5784 53.4197L15.8239 55.6015L16.2876 58.0019L17.0513 59.9655L17.9786 60.7293L16.6423 69.5665Z" fill="#B8C4C2"/>
<path id="Vector 37" d="M16.9086 4.91972L15.4858 2.38348L15.3059 53.6333L15.7245 57.2443L16.5618 59.5993L17.9241 60.8741L22.4232 56.8257L25.4062 52.6913L28.0228 47.8767L29.5405 43.219L30.3778 39.137L30.6395 36.154V33.3804L30.3778 29.9787L30.0638 27.7807L28.4453 22.3022L26.3421 17.3225L24.208 13.58L21.7027 10.3324L19.352 7.70339L16.9086 4.91972Z" fill="#12924F"/>
<path id="Vector 38" d="M15.0496 3.46756L15.438 1.57312L15.7782 3.12749L16.0696 53.5979L14.1979 61.4637L11.7464 59.7184L7.90889 55.4923L4.70288 50.8776L2.22551 45.34L0.573961 39.8509L0.282471 35.1876L0.573961 30.2814L1.78819 24.1123L3.7315 18.5746L6.25715 13.6685L9.12358 9.68524L11.8921 6.62496L14.0781 4.77908L15.0496 3.46756Z" fill="#10AA50"/>
</g>
</svg>
