<svg width="170" height="103" viewBox="0 0 170 103" fill="none" xmlns="http://www.w3.org/2000/svg">
<g id="Group 6">
<path id="Vector 11" d="M84.7705 60.9541L83.2809 61.4506L68.2193 70.2228L67.3918 70.5538L66.5642 72.0434V72.871V91.2428C66.7849 91.8497 67.2594 93.0635 67.3918 93.0635C67.5242 93.0635 72.1916 95.491 74.5088 96.7047H75.9984L77.3225 96.2082L78.6466 95.2151L79.3086 93.891L79.8052 93.0635V74.1951H77.3225V92.5669C77.157 92.7876 76.6605 93.2952 75.9984 93.56L75.1708 93.891C74.7295 93.9462 73.8798 94.0234 74.0123 93.891C74.1447 93.7586 70.7572 91.7394 69.0469 90.7463V72.871L70.2055 72.0434L84.7705 63.9333H85.4326L100.66 72.871V73.3675V90.7463L99.9977 91.2428L84.7705 99.8495C83.3361 98.9667 80.4672 97.2344 80.4672 97.3668C80.4672 97.4992 78.8121 98.5254 77.9845 99.0219L83.7775 102.332H86.0946L102.646 92.5669L103.308 91.2428V72.0434L102.149 70.5538L86.0946 61.4506L84.7705 60.9541Z" fill="#63C42E" stroke="black" stroke-width="0.0331024"/>
<path id="Vector 12" d="M82.7455 77.0446H82.4275V79.907V80.225V80.543H82.7455V80.8611V81.1791C82.8515 81.1791 83.0636 81.2427 83.0636 81.4972H83.3816V81.8152H83.958V82.1333H84.6538V82.4513H85.2899V82.7693H86.562V83.0874H89.1064V83.4054H89.4244H91.3327V83.7235H92.6048V84.0415H93.2409V84.3596H93.559V84.6776H93.877V86.2678H93.559V86.5859H93.2409V86.9039H92.9229V87.2219H91.9688V87.54H86.8801V87.2219H85.9259V86.9039H85.2899V86.5859H84.9718V85.9498H84.6538V84.6776H84.3357V84.3596H81.7914V86.5859C81.8974 86.5859 82.1094 86.7131 82.1094 87.2219H82.4275V87.54C82.5335 87.54 82.7455 87.6672 82.7455 88.1761H83.0636V88.4941H83.3816V88.8122H84.0177V89.1302H84.6538V89.4482H85.2899V89.7663H86.562V90.0843H92.2868V89.7663C92.7109 89.7663 93.559 89.7027 93.559 89.4482H94.1951V89.1302H94.8311V88.8122H95.1492V88.4941H95.4672V88.1761H95.7853V87.858H96.1033V87.54H96.4214V86.5859H96.7394V86.2678V83.7235H96.4214V83.0874H96.1033V82.7693V82.4513H95.7853V82.1333H95.1492V81.8152C95.1492 81.688 94.9372 81.7622 94.8311 81.8152V81.4972H94.5131H93.877V81.1791H92.7639V80.8611H91.0146V80.543H88.4703V80.225H86.8801V79.907H85.9259V79.5889H85.2899V78.3167V77.6807H85.6079V77.3626H85.9259V77.0446H86.562V76.7265H91.6507V77.0446H92.2868V77.3626H92.6048V77.6807H92.9229V77.9987H93.2409V78.6348H93.559V78.9528V79.2709H93.877V79.5889H96.1033V77.6807H95.7853V77.3626V77.0446V76.7265H95.6263H95.4672V76.4085H95.1492V76.0904H94.8311V75.7724H94.5131V75.4544H94.1951V75.1363H93.559V74.8183H92.9229V74.5002H91.9688V74.1822H90.3785V73.8641H87.6752V74.1822H86.244V74.5002H85.2899V74.8183H84.6538V75.1363H84.0177V75.4544H83.6996V75.7724H83.3816V76.0904H83.0636V76.4085H82.7455V77.0446Z" fill="#63C42E"/>
<g id="Group 5">
<path id="Vector 10" d="M147.996 40.9272V45.065L151.141 46.8856H151.969L154.948 45.065V40.9272L151.969 39.1066H151.141L147.996 40.9272Z" fill="#72DA2C" stroke="black" stroke-width="0.0331024"/>
<path id="Vector 9" d="M152.465 63.2713L162.561 57.6439V56.3198L145.514 46.389V39.6031L150.81 36.6238H152.134L156.603 39.272L157.099 39.6031L157.596 39.9341V45.065L157.927 45.727H158.755L159.086 45.396L169.182 39.6031L169.513 39.272L169.347 32.9826V32.6515L158.755 26.3621L152.465 22.5553H150.975L140.879 28.3482L133.431 32.9826V53.3406L133.762 53.8371L140.548 57.6439L150.479 63.2713H152.465Z" fill="black" stroke="#FCFDFD" stroke-width="0.562741"/>
<path id="Vector 7" d="M90.398 33.9757L89.736 34.8032V54.8302C89.9566 54.9957 90.398 55.3598 90.398 55.4923C90.398 55.6247 96.4668 59.0784 99.5012 60.7886L106.949 65.2575H108.935L118.701 59.4646L125.818 55.1612L125.983 54.8302V33.4791L125.652 6.66617V6.33515C122.176 4.349 115.258 0.376709 115.39 0.376709H114.397L113.735 0.873245V26.5276V26.8587C113.459 26.8035 112.875 26.66 112.742 26.5276C112.61 26.3952 110.039 24.9277 108.77 24.2105H106.949L90.398 33.9757Z" fill="black" stroke="#FCFDFD" stroke-width="0.562741"/>
<g id="Vector 8" filter="url(#filter0_d_157_847)">
<path d="M100.991 40.6692V47.1242L101.322 47.6207L106.784 50.7655H107.446L113.073 47.6207V47.1242V40.6692L107.446 37.1935C107.225 37.1383 106.784 37.0611 106.784 37.1935C106.784 37.3259 102.922 39.5658 100.991 40.6692Z" fill="url(#paint0_linear_157_847)" shape-rendering="crispEdges"/>
<path d="M100.991 40.6692V47.1242L101.322 47.6207L106.784 50.7655H107.446L113.073 47.6207V47.1242V40.6692L107.446 37.1935C107.225 37.1383 106.784 37.0611 106.784 37.1935C106.784 37.3259 102.922 39.5658 100.991 40.6692Z" fill="url(#paint1_linear_157_847)" fill-opacity="0.7" shape-rendering="crispEdges"/>
<path d="M100.991 40.6692V47.1242L101.322 47.6207L106.784 50.7655H107.446L113.073 47.6207V47.1242V40.6692L107.446 37.1935C107.225 37.1383 106.784 37.0611 106.784 37.1935C106.784 37.3259 102.922 39.5658 100.991 40.6692Z" stroke="black" stroke-width="0.0827561" shape-rendering="crispEdges"/>
</g>
<path id="Vector 5" d="M0.69043 60.9542L1.51799 61.6162H2.34555L12.4418 55.6578L12.9383 54.9957V41.7548L13.4349 41.2582L18.4002 38.4445H19.7243L24.5242 41.2582L24.8552 41.7548V54.9957L25.3517 55.6578L35.6135 61.6162H36.4411L36.7721 60.9542L37.1031 34.8033L20.2209 24.5415H17.9037L0.69043 34.8033V60.9542Z" fill="black" stroke="#FCFDFD" stroke-width="0.562741"/>
<g id="Vector 6">
<path d="M62.5439 63.6843L62.5661 63.6973H62.5919H64.0815H64.1075L64.1298 63.6841L80.681 53.9189L80.6914 53.9128L80.6999 53.9043L81.1965 53.4077L81.2031 53.4011L81.2083 53.3933L81.5394 52.8967L81.5553 52.8728V52.844V33.4791V33.4608L81.5485 33.4438L81.2175 32.6163L81.2054 32.5861L81.1774 32.5696L63.9641 22.4734L63.9418 22.4603H63.916H62.7574H62.7323L62.7104 22.4728L46.1592 31.907L46.1442 31.9155L46.1332 31.9287L45.3057 32.9217L45.2837 32.9482V32.9826V53.3406V53.3862L45.3193 53.4147L46.1469 54.0768L46.1462 54.0776L46.1582 54.0846L62.5439 63.6843Z" fill="url(#paint2_linear_157_847)"/>
<path d="M62.5439 63.6843L62.5661 63.6973H62.5919H64.0815H64.1075L64.1298 63.6841L80.681 53.9189L80.6914 53.9128L80.6999 53.9043L81.1965 53.4077L81.2031 53.4011L81.2083 53.3933L81.5394 52.8967L81.5553 52.8728V52.844V33.4791V33.4608L81.5485 33.4438L81.2175 32.6163L81.2054 32.5861L81.1774 32.5696L63.9641 22.4734L63.9418 22.4603H63.916H62.7574H62.7323L62.7104 22.4728L46.1592 31.907L46.1442 31.9155L46.1332 31.9287L45.3057 32.9217L45.2837 32.9482V32.9826V53.3406V53.3862L45.3193 53.4147L46.1469 54.0768L46.1462 54.0776L46.1582 54.0846L62.5439 63.6843Z" fill="url(#paint3_linear_157_847)" fill-opacity="0.62"/>
<path d="M62.5439 63.6843L62.5661 63.6973H62.5919H64.0815H64.1075L64.1298 63.6841L80.681 53.9189L80.6914 53.9128L80.6999 53.9043L81.1965 53.4077L81.2031 53.4011L81.2083 53.3933L81.5394 52.8967L81.5553 52.8728V52.844V33.4791V33.4608L81.5485 33.4438L81.2175 32.6163L81.2054 32.5861L81.1774 32.5696L63.9641 22.4734L63.9418 22.4603H63.916H62.7574H62.7323L62.7104 22.4728L46.1592 31.907L46.1442 31.9155L46.1332 31.9287L45.3057 32.9217L45.2837 32.9482V32.9826V53.3406V53.3862L45.3193 53.4147L46.1469 54.0768L46.1462 54.0776L46.1582 54.0846L62.5439 63.6843Z" fill="url(#paint4_linear_157_847)" fill-opacity="0.33"/>
<path d="M62.5439 63.6843L62.5661 63.6973H62.5919H64.0815H64.1075L64.1298 63.6841L80.681 53.9189L80.6914 53.9128L80.6999 53.9043L81.1965 53.4077L81.2031 53.4011L81.2083 53.3933L81.5394 52.8967L81.5553 52.8728V52.844V33.4791V33.4608L81.5485 33.4438L81.2175 32.6163L81.2054 32.5861L81.1774 32.5696L63.9641 22.4734L63.9418 22.4603H63.916H62.7574H62.7323L62.7104 22.4728L46.1592 31.907L46.1442 31.9155L46.1332 31.9287L45.3057 32.9217L45.2837 32.9482V32.9826V53.3406V53.3862L45.3193 53.4147L46.1469 54.0768L46.1462 54.0776L46.1582 54.0846L62.5439 63.6843Z" fill="url(#paint5_linear_157_847)" fill-opacity="0.46"/>
<path d="M62.5439 63.6843L62.5661 63.6973H62.5919H64.0815H64.1075L64.1298 63.6841L80.681 53.9189L80.6914 53.9128L80.6999 53.9043L81.1965 53.4077L81.2031 53.4011L81.2083 53.3933L81.5394 52.8967L81.5553 52.8728V52.844V33.4791V33.4608L81.5485 33.4438L81.2175 32.6163L81.2054 32.5861L81.1774 32.5696L63.9641 22.4734L63.9418 22.4603H63.916H62.7574H62.7323L62.7104 22.4728L46.1592 31.907L46.1442 31.9155L46.1332 31.9287L45.3057 32.9217L45.2837 32.9482V32.9826V53.3406V53.3862L45.3193 53.4147L46.1469 54.0768L46.1462 54.0776L46.1582 54.0846L62.5439 63.6843Z" stroke="#FCFDFD" stroke-width="0.19"/>
</g>
</g>
</g>
<defs>
<filter id="filter0_d_157_847" x="100.122" y="35.9204" width="14.8134" height="16.3761" filterUnits="userSpaceOnUse" color-interpolation-filters="sRGB">
<feFlood flood-opacity="0" result="BackgroundImageFix"/>
<feColorMatrix in="SourceAlpha" type="matrix" values="0 0 0 0 0 0 0 0 0 0 0 0 0 0 0 0 0 0 127 0" result="hardAlpha"/>
<feOffset dx="0.496536" dy="0.165512"/>
<feGaussianBlur stdDeviation="0.662049"/>
<feComposite in2="hardAlpha" operator="out"/>
<feColorMatrix type="matrix" values="0 0 0 0 0.388235 0 0 0 0 0.768627 0 0 0 0 0.180392 0 0 0 1 0"/>
<feBlend mode="normal" in2="BackgroundImageFix" result="effect1_dropShadow_157_847"/>
<feBlend mode="normal" in="SourceGraphic" in2="effect1_dropShadow_157_847" result="shape"/>
</filter>
<linearGradient id="paint0_linear_157_847" x1="110.922" y1="35.1342" x2="97.6806" y2="49.2027" gradientUnits="userSpaceOnUse">
<stop offset="0.50016" stop-color="white"/>
<stop offset="1" stop-color="white" stop-opacity="0"/>
</linearGradient>
<linearGradient id="paint1_linear_157_847" x1="117.542" y1="40.2651" x2="108.77" y2="29.6723" gradientUnits="userSpaceOnUse">
<stop offset="0.104395" stop-color="#EFECEC"/>
<stop offset="0.943493" stop-color="#827C7C"/>
</linearGradient>
<linearGradient id="paint2_linear_157_847" x1="63.4195" y1="22.5553" x2="63.4195" y2="63.6023" gradientUnits="userSpaceOnUse">
<stop stop-color="#3E863D"/>
<stop offset="1" stop-color="#5C9653"/>
</linearGradient>
<linearGradient id="paint3_linear_157_847" x1="55.3094" y1="39.7686" x2="63.585" y2="43.0788" gradientUnits="userSpaceOnUse">
<stop offset="0.119861" stop-color="#5AFF58"/>
</linearGradient>
<linearGradient id="paint4_linear_157_847" x1="54.3163" y1="68.8987" x2="70.8675" y2="60.2921" gradientUnits="userSpaceOnUse">
<stop/>
<stop offset="0.451056" stop-color="#AEE834"/>
<stop offset="1"/>
</linearGradient>
<linearGradient id="paint5_linear_157_847" x1="81.4603" y1="31.824" x2="66.5642" y2="41.4237" gradientUnits="userSpaceOnUse">
<stop offset="0.239358" stop-color="#A0FB59"/>
<stop offset="1" stop-color="#8FFB22"/>
</linearGradient>
</defs>
</svg>
