<svg width="198" height="91" viewBox="0 0 198 91" fill="none" xmlns="http://www.w3.org/2000/svg">
<path d="M63.321 2.26195L0.713989 58.8691V61.2169L8.53987 67.9993H11.1485L67.7557 24.6961V4.34886V2.78368L66.9731 1.47937L65.147 0.957642L63.321 2.26195Z" fill="#1170B4"/>
<path d="M68.0156 65.9129L10.1041 22.3489L7.49544 22.8706L0.191284 29.9139V32.0008L62.7983 88.608C63.32 88.8688 65.3026 90.5384 66.9721 89.9123C68.6416 89.2862 68.0156 87.3037 68.0156 87.3037V65.9129Z" fill="#2389CB"/>
<path d="M88.8837 12.1753L67.7539 1.74084L66.1887 1.47998L67.2322 2.78429L67.7539 5.13206V89.9124L88.8837 79.217L90.1881 77.6519V13.7405L88.8837 12.1753Z" fill="#3C99D6"/>
<mask id="path-4-inside-1_6_357" fill="white">
<path d="M103.333 81.7959L103.54 83.5631H103.599L103.834 81.7812L105.336 75.7434H107.295L104.173 86.1255H102.759L99.6077 75.7434H101.802L103.333 81.7959ZM107.942 78.6887H109.694V86.0519H107.942V78.6887ZM107.736 76.6122C107.736 76.3177 107.829 76.0772 108.015 75.8906C108.202 75.6943 108.467 75.5961 108.811 75.5961C109.154 75.5961 109.429 75.6894 109.635 75.8759C109.841 76.0624 109.945 76.3079 109.945 76.6122C109.945 76.9166 109.841 77.1571 109.635 77.3338C109.429 77.5105 109.154 77.5989 108.811 77.5989C108.467 77.5989 108.202 77.5105 108.015 77.3338C107.829 77.1473 107.736 76.9068 107.736 76.6122ZM113.576 84.0933C113.576 83.8871 113.508 83.7153 113.37 83.5778C113.242 83.4306 113.076 83.298 112.869 83.1802C112.663 83.0526 112.442 82.925 112.207 82.7973C111.981 82.6697 111.765 82.5126 111.559 82.3261C111.353 82.1396 111.181 81.9138 111.043 81.6487C110.916 81.3836 110.852 81.0498 110.852 80.6473C110.852 79.96 111.038 79.4299 111.411 79.0568C111.785 78.6838 112.334 78.4972 113.061 78.4972C113.493 78.4972 113.9 78.5463 114.283 78.6445C114.666 78.7328 114.97 78.8457 115.196 78.9832L114.784 80.338C114.597 80.2595 114.371 80.1859 114.106 80.1171C113.841 80.0386 113.581 79.9993 113.326 79.9993C112.845 79.9993 112.604 80.2006 112.604 80.6031C112.604 80.7896 112.668 80.9467 112.796 81.0743C112.933 81.1922 113.105 81.31 113.311 81.4278C113.517 81.5456 113.733 81.6683 113.959 81.7959C114.195 81.9236 114.416 82.0856 114.622 82.2819C114.828 82.4684 114.995 82.6992 115.123 82.9741C115.26 83.2489 115.329 83.5877 115.329 83.9902C115.329 84.6676 115.123 85.2125 114.71 85.6248C114.298 86.0372 113.684 86.2433 112.869 86.2433C112.467 86.2433 112.069 86.1942 111.677 86.0961C111.294 85.9979 110.984 85.8703 110.749 85.7132L111.235 84.2994C111.441 84.4172 111.677 84.5203 111.942 84.6087C112.217 84.697 112.501 84.7412 112.796 84.7412C113.022 84.7412 113.208 84.6921 113.355 84.594C113.503 84.486 113.576 84.3191 113.576 84.0933ZM117.944 78.6887V83.0919C117.944 83.6711 117.998 84.0736 118.106 84.2994C118.214 84.5252 118.411 84.6381 118.695 84.6381C118.97 84.6381 119.201 84.54 119.387 84.3436C119.574 84.1374 119.707 83.892 119.785 83.6073V78.6887H121.538V83.8135C121.538 84.216 121.552 84.6136 121.582 85.0063C121.611 85.3892 121.665 85.7377 121.744 86.0519H120.418L120.109 85.0505H120.065C119.878 85.3941 119.623 85.6788 119.299 85.9046C118.985 86.1304 118.592 86.2433 118.121 86.2433C117.817 86.2433 117.547 86.1991 117.311 86.1108C117.075 86.0322 116.874 85.8899 116.707 85.6837C116.54 85.4775 116.413 85.1977 116.324 84.8443C116.236 84.4811 116.192 84.0245 116.192 83.4748V78.6887H117.944ZM122.838 79.1305C123.132 78.9537 123.5 78.8114 123.942 78.7034C124.384 78.5954 124.885 78.5414 125.444 78.5414C126.279 78.5414 126.858 78.7574 127.182 79.1894C127.516 79.6213 127.683 80.2349 127.683 81.0302C127.683 81.4916 127.668 81.9481 127.639 82.3997C127.619 82.8415 127.604 83.2784 127.594 83.7104C127.585 84.1325 127.589 84.5449 127.609 84.9474C127.639 85.3401 127.707 85.7132 127.815 86.0666H126.387L126.107 85.1683H126.048C125.891 85.453 125.67 85.6886 125.385 85.8752C125.101 86.0617 124.742 86.155 124.31 86.155C123.731 86.155 123.275 85.9635 122.941 85.5806C122.607 85.1879 122.44 84.6676 122.44 84.0196C122.44 83.136 122.754 82.5077 123.383 82.1346C124.011 81.7616 124.86 81.6045 125.93 81.6634C125.979 81.094 125.94 80.6816 125.812 80.4264C125.695 80.1711 125.434 80.0435 125.032 80.0435C124.737 80.0435 124.433 80.0779 124.119 80.1466C123.805 80.2153 123.525 80.3135 123.279 80.4411L122.838 79.1305ZM124.944 84.6529C125.209 84.6529 125.425 84.5891 125.592 84.4614C125.758 84.324 125.881 84.1767 125.96 84.0196V82.7973C125.734 82.7679 125.518 82.763 125.312 82.7826C125.106 82.8022 124.924 82.8464 124.767 82.9151C124.61 82.9839 124.482 83.087 124.384 83.2244C124.296 83.352 124.251 83.5189 124.251 83.7251C124.251 84.0294 124.31 84.2602 124.428 84.4172C124.556 84.5743 124.728 84.6529 124.944 84.6529ZM130.688 83.6662C130.688 84.0098 130.723 84.2553 130.791 84.4025C130.86 84.5498 130.973 84.6234 131.13 84.6234C131.218 84.6234 131.307 84.6136 131.395 84.594C131.493 84.5743 131.601 84.54 131.719 84.4909L131.881 85.9046C131.763 85.9832 131.562 86.0568 131.277 86.1255C130.992 86.1942 130.703 86.2286 130.408 86.2286C129.917 86.2286 129.549 86.1059 129.304 85.8604C129.058 85.615 128.936 85.1977 128.936 84.6087V75.7434H130.688V83.6662ZM139.145 83.4011C139.145 83.087 139.051 82.8219 138.865 82.6059C138.678 82.3801 138.443 82.169 138.158 81.9727C137.883 81.7763 137.579 81.575 137.245 81.3689C136.921 81.1627 136.617 80.9222 136.332 80.6473C136.057 80.3724 135.826 80.0484 135.64 79.6753C135.453 79.3023 135.36 78.8457 135.36 78.3058C135.36 77.8051 135.434 77.3829 135.581 77.0393C135.738 76.6859 135.949 76.4012 136.214 76.1852C136.479 75.9594 136.793 75.7974 137.157 75.6992C137.52 75.5912 137.908 75.5372 138.32 75.5372C138.821 75.5372 139.287 75.5863 139.719 75.6845C140.151 75.7826 140.509 75.9152 140.794 76.0821L140.22 77.7167C140.053 77.5989 139.802 77.4909 139.469 77.3927C139.145 77.2946 138.791 77.2455 138.408 77.2455C138.025 77.2455 137.731 77.324 137.525 77.4811C137.319 77.6382 137.216 77.8689 137.216 78.1732C137.216 78.4481 137.309 78.6936 137.495 78.9096C137.682 79.1157 137.913 79.317 138.187 79.5133C138.472 79.7097 138.777 79.9159 139.101 80.1319C139.434 80.338 139.739 80.5835 140.014 80.8682C140.298 81.1431 140.534 81.472 140.72 81.8548C140.907 82.2279 141 82.6746 141 83.195C141 83.7153 140.922 84.1669 140.765 84.5498C140.617 84.9327 140.401 85.2517 140.117 85.507C139.842 85.7524 139.508 85.939 139.115 86.0666C138.723 86.1942 138.286 86.258 137.805 86.258C137.196 86.258 136.661 86.1991 136.199 86.0813C135.748 85.9635 135.399 85.831 135.154 85.6837L135.758 84.0196C135.954 84.1374 136.224 84.2553 136.568 84.3731C136.911 84.4909 137.279 84.5498 137.672 84.5498C138.654 84.5498 139.145 84.1669 139.145 83.4011ZM141.404 78.6887H142.214V77.3044L143.967 76.7595V78.6887H145.395V80.2497H143.967V83.46C143.967 83.8822 144.006 84.1816 144.085 84.3583C144.173 84.5351 144.325 84.6234 144.541 84.6234C144.688 84.6234 144.821 84.6087 144.939 84.5792C145.057 84.5498 145.184 84.5056 145.322 84.4467L145.543 85.8457C145.327 85.9537 145.076 86.0421 144.792 86.1108C144.507 86.1893 144.207 86.2286 143.893 86.2286C143.334 86.2286 142.912 86.0666 142.627 85.7426C142.352 85.4186 142.214 84.8738 142.214 84.108V80.2497H141.404V78.6887ZM147.958 78.6887V83.0919C147.958 83.6711 148.012 84.0736 148.12 84.2994C148.228 84.5252 148.424 84.6381 148.709 84.6381C148.984 84.6381 149.215 84.54 149.401 84.3436C149.588 84.1374 149.72 83.892 149.799 83.6073V78.6887H151.551V83.8135C151.551 84.216 151.566 84.6136 151.595 85.0063C151.625 85.3892 151.679 85.7377 151.757 86.0519H150.432L150.123 85.0505H150.079C149.892 85.3941 149.637 85.6788 149.313 85.9046C148.999 86.1304 148.606 86.2433 148.135 86.2433C147.83 86.2433 147.56 86.1991 147.325 86.1108C147.089 86.0322 146.888 85.8899 146.721 85.6837C146.554 85.4775 146.426 85.1977 146.338 84.8443C146.25 84.4811 146.206 84.0245 146.206 83.4748V78.6887H147.958ZM158.123 83.46C158.123 83.8724 158.128 84.2847 158.138 84.697C158.148 85.1094 158.187 85.5659 158.256 86.0666H157.019L156.783 85.2125H156.724C156.391 85.8997 155.807 86.2433 154.972 86.2433C154.226 86.2433 153.637 85.9488 153.205 85.3597C152.783 84.7707 152.572 83.8135 152.572 82.4881C152.572 81.1922 152.802 80.2104 153.264 79.5428C153.725 78.8654 154.412 78.5267 155.325 78.5267C155.561 78.5267 155.757 78.5414 155.915 78.5709C156.072 78.6003 156.224 78.6494 156.371 78.7181V75.7434H158.123V83.46ZM155.384 84.6381C155.649 84.6381 155.861 84.5743 156.018 84.4467C156.175 84.3093 156.293 84.1129 156.371 83.8576V80.3822C156.273 80.2938 156.16 80.23 156.032 80.1908C155.915 80.1515 155.757 80.1319 155.561 80.1319C155.168 80.1319 154.874 80.3086 154.678 80.662C154.481 81.0154 154.383 81.6438 154.383 82.547C154.383 83.2244 154.462 83.7447 154.619 84.108C154.785 84.4614 155.041 84.6381 155.384 84.6381ZM159.542 78.6887H161.294V86.0519H159.542V78.6887ZM159.336 76.6122C159.336 76.3177 159.429 76.0772 159.615 75.8906C159.802 75.6943 160.067 75.5961 160.411 75.5961C160.754 75.5961 161.029 75.6894 161.235 75.8759C161.442 76.0624 161.545 76.3079 161.545 76.6122C161.545 76.9166 161.442 77.1571 161.235 77.3338C161.029 77.5105 160.754 77.5989 160.411 77.5989C160.067 77.5989 159.802 77.5105 159.615 77.3338C159.429 77.1473 159.336 76.9068 159.336 76.6122ZM162.437 82.3703C162.437 81.0645 162.692 80.0926 163.203 79.4544C163.713 78.8163 164.425 78.4972 165.338 78.4972C166.32 78.4972 167.051 78.8212 167.533 79.4692C168.014 80.1171 168.254 81.0842 168.254 82.3703C168.254 83.6858 167.999 84.6627 167.488 85.3008C166.978 85.9292 166.261 86.2433 165.338 86.2433C163.404 86.2433 162.437 84.9523 162.437 82.3703ZM164.249 82.3703C164.249 83.1066 164.332 83.676 164.499 84.0785C164.666 84.4811 164.946 84.6823 165.338 84.6823C165.711 84.6823 165.986 84.5105 166.163 84.1669C166.35 83.8135 166.443 83.2146 166.443 82.3703C166.443 81.6143 166.359 81.04 166.192 80.6473C166.026 80.2546 165.741 80.0582 165.338 80.0582C164.995 80.0582 164.725 80.2349 164.528 80.5884C164.342 80.932 164.249 81.526 164.249 82.3703ZM177.983 85.6395C177.728 85.8555 177.385 86.0126 176.953 86.1108C176.53 86.209 176.108 86.258 175.686 86.258C175.156 86.258 174.66 86.1697 174.199 85.993C173.747 85.8064 173.35 85.5021 173.006 85.0799C172.662 84.6578 172.392 84.1031 172.196 83.4158C172 82.7286 171.901 81.8843 171.901 80.8829C171.901 79.8422 172.009 78.9783 172.225 78.2911C172.451 77.6038 172.741 77.0589 173.094 76.6564C173.458 76.2441 173.87 75.9545 174.331 75.7876C174.793 75.6207 175.259 75.5372 175.73 75.5372C176.211 75.5372 176.629 75.5765 176.982 75.655C177.345 75.7336 177.64 75.8219 177.866 75.9201L177.497 77.5547C177.311 77.4566 177.09 77.3829 176.835 77.3338C176.589 77.2749 176.295 77.2455 175.951 77.2455C175.274 77.2455 174.753 77.54 174.39 78.1291C174.027 78.7181 173.845 79.641 173.845 80.8976C173.845 81.4376 173.885 81.9334 173.963 82.385C174.052 82.8268 174.184 83.2097 174.361 83.5337C174.547 83.8576 174.778 84.108 175.053 84.2847C175.338 84.4614 175.676 84.5498 176.069 84.5498C176.413 84.5498 176.707 84.5056 176.953 84.4172C177.198 84.3191 177.419 84.2062 177.615 84.0785L177.983 85.6395ZM178.142 82.3703C178.142 81.0645 178.397 80.0926 178.907 79.4544C179.418 78.8163 180.13 78.4972 181.043 78.4972C182.024 78.4972 182.756 78.8212 183.237 79.4692C183.718 80.1171 183.958 81.0842 183.958 82.3703C183.958 83.6858 183.703 84.6627 183.193 85.3008C182.682 85.9292 181.966 86.2433 181.043 86.2433C179.109 86.2433 178.142 84.9523 178.142 82.3703ZM179.953 82.3703C179.953 83.1066 180.036 83.676 180.203 84.0785C180.37 84.4811 180.65 84.6823 181.043 84.6823C181.416 84.6823 181.691 84.5105 181.867 84.1669C182.054 83.8135 182.147 83.2146 182.147 82.3703C182.147 81.6143 182.064 81.04 181.897 80.6473C181.73 80.2546 181.445 80.0582 181.043 80.0582C180.699 80.0582 180.429 80.2349 180.233 80.5884C180.046 80.932 179.953 81.526 179.953 82.3703ZM190.251 83.46C190.251 83.8724 190.256 84.2847 190.266 84.697C190.276 85.1094 190.315 85.5659 190.384 86.0666H189.147L188.911 85.2125H188.852C188.518 85.8997 187.934 86.2433 187.1 86.2433C186.354 86.2433 185.765 85.9488 185.333 85.3597C184.91 84.7707 184.699 83.8135 184.699 82.4881C184.699 81.1922 184.93 80.2104 185.392 79.5428C185.853 78.8654 186.54 78.5267 187.453 78.5267C187.689 78.5267 187.885 78.5414 188.042 78.5709C188.199 78.6003 188.352 78.6494 188.499 78.7181V75.7434H190.251V83.46ZM187.512 84.6381C187.777 84.6381 187.988 84.5743 188.145 84.4467C188.302 84.3093 188.42 84.1129 188.499 83.8576V80.3822C188.401 80.2938 188.288 80.23 188.16 80.1908C188.042 80.1515 187.885 80.1319 187.689 80.1319C187.296 80.1319 187.002 80.3086 186.805 80.662C186.609 81.0154 186.511 81.6438 186.511 82.547C186.511 83.2244 186.589 83.7447 186.746 84.108C186.913 84.4614 187.169 84.6381 187.512 84.6381ZM196.5 85.507C196.254 85.723 195.921 85.8997 195.498 86.0372C195.076 86.1746 194.635 86.2433 194.173 86.2433C193.663 86.2433 193.221 86.155 192.848 85.9782C192.484 85.8015 192.185 85.5463 191.949 85.2125C191.714 84.8787 191.537 84.4762 191.419 84.0049C191.311 83.5238 191.257 82.979 191.257 82.3703C191.257 81.0449 191.517 80.068 192.038 79.4397C192.568 78.8016 193.299 78.4825 194.232 78.4825C194.546 78.4825 194.851 78.5316 195.145 78.6298C195.44 78.7181 195.7 78.8752 195.926 79.101C196.161 79.317 196.348 79.6115 196.485 79.9846C196.632 80.3478 196.706 80.8093 196.706 81.3689C196.706 81.5849 196.691 81.8156 196.662 82.061C196.642 82.3065 196.608 82.5715 196.559 82.8562H192.98C193 83.4649 193.128 83.9313 193.363 84.2553C193.599 84.5792 193.977 84.7412 194.497 84.7412C194.811 84.7412 195.096 84.6921 195.351 84.594C195.616 84.4958 195.818 84.3927 195.955 84.2847L196.5 85.507ZM194.203 79.9846C193.829 79.9846 193.55 80.1368 193.363 80.4411C193.177 80.7356 193.069 81.1529 193.039 81.6929H195.071C195.101 81.1333 195.042 80.7111 194.895 80.4264C194.747 80.1319 194.517 79.9846 194.203 79.9846Z"/>
</mask>
<path d="M103.333 81.7959L103.54 83.5631H103.599L103.834 81.7812L105.336 75.7434H107.295L104.173 86.1255H102.759L99.6077 75.7434H101.802L103.333 81.7959ZM107.942 78.6887H109.694V86.0519H107.942V78.6887ZM107.736 76.6122C107.736 76.3177 107.829 76.0772 108.015 75.8906C108.202 75.6943 108.467 75.5961 108.811 75.5961C109.154 75.5961 109.429 75.6894 109.635 75.8759C109.841 76.0624 109.945 76.3079 109.945 76.6122C109.945 76.9166 109.841 77.1571 109.635 77.3338C109.429 77.5105 109.154 77.5989 108.811 77.5989C108.467 77.5989 108.202 77.5105 108.015 77.3338C107.829 77.1473 107.736 76.9068 107.736 76.6122ZM113.576 84.0933C113.576 83.8871 113.508 83.7153 113.37 83.5778C113.242 83.4306 113.076 83.298 112.869 83.1802C112.663 83.0526 112.442 82.925 112.207 82.7973C111.981 82.6697 111.765 82.5126 111.559 82.3261C111.353 82.1396 111.181 81.9138 111.043 81.6487C110.916 81.3836 110.852 81.0498 110.852 80.6473C110.852 79.96 111.038 79.4299 111.411 79.0568C111.785 78.6838 112.334 78.4972 113.061 78.4972C113.493 78.4972 113.9 78.5463 114.283 78.6445C114.666 78.7328 114.97 78.8457 115.196 78.9832L114.784 80.338C114.597 80.2595 114.371 80.1859 114.106 80.1171C113.841 80.0386 113.581 79.9993 113.326 79.9993C112.845 79.9993 112.604 80.2006 112.604 80.6031C112.604 80.7896 112.668 80.9467 112.796 81.0743C112.933 81.1922 113.105 81.31 113.311 81.4278C113.517 81.5456 113.733 81.6683 113.959 81.7959C114.195 81.9236 114.416 82.0856 114.622 82.2819C114.828 82.4684 114.995 82.6992 115.123 82.9741C115.26 83.2489 115.329 83.5877 115.329 83.9902C115.329 84.6676 115.123 85.2125 114.71 85.6248C114.298 86.0372 113.684 86.2433 112.869 86.2433C112.467 86.2433 112.069 86.1942 111.677 86.0961C111.294 85.9979 110.984 85.8703 110.749 85.7132L111.235 84.2994C111.441 84.4172 111.677 84.5203 111.942 84.6087C112.217 84.697 112.501 84.7412 112.796 84.7412C113.022 84.7412 113.208 84.6921 113.355 84.594C113.503 84.486 113.576 84.3191 113.576 84.0933ZM117.944 78.6887V83.0919C117.944 83.6711 117.998 84.0736 118.106 84.2994C118.214 84.5252 118.411 84.6381 118.695 84.6381C118.97 84.6381 119.201 84.54 119.387 84.3436C119.574 84.1374 119.707 83.892 119.785 83.6073V78.6887H121.538V83.8135C121.538 84.216 121.552 84.6136 121.582 85.0063C121.611 85.3892 121.665 85.7377 121.744 86.0519H120.418L120.109 85.0505H120.065C119.878 85.3941 119.623 85.6788 119.299 85.9046C118.985 86.1304 118.592 86.2433 118.121 86.2433C117.817 86.2433 117.547 86.1991 117.311 86.1108C117.075 86.0322 116.874 85.8899 116.707 85.6837C116.54 85.4775 116.413 85.1977 116.324 84.8443C116.236 84.4811 116.192 84.0245 116.192 83.4748V78.6887H117.944ZM122.838 79.1305C123.132 78.9537 123.5 78.8114 123.942 78.7034C124.384 78.5954 124.885 78.5414 125.444 78.5414C126.279 78.5414 126.858 78.7574 127.182 79.1894C127.516 79.6213 127.683 80.2349 127.683 81.0302C127.683 81.4916 127.668 81.9481 127.639 82.3997C127.619 82.8415 127.604 83.2784 127.594 83.7104C127.585 84.1325 127.589 84.5449 127.609 84.9474C127.639 85.3401 127.707 85.7132 127.815 86.0666H126.387L126.107 85.1683H126.048C125.891 85.453 125.67 85.6886 125.385 85.8752C125.101 86.0617 124.742 86.155 124.31 86.155C123.731 86.155 123.275 85.9635 122.941 85.5806C122.607 85.1879 122.44 84.6676 122.44 84.0196C122.44 83.136 122.754 82.5077 123.383 82.1346C124.011 81.7616 124.86 81.6045 125.93 81.6634C125.979 81.094 125.94 80.6816 125.812 80.4264C125.695 80.1711 125.434 80.0435 125.032 80.0435C124.737 80.0435 124.433 80.0779 124.119 80.1466C123.805 80.2153 123.525 80.3135 123.279 80.4411L122.838 79.1305ZM124.944 84.6529C125.209 84.6529 125.425 84.5891 125.592 84.4614C125.758 84.324 125.881 84.1767 125.96 84.0196V82.7973C125.734 82.7679 125.518 82.763 125.312 82.7826C125.106 82.8022 124.924 82.8464 124.767 82.9151C124.61 82.9839 124.482 83.087 124.384 83.2244C124.296 83.352 124.251 83.5189 124.251 83.7251C124.251 84.0294 124.31 84.2602 124.428 84.4172C124.556 84.5743 124.728 84.6529 124.944 84.6529ZM130.688 83.6662C130.688 84.0098 130.723 84.2553 130.791 84.4025C130.86 84.5498 130.973 84.6234 131.13 84.6234C131.218 84.6234 131.307 84.6136 131.395 84.594C131.493 84.5743 131.601 84.54 131.719 84.4909L131.881 85.9046C131.763 85.9832 131.562 86.0568 131.277 86.1255C130.992 86.1942 130.703 86.2286 130.408 86.2286C129.917 86.2286 129.549 86.1059 129.304 85.8604C129.058 85.615 128.936 85.1977 128.936 84.6087V75.7434H130.688V83.6662ZM139.145 83.4011C139.145 83.087 139.051 82.8219 138.865 82.6059C138.678 82.3801 138.443 82.169 138.158 81.9727C137.883 81.7763 137.579 81.575 137.245 81.3689C136.921 81.1627 136.617 80.9222 136.332 80.6473C136.057 80.3724 135.826 80.0484 135.64 79.6753C135.453 79.3023 135.36 78.8457 135.36 78.3058C135.36 77.8051 135.434 77.3829 135.581 77.0393C135.738 76.6859 135.949 76.4012 136.214 76.1852C136.479 75.9594 136.793 75.7974 137.157 75.6992C137.52 75.5912 137.908 75.5372 138.32 75.5372C138.821 75.5372 139.287 75.5863 139.719 75.6845C140.151 75.7826 140.509 75.9152 140.794 76.0821L140.22 77.7167C140.053 77.5989 139.802 77.4909 139.469 77.3927C139.145 77.2946 138.791 77.2455 138.408 77.2455C138.025 77.2455 137.731 77.324 137.525 77.4811C137.319 77.6382 137.216 77.8689 137.216 78.1732C137.216 78.4481 137.309 78.6936 137.495 78.9096C137.682 79.1157 137.913 79.317 138.187 79.5133C138.472 79.7097 138.777 79.9159 139.101 80.1319C139.434 80.338 139.739 80.5835 140.014 80.8682C140.298 81.1431 140.534 81.472 140.72 81.8548C140.907 82.2279 141 82.6746 141 83.195C141 83.7153 140.922 84.1669 140.765 84.5498C140.617 84.9327 140.401 85.2517 140.117 85.507C139.842 85.7524 139.508 85.939 139.115 86.0666C138.723 86.1942 138.286 86.258 137.805 86.258C137.196 86.258 136.661 86.1991 136.199 86.0813C135.748 85.9635 135.399 85.831 135.154 85.6837L135.758 84.0196C135.954 84.1374 136.224 84.2553 136.568 84.3731C136.911 84.4909 137.279 84.5498 137.672 84.5498C138.654 84.5498 139.145 84.1669 139.145 83.4011ZM141.404 78.6887H142.214V77.3044L143.967 76.7595V78.6887H145.395V80.2497H143.967V83.46C143.967 83.8822 144.006 84.1816 144.085 84.3583C144.173 84.5351 144.325 84.6234 144.541 84.6234C144.688 84.6234 144.821 84.6087 144.939 84.5792C145.057 84.5498 145.184 84.5056 145.322 84.4467L145.543 85.8457C145.327 85.9537 145.076 86.0421 144.792 86.1108C144.507 86.1893 144.207 86.2286 143.893 86.2286C143.334 86.2286 142.912 86.0666 142.627 85.7426C142.352 85.4186 142.214 84.8738 142.214 84.108V80.2497H141.404V78.6887ZM147.958 78.6887V83.0919C147.958 83.6711 148.012 84.0736 148.12 84.2994C148.228 84.5252 148.424 84.6381 148.709 84.6381C148.984 84.6381 149.215 84.54 149.401 84.3436C149.588 84.1374 149.72 83.892 149.799 83.6073V78.6887H151.551V83.8135C151.551 84.216 151.566 84.6136 151.595 85.0063C151.625 85.3892 151.679 85.7377 151.757 86.0519H150.432L150.123 85.0505H150.079C149.892 85.3941 149.637 85.6788 149.313 85.9046C148.999 86.1304 148.606 86.2433 148.135 86.2433C147.83 86.2433 147.56 86.1991 147.325 86.1108C147.089 86.0322 146.888 85.8899 146.721 85.6837C146.554 85.4775 146.426 85.1977 146.338 84.8443C146.25 84.4811 146.206 84.0245 146.206 83.4748V78.6887H147.958ZM158.123 83.46C158.123 83.8724 158.128 84.2847 158.138 84.697C158.148 85.1094 158.187 85.5659 158.256 86.0666H157.019L156.783 85.2125H156.724C156.391 85.8997 155.807 86.2433 154.972 86.2433C154.226 86.2433 153.637 85.9488 153.205 85.3597C152.783 84.7707 152.572 83.8135 152.572 82.4881C152.572 81.1922 152.802 80.2104 153.264 79.5428C153.725 78.8654 154.412 78.5267 155.325 78.5267C155.561 78.5267 155.757 78.5414 155.915 78.5709C156.072 78.6003 156.224 78.6494 156.371 78.7181V75.7434H158.123V83.46ZM155.384 84.6381C155.649 84.6381 155.861 84.5743 156.018 84.4467C156.175 84.3093 156.293 84.1129 156.371 83.8576V80.3822C156.273 80.2938 156.16 80.23 156.032 80.1908C155.915 80.1515 155.757 80.1319 155.561 80.1319C155.168 80.1319 154.874 80.3086 154.678 80.662C154.481 81.0154 154.383 81.6438 154.383 82.547C154.383 83.2244 154.462 83.7447 154.619 84.108C154.785 84.4614 155.041 84.6381 155.384 84.6381ZM159.542 78.6887H161.294V86.0519H159.542V78.6887ZM159.336 76.6122C159.336 76.3177 159.429 76.0772 159.615 75.8906C159.802 75.6943 160.067 75.5961 160.411 75.5961C160.754 75.5961 161.029 75.6894 161.235 75.8759C161.442 76.0624 161.545 76.3079 161.545 76.6122C161.545 76.9166 161.442 77.1571 161.235 77.3338C161.029 77.5105 160.754 77.5989 160.411 77.5989C160.067 77.5989 159.802 77.5105 159.615 77.3338C159.429 77.1473 159.336 76.9068 159.336 76.6122ZM162.437 82.3703C162.437 81.0645 162.692 80.0926 163.203 79.4544C163.713 78.8163 164.425 78.4972 165.338 78.4972C166.32 78.4972 167.051 78.8212 167.533 79.4692C168.014 80.1171 168.254 81.0842 168.254 82.3703C168.254 83.6858 167.999 84.6627 167.488 85.3008C166.978 85.9292 166.261 86.2433 165.338 86.2433C163.404 86.2433 162.437 84.9523 162.437 82.3703ZM164.249 82.3703C164.249 83.1066 164.332 83.676 164.499 84.0785C164.666 84.4811 164.946 84.6823 165.338 84.6823C165.711 84.6823 165.986 84.5105 166.163 84.1669C166.35 83.8135 166.443 83.2146 166.443 82.3703C166.443 81.6143 166.359 81.04 166.192 80.6473C166.026 80.2546 165.741 80.0582 165.338 80.0582C164.995 80.0582 164.725 80.2349 164.528 80.5884C164.342 80.932 164.249 81.526 164.249 82.3703ZM177.983 85.6395C177.728 85.8555 177.385 86.0126 176.953 86.1108C176.53 86.209 176.108 86.258 175.686 86.258C175.156 86.258 174.66 86.1697 174.199 85.993C173.747 85.8064 173.35 85.5021 173.006 85.0799C172.662 84.6578 172.392 84.1031 172.196 83.4158C172 82.7286 171.901 81.8843 171.901 80.8829C171.901 79.8422 172.009 78.9783 172.225 78.2911C172.451 77.6038 172.741 77.0589 173.094 76.6564C173.458 76.2441 173.87 75.9545 174.331 75.7876C174.793 75.6207 175.259 75.5372 175.73 75.5372C176.211 75.5372 176.629 75.5765 176.982 75.655C177.345 75.7336 177.64 75.8219 177.866 75.9201L177.497 77.5547C177.311 77.4566 177.09 77.3829 176.835 77.3338C176.589 77.2749 176.295 77.2455 175.951 77.2455C175.274 77.2455 174.753 77.54 174.39 78.1291C174.027 78.7181 173.845 79.641 173.845 80.8976C173.845 81.4376 173.885 81.9334 173.963 82.385C174.052 82.8268 174.184 83.2097 174.361 83.5337C174.547 83.8576 174.778 84.108 175.053 84.2847C175.338 84.4614 175.676 84.5498 176.069 84.5498C176.413 84.5498 176.707 84.5056 176.953 84.4172C177.198 84.3191 177.419 84.2062 177.615 84.0785L177.983 85.6395ZM178.142 82.3703C178.142 81.0645 178.397 80.0926 178.907 79.4544C179.418 78.8163 180.13 78.4972 181.043 78.4972C182.024 78.4972 182.756 78.8212 183.237 79.4692C183.718 80.1171 183.958 81.0842 183.958 82.3703C183.958 83.6858 183.703 84.6627 183.193 85.3008C182.682 85.9292 181.966 86.2433 181.043 86.2433C179.109 86.2433 178.142 84.9523 178.142 82.3703ZM179.953 82.3703C179.953 83.1066 180.036 83.676 180.203 84.0785C180.37 84.4811 180.65 84.6823 181.043 84.6823C181.416 84.6823 181.691 84.5105 181.867 84.1669C182.054 83.8135 182.147 83.2146 182.147 82.3703C182.147 81.6143 182.064 81.04 181.897 80.6473C181.73 80.2546 181.445 80.0582 181.043 80.0582C180.699 80.0582 180.429 80.2349 180.233 80.5884C180.046 80.932 179.953 81.526 179.953 82.3703ZM190.251 83.46C190.251 83.8724 190.256 84.2847 190.266 84.697C190.276 85.1094 190.315 85.5659 190.384 86.0666H189.147L188.911 85.2125H188.852C188.518 85.8997 187.934 86.2433 187.1 86.2433C186.354 86.2433 185.765 85.9488 185.333 85.3597C184.91 84.7707 184.699 83.8135 184.699 82.4881C184.699 81.1922 184.93 80.2104 185.392 79.5428C185.853 78.8654 186.54 78.5267 187.453 78.5267C187.689 78.5267 187.885 78.5414 188.042 78.5709C188.199 78.6003 188.352 78.6494 188.499 78.7181V75.7434H190.251V83.46ZM187.512 84.6381C187.777 84.6381 187.988 84.5743 188.145 84.4467C188.302 84.3093 188.42 84.1129 188.499 83.8576V80.3822C188.401 80.2938 188.288 80.23 188.16 80.1908C188.042 80.1515 187.885 80.1319 187.689 80.1319C187.296 80.1319 187.002 80.3086 186.805 80.662C186.609 81.0154 186.511 81.6438 186.511 82.547C186.511 83.2244 186.589 83.7447 186.746 84.108C186.913 84.4614 187.169 84.6381 187.512 84.6381ZM196.5 85.507C196.254 85.723 195.921 85.8997 195.498 86.0372C195.076 86.1746 194.635 86.2433 194.173 86.2433C193.663 86.2433 193.221 86.155 192.848 85.9782C192.484 85.8015 192.185 85.5463 191.949 85.2125C191.714 84.8787 191.537 84.4762 191.419 84.0049C191.311 83.5238 191.257 82.979 191.257 82.3703C191.257 81.0449 191.517 80.068 192.038 79.4397C192.568 78.8016 193.299 78.4825 194.232 78.4825C194.546 78.4825 194.851 78.5316 195.145 78.6298C195.44 78.7181 195.7 78.8752 195.926 79.101C196.161 79.317 196.348 79.6115 196.485 79.9846C196.632 80.3478 196.706 80.8093 196.706 81.3689C196.706 81.5849 196.691 81.8156 196.662 82.061C196.642 82.3065 196.608 82.5715 196.559 82.8562H192.98C193 83.4649 193.128 83.9313 193.363 84.2553C193.599 84.5792 193.977 84.7412 194.497 84.7412C194.811 84.7412 195.096 84.6921 195.351 84.594C195.616 84.4958 195.818 84.3927 195.955 84.2847L196.5 85.507ZM194.203 79.9846C193.829 79.9846 193.55 80.1368 193.363 80.4411C193.177 80.7356 193.069 81.1529 193.039 81.6929H195.071C195.101 81.1333 195.042 80.7111 194.895 80.4264C194.747 80.1319 194.517 79.9846 194.203 79.9846Z" fill="#3C99D6"/>
<path d="M103.333 81.7959L103.516 81.7746L103.515 81.7626L103.512 81.7508L103.333 81.7959ZM103.54 83.5631L103.357 83.5844L103.376 83.7472H103.54V83.5631ZM103.599 83.5631V83.7472H103.76L103.781 83.5872L103.599 83.5631ZM103.834 81.7812L103.656 81.7368L103.653 81.7468L103.652 81.7571L103.834 81.7812ZM105.336 75.7434V75.5593H105.192L105.158 75.6989L105.336 75.7434ZM107.295 75.7434L107.471 75.7964L107.542 75.5593H107.295V75.7434ZM104.173 86.1255V86.3096H104.31L104.349 86.1785L104.173 86.1255ZM102.759 86.1255L102.583 86.179L102.623 86.3096H102.759V86.1255ZM99.6077 75.7434V75.5593H99.3594L99.4315 75.7968L99.6077 75.7434ZM101.802 75.7434L101.98 75.6982L101.945 75.5593H101.802V75.7434ZM103.151 81.8173L103.357 83.5844L103.722 83.5418L103.516 81.7746L103.151 81.8173ZM103.54 83.7472H103.599V83.379H103.54V83.7472ZM103.781 83.5872L104.017 81.8053L103.652 81.7571L103.416 83.539L103.781 83.5872ZM104.013 81.8257L105.515 75.7878L105.158 75.6989L103.656 81.7368L104.013 81.8257ZM105.336 75.9275H107.295V75.5593H105.336V75.9275ZM107.119 75.6904L103.997 86.0725L104.349 86.1785L107.471 75.7964L107.119 75.6904ZM104.173 85.9414H102.759V86.3096H104.173V85.9414ZM102.935 86.072L99.7838 75.6899L99.4315 75.7968L102.583 86.179L102.935 86.072ZM99.6077 75.9275H101.802V75.5593H99.6077V75.9275ZM101.623 75.7885L103.155 81.8411L103.512 81.7508L101.98 75.6982L101.623 75.7885ZM107.942 78.6887V78.5046H107.758V78.6887H107.942ZM109.694 78.6887H109.878V78.5046H109.694V78.6887ZM109.694 86.0519V86.236H109.878V86.0519H109.694ZM107.942 86.0519H107.758V86.236H107.942V86.0519ZM108.015 75.8906L108.146 76.0208L108.149 76.0174L108.015 75.8906ZM109.635 75.8759L109.759 75.7394L109.759 75.7394L109.635 75.8759ZM109.635 77.3338L109.755 77.4736L109.755 77.4736L109.635 77.3338ZM108.015 77.3338L107.885 77.464L107.889 77.4675L108.015 77.3338ZM107.942 78.8727H109.694V78.5046H107.942V78.8727ZM109.51 78.6887V86.0519H109.878V78.6887H109.51ZM109.694 85.8678H107.942V86.236H109.694V85.8678ZM108.126 86.0519V78.6887H107.758V86.0519H108.126ZM107.92 76.6122C107.92 76.3603 107.998 76.1687 108.146 76.0208L107.885 75.7605C107.66 75.9857 107.552 76.2751 107.552 76.6122H107.92ZM108.149 76.0174C108.292 75.8669 108.503 75.7802 108.811 75.7802V75.412C108.431 75.412 108.112 75.5217 107.882 75.7639L108.149 76.0174ZM108.811 75.7802C109.12 75.7802 109.347 75.8633 109.512 76.0124L109.759 75.7394C109.511 75.5155 109.189 75.412 108.811 75.412V75.7802ZM109.512 76.0124C109.676 76.1605 109.761 76.3544 109.761 76.6122H110.129C110.129 76.2614 110.007 75.9644 109.759 75.7394L109.512 76.0124ZM109.761 76.6122C109.761 76.8701 109.676 77.0568 109.516 77.1941L109.755 77.4736C110.007 77.2574 110.129 76.963 110.129 76.6122H109.761ZM109.516 77.1941C109.351 77.3352 109.122 77.4148 108.811 77.4148V77.783C109.186 77.783 109.507 77.6859 109.755 77.4736L109.516 77.1941ZM108.811 77.4148C108.498 77.4148 108.284 77.3348 108.142 77.2002L107.889 77.4675C108.12 77.6863 108.436 77.783 108.811 77.783V77.4148ZM108.146 77.2037C107.998 77.0558 107.92 76.8642 107.92 76.6122H107.552C107.552 76.9494 107.66 77.2388 107.885 77.464L108.146 77.2037ZM113.37 83.5778L113.231 83.6987L113.24 83.708L113.37 83.5778ZM112.869 83.1802L112.772 83.3368L112.778 83.3401L112.869 83.1802ZM112.207 82.7973L112.116 82.9576L112.119 82.9592L112.207 82.7973ZM111.559 82.3261L111.682 82.1896L111.682 82.1896L111.559 82.3261ZM111.043 81.6487L110.877 81.7286L110.88 81.7334L111.043 81.6487ZM111.411 79.0568L111.281 78.9267L111.281 78.9267L111.411 79.0568ZM114.283 78.6445L114.237 78.8228L114.242 78.8239L114.283 78.6445ZM115.196 78.9832L115.372 79.0368L115.414 78.9002L115.292 78.826L115.196 78.9832ZM114.784 80.338L114.712 80.5077L114.901 80.5869L114.96 80.3916L114.784 80.338ZM114.106 80.1171L114.054 80.2937L114.06 80.2953L114.106 80.1171ZM112.796 81.0743L112.665 81.2049L112.676 81.2141L112.796 81.0743ZM113.311 81.4278L113.22 81.5876L113.22 81.5876L113.311 81.4278ZM113.959 81.7959L113.869 81.9562L113.871 81.9578L113.959 81.7959ZM114.622 82.2819L114.495 82.4153L114.498 82.4184L114.622 82.2819ZM115.123 82.9741L114.956 83.0516L114.958 83.0564L115.123 82.9741ZM114.71 85.6248L114.84 85.755L114.84 85.755L114.71 85.6248ZM111.677 86.0961L111.631 86.2744L111.632 86.2746L111.677 86.0961ZM110.749 85.7132L110.575 85.6533L110.529 85.7876L110.647 85.8663L110.749 85.7132ZM111.235 84.2994L111.326 84.1396L111.133 84.0293L111.061 84.2396L111.235 84.2994ZM111.942 84.6087L111.883 84.7833L111.885 84.7839L111.942 84.6087ZM113.355 84.594L113.458 84.7473L113.464 84.7424L113.355 84.594ZM113.76 84.0933C113.76 83.8416 113.674 83.6219 113.5 83.4477L113.24 83.708C113.341 83.8087 113.392 83.9326 113.392 84.0933H113.76ZM113.509 83.4573C113.365 83.2913 113.181 83.1463 112.961 83.0204L112.778 83.3401C112.97 83.4497 113.12 83.5698 113.231 83.6984L113.509 83.4573ZM112.966 83.0237C112.757 82.894 112.533 82.7646 112.294 82.6355L112.119 82.9592C112.352 83.0853 112.57 83.2112 112.772 83.3367L112.966 83.0237ZM112.297 82.6371C112.084 82.5166 111.879 82.3677 111.682 82.1896L111.435 82.4626C111.651 82.6576 111.878 82.8228 112.116 82.9576L112.297 82.6371ZM111.682 82.1896C111.494 82.0188 111.335 81.811 111.207 81.5639L110.88 81.7334C111.027 82.0165 111.212 82.2603 111.435 82.4626L111.682 82.1896ZM111.209 81.5688C111.097 81.3361 111.036 81.0318 111.036 80.6473H110.668C110.668 81.0678 110.734 81.4311 110.877 81.7285L111.209 81.5688ZM111.036 80.6473C111.036 79.9935 111.213 79.516 111.542 79.187L111.281 78.9267C110.864 79.3438 110.668 79.9266 110.668 80.6473H111.036ZM111.542 79.187C111.869 78.8598 112.364 78.6813 113.061 78.6813V78.3131C112.304 78.3131 111.7 78.5077 111.281 78.9267L111.542 79.187ZM113.061 78.6813C113.479 78.6813 113.871 78.7288 114.237 78.8228L114.329 78.4662C113.93 78.3638 113.507 78.3131 113.061 78.3131V78.6813ZM114.242 78.8239C114.614 78.9097 114.898 79.0169 115.1 79.1404L115.292 78.826C115.043 78.6746 114.718 78.556 114.325 78.4651L114.242 78.8239ZM115.02 78.9296L114.608 80.2844L114.96 80.3916L115.372 79.0368L115.02 78.9296ZM114.855 80.1684C114.658 80.0854 114.424 80.0092 114.153 79.9389L114.06 80.2953C114.319 80.3625 114.536 80.4335 114.712 80.5077L114.855 80.1684ZM114.159 79.9406C113.878 79.8575 113.6 79.8152 113.326 79.8152V80.1834C113.562 80.1834 113.805 80.2197 114.054 80.2936L114.159 79.9406ZM113.326 79.8152C113.064 79.8152 112.834 79.8693 112.667 80.0091C112.493 80.1541 112.42 80.364 112.42 80.6031H112.788C112.788 80.4397 112.836 80.3477 112.903 80.2914C112.976 80.23 113.107 80.1834 113.326 80.1834V79.8152ZM112.42 80.6031C112.42 80.8366 112.502 81.0411 112.666 81.2045L112.926 80.9442C112.834 80.8523 112.788 80.7426 112.788 80.6031H112.42ZM112.676 81.2141C112.824 81.3414 113.007 81.4657 113.22 81.5876L113.403 81.268C113.204 81.1542 113.042 81.0429 112.916 80.9346L112.676 81.2141ZM113.22 81.5876C113.426 81.7056 113.643 81.8284 113.869 81.9562L114.05 81.6357C113.824 81.5082 113.608 81.3856 113.403 81.268L113.22 81.5876ZM113.871 81.9578C114.092 82.0772 114.3 82.2294 114.495 82.4152L114.749 82.1486C114.532 81.9417 114.298 81.7699 114.047 81.6341L113.871 81.9578ZM114.498 82.4184C114.685 82.587 114.837 82.797 114.956 83.0516L115.289 82.8965C115.152 82.6013 114.971 82.3499 114.745 82.1454L114.498 82.4184ZM114.958 83.0564C115.079 83.2991 115.145 83.6077 115.145 83.9902H115.513C115.513 83.5676 115.441 83.1988 115.287 82.8917L114.958 83.0564ZM115.145 83.9902C115.145 84.6273 114.952 85.1224 114.58 85.4946L114.84 85.755C115.293 85.3025 115.513 84.7079 115.513 83.9902H115.145ZM114.58 85.4946C114.214 85.8607 113.655 86.0592 112.869 86.0592V86.4274C113.713 86.4274 114.382 86.2136 114.84 85.755L114.58 85.4946ZM112.869 86.0592C112.482 86.0592 112.099 86.012 111.721 85.9175L111.632 86.2746C112.039 86.3764 112.452 86.4274 112.869 86.4274V86.0592ZM111.722 85.9177C111.352 85.8228 111.064 85.702 110.851 85.56L110.647 85.8663C110.905 86.0385 111.235 86.1729 111.631 86.2744L111.722 85.9177ZM110.923 85.773L111.409 84.3593L111.061 84.2396L110.575 85.6533L110.923 85.773ZM111.143 84.4593C111.362 84.584 111.609 84.6918 111.883 84.7833L112 84.4341C111.744 84.3489 111.52 84.2505 111.326 84.1396L111.143 84.4593ZM111.885 84.7839C112.179 84.8783 112.482 84.9253 112.796 84.9253V84.5571C112.52 84.5571 112.254 84.5158 111.998 84.4334L111.885 84.7839ZM112.796 84.9253C113.048 84.9253 113.273 84.8704 113.457 84.7471L113.253 84.4408C113.144 84.5139 112.995 84.5571 112.796 84.5571V84.9253ZM113.464 84.7424C113.67 84.5915 113.76 84.3622 113.76 84.0933H113.392C113.392 84.2759 113.335 84.3804 113.247 84.4455L113.464 84.7424ZM117.944 78.6887H118.128V78.5046H117.944V78.6887ZM118.106 84.2994L118.272 84.22L118.272 84.22L118.106 84.2994ZM119.387 84.3436L119.521 84.4704L119.524 84.4671L119.387 84.3436ZM119.785 83.6073L119.963 83.6562L119.969 83.6322V83.6073H119.785ZM119.785 78.6887V78.5046H119.601V78.6887H119.785ZM121.538 78.6887H121.722V78.5046H121.538V78.6887ZM121.582 85.0063L121.398 85.0201L121.398 85.0204L121.582 85.0063ZM121.744 86.0519V86.236H121.979L121.922 86.0072L121.744 86.0519ZM120.418 86.0519L120.242 86.1062L120.282 86.236H120.418V86.0519ZM120.109 85.0505L120.285 84.9962L120.245 84.8664H120.109V85.0505ZM120.065 85.0505V84.8664H119.955L119.903 84.9627L120.065 85.0505ZM119.299 85.9046L119.194 85.7536L119.192 85.7551L119.299 85.9046ZM117.311 86.1108L117.376 85.9383L117.369 85.9362L117.311 86.1108ZM116.707 85.6837L116.564 85.7995L116.564 85.7995L116.707 85.6837ZM116.324 84.8443L116.145 84.8878L116.146 84.889L116.324 84.8443ZM116.192 78.6887V78.5046H116.008V78.6887H116.192ZM117.76 78.6887V83.0919H118.128V78.6887H117.76ZM117.76 83.0919C117.76 83.6716 117.813 84.1119 117.94 84.3789L118.272 84.22C118.184 84.0353 118.128 83.6706 118.128 83.0919H117.76ZM117.94 84.3789C118.008 84.5217 118.109 84.6361 118.243 84.713C118.375 84.7892 118.529 84.8222 118.695 84.8222V84.4541C118.577 84.4541 118.49 84.4307 118.426 84.3939C118.364 84.358 118.312 84.303 118.272 84.22L117.94 84.3789ZM118.695 84.8222C119.02 84.8222 119.299 84.704 119.521 84.4704L119.254 84.2168C119.103 84.376 118.921 84.4541 118.695 84.4541V84.8222ZM119.524 84.4671C119.731 84.2383 119.877 83.9669 119.963 83.6562L119.608 83.5583C119.536 83.8171 119.417 84.0366 119.251 84.2201L119.524 84.4671ZM119.969 83.6073V78.6887H119.601V83.6073H119.969ZM119.785 78.8727H121.538V78.5046H119.785V78.8727ZM121.353 78.6887V83.8135H121.722V78.6887H121.353ZM121.353 83.8135C121.353 84.2205 121.368 84.6227 121.398 85.0201L121.765 84.9925C121.736 84.6045 121.722 84.2115 121.722 83.8135H121.353ZM121.398 85.0204C121.428 85.4118 121.484 85.7707 121.565 86.0965L121.922 86.0072C121.847 85.7047 121.794 85.3666 121.765 84.9922L121.398 85.0204ZM121.744 85.8678H120.418V86.236H121.744V85.8678ZM120.594 85.9976L120.285 84.9962L119.933 85.1048L120.242 86.1062L120.594 85.9976ZM120.109 84.8664H120.065V85.2346H120.109V84.8664ZM119.903 84.9627C119.73 85.2808 119.495 85.544 119.194 85.7536L119.404 86.0556C119.752 85.8136 120.026 85.5074 120.227 85.1383L119.903 84.9627ZM119.192 85.7551C118.915 85.9539 118.562 86.0592 118.121 86.0592V86.4274C118.622 86.4274 119.055 86.3069 119.407 86.0541L119.192 85.7551ZM118.121 86.0592C117.834 86.0592 117.587 86.0176 117.376 85.9384L117.246 86.2831C117.507 86.3807 117.799 86.4274 118.121 86.4274V86.0592ZM117.369 85.9362C117.169 85.8695 116.997 85.7487 116.85 85.5679L116.564 85.7995C116.752 86.0311 116.982 86.195 117.253 86.2854L117.369 85.9362ZM116.85 85.5679C116.705 85.3888 116.587 85.1362 116.503 84.7997L116.146 84.889C116.238 85.2593 116.375 85.5663 116.564 85.7995L116.85 85.5679ZM116.503 84.8008C116.42 84.4568 116.376 84.0161 116.376 83.4748H116.008C116.008 84.033 116.052 84.5054 116.145 84.8878L116.503 84.8008ZM116.376 83.4748V78.6887H116.008V83.4748H116.376ZM116.192 78.8727H117.944V78.5046H116.192V78.8727ZM122.838 79.1305L122.743 78.9726L122.616 79.0488L122.663 79.1893L122.838 79.1305ZM123.942 78.7034L123.986 78.8822L123.986 78.8822L123.942 78.7034ZM127.182 79.1894L127.035 79.2998L127.036 79.3019L127.182 79.1894ZM127.639 82.3997L127.455 82.3877L127.455 82.3916L127.639 82.3997ZM127.594 83.7104L127.778 83.7147L127.778 83.7146L127.594 83.7104ZM127.609 84.9474L127.425 84.9564L127.425 84.9612L127.609 84.9474ZM127.815 86.0666V86.2507H128.064L127.991 86.0128L127.815 86.0666ZM126.387 86.0666L126.211 86.1213L126.251 86.2507H126.387V86.0666ZM126.107 85.1683L126.283 85.1136L126.242 84.9842H126.107V85.1683ZM126.048 85.1683V84.9842H125.939L125.887 85.0794L126.048 85.1683ZM125.385 85.8752L125.486 86.0291L125.486 86.0291L125.385 85.8752ZM122.941 85.5806L122.801 85.6999L122.802 85.7016L122.941 85.5806ZM123.383 82.1346L123.477 82.2929L123.477 82.2929L123.383 82.1346ZM125.93 81.6634L125.92 81.8472L126.098 81.857L126.114 81.6792L125.93 81.6634ZM125.812 80.4264L125.645 80.5036L125.648 80.5087L125.812 80.4264ZM124.119 80.1466L124.158 80.3264L124.158 80.3264L124.119 80.1466ZM123.279 80.4411L123.105 80.4999L123.174 80.7036L123.364 80.6044L123.279 80.4411ZM125.592 84.4614L125.703 84.6077L125.709 84.6035L125.592 84.4614ZM125.96 84.0196L126.124 84.102L126.144 84.0631V84.0196H125.96ZM125.96 82.7973H126.144V82.6357L125.984 82.6148L125.96 82.7973ZM125.312 82.7826L125.294 82.5994L125.294 82.5994L125.312 82.7826ZM124.384 83.2244L124.234 83.1174L124.233 83.1196L124.384 83.2244ZM124.428 84.4172L124.281 84.5278L124.285 84.5333L124.428 84.4172ZM122.932 79.2883C123.207 79.1236 123.557 78.9871 123.986 78.8822L123.898 78.5246C123.444 78.6356 123.058 78.7839 122.743 78.9726L122.932 79.2883ZM123.986 78.8822C124.411 78.7784 124.896 78.7255 125.444 78.7255V78.3573C124.873 78.3573 124.357 78.4124 123.898 78.5246L123.986 78.8822ZM125.444 78.7255C126.253 78.7255 126.761 78.9351 127.035 79.2998L127.329 79.0789C126.955 78.5797 126.304 78.3573 125.444 78.3573V78.7255ZM127.036 79.3019C127.336 79.6899 127.499 80.2577 127.499 81.0302H127.867C127.867 80.2122 127.695 79.5528 127.328 79.0768L127.036 79.3019ZM127.499 81.0302C127.499 81.4877 127.484 81.9402 127.455 82.3877L127.822 82.4117C127.852 81.956 127.867 81.4955 127.867 81.0302H127.499ZM127.455 82.3916C127.435 82.8346 127.42 83.2729 127.41 83.7062L127.778 83.7146C127.788 83.2839 127.803 82.8484 127.822 82.4079L127.455 82.3916ZM127.41 83.7061C127.4 84.1325 127.405 84.5492 127.425 84.9564L127.793 84.9384C127.774 84.5405 127.769 84.1326 127.778 83.7147L127.41 83.7061ZM127.425 84.9612C127.456 85.3666 127.527 85.7531 127.639 86.1204L127.991 86.0128C127.888 85.6732 127.821 85.3136 127.793 84.9336L127.425 84.9612ZM127.815 85.8825H126.387V86.2507H127.815V85.8825ZM126.563 86.0119L126.283 85.1136L125.931 85.223L126.211 86.1213L126.563 86.0119ZM126.107 84.9842H126.048V85.3524H126.107V84.9842ZM125.887 85.0794C125.745 85.3366 125.545 85.5503 125.284 85.7212L125.486 86.0291C125.795 85.827 126.037 85.5694 126.209 85.2572L125.887 85.0794ZM125.284 85.7212C125.037 85.8834 124.716 85.9709 124.31 85.9709V86.339C124.769 86.339 125.164 86.24 125.486 86.0291L125.284 85.7212ZM124.31 85.9709C123.776 85.9709 123.373 85.7966 123.08 85.4597L122.802 85.7016C123.176 86.1304 123.686 86.339 124.31 86.339V85.9709ZM123.081 85.4614C122.782 85.1099 122.624 84.6355 122.624 84.0196H122.256C122.256 84.6997 122.432 85.266 122.801 85.6999L123.081 85.4614ZM122.624 84.0196C122.624 83.1851 122.917 82.6254 123.477 82.2929L123.289 81.9764C122.592 82.39 122.256 83.087 122.256 84.0196H122.624ZM123.477 82.2929C124.062 81.9453 124.87 81.7894 125.92 81.8472L125.94 81.4796C124.85 81.4196 123.96 81.5778 123.289 81.9764L123.477 82.2929ZM126.114 81.6792C126.163 81.1038 126.129 80.6475 125.977 80.3441L125.648 80.5087C125.751 80.7158 125.795 81.0842 125.747 81.6476L126.114 81.6792ZM125.98 80.3492C125.819 80.0016 125.47 79.8594 125.032 79.8594V80.2276C125.398 80.2276 125.57 80.3407 125.645 80.5035L125.98 80.3492ZM125.032 79.8594C124.723 79.8594 124.405 79.8955 124.08 79.9668L124.158 80.3264C124.461 80.2603 124.752 80.2276 125.032 80.2276V79.8594ZM124.08 79.9668C123.752 80.0384 123.457 80.1416 123.195 80.2778L123.364 80.6044C123.593 80.4854 123.857 80.3922 124.158 80.3264L124.08 79.9668ZM123.454 80.3823L123.012 79.0717L122.663 79.1893L123.105 80.4999L123.454 80.3823ZM124.944 84.8369C125.238 84.8369 125.497 84.7656 125.703 84.6077L125.48 84.3152C125.353 84.4125 125.179 84.4688 124.944 84.4688V84.8369ZM125.709 84.6035C125.891 84.4534 126.032 84.2868 126.124 84.102L125.795 83.9373C125.73 84.0667 125.626 84.1946 125.475 84.3193L125.709 84.6035ZM126.144 84.0196V82.7973H125.776V84.0196H126.144ZM125.984 82.6148C125.745 82.5837 125.515 82.5783 125.294 82.5994L125.329 82.9659C125.52 82.9477 125.722 82.952 125.936 82.9799L125.984 82.6148ZM125.294 82.5994C125.073 82.6205 124.871 82.6685 124.693 82.7465L124.841 83.0838C124.977 83.0243 125.139 82.984 125.329 82.9659L125.294 82.5994ZM124.693 82.7465C124.506 82.8283 124.352 82.9525 124.234 83.1174L124.534 83.3314C124.612 83.2214 124.714 83.1394 124.841 83.0838L124.693 82.7465ZM124.233 83.1196C124.117 83.2867 124.067 83.4936 124.067 83.7251H124.436C124.436 83.5443 124.474 83.4174 124.535 83.3292L124.233 83.1196ZM124.067 83.7251C124.067 84.0487 124.129 84.3255 124.281 84.5277L124.575 84.3068C124.491 84.1948 124.436 84.0102 124.436 83.7251H124.067ZM124.285 84.5333C124.45 84.7366 124.676 84.8369 124.944 84.8369V84.4688C124.779 84.4688 124.661 84.412 124.571 84.3012L124.285 84.5333ZM131.395 84.594L131.359 84.4134L131.355 84.4143L131.395 84.594ZM131.719 84.4909L131.902 84.4699L131.874 84.2269L131.648 84.321L131.719 84.4909ZM131.881 85.9046L131.983 86.0578L132.077 85.9954L132.064 85.8837L131.881 85.9046ZM131.277 86.1255L131.32 86.3045L131.32 86.3045L131.277 86.1255ZM129.304 85.8604L129.174 85.9906L129.174 85.9906L129.304 85.8604ZM128.936 75.7434V75.5593H128.752V75.7434H128.936ZM130.688 75.7434H130.872V75.5593H130.688V75.7434ZM130.504 83.6662C130.504 84.0133 130.537 84.2939 130.624 84.4804L130.958 84.3247C130.908 84.2166 130.872 84.0064 130.872 83.6662H130.504ZM130.624 84.4804C130.67 84.5787 130.736 84.6633 130.827 84.7224C130.918 84.7818 131.022 84.8075 131.13 84.8075V84.4393C131.081 84.4393 131.05 84.4283 131.028 84.414C131.006 84.3995 130.981 84.3736 130.958 84.3247L130.624 84.4804ZM131.13 84.8075C131.232 84.8075 131.334 84.7961 131.435 84.7737L131.355 84.4143C131.28 84.4311 131.205 84.4393 131.13 84.4393V84.8075ZM131.431 84.7745C131.544 84.7519 131.664 84.7133 131.79 84.6608L131.648 84.321C131.539 84.3666 131.442 84.3967 131.359 84.4135L131.431 84.7745ZM131.536 84.5118L131.698 85.9256L132.064 85.8837L131.902 84.4699L131.536 84.5118ZM131.779 85.7515C131.69 85.811 131.515 85.8787 131.234 85.9466L131.32 86.3045C131.609 86.2349 131.837 86.1553 131.983 86.0578L131.779 85.7515ZM131.234 85.9466C130.964 86.0119 130.688 86.0445 130.408 86.0445V86.4127C130.717 86.4127 131.021 86.3766 131.32 86.3045L131.234 85.9466ZM130.408 86.0445C129.946 86.0445 129.633 85.929 129.434 85.7303L129.174 85.9906C129.466 86.2827 129.889 86.4127 130.408 86.4127V86.0445ZM129.434 85.7303C129.241 85.5368 129.12 85.1808 129.12 84.6087H128.752C128.752 85.2146 128.876 85.6932 129.174 85.9906L129.434 85.7303ZM129.12 84.6087V75.7434H128.752V84.6087H129.12ZM128.936 75.9275H130.688V75.5593H128.936V75.9275ZM130.504 75.7434V83.6662H130.872V75.7434H130.504ZM138.865 82.6059L138.723 82.7232L138.726 82.7262L138.865 82.6059ZM138.158 81.9727L138.051 82.1225L138.054 82.1242L138.158 81.9727ZM137.245 81.3689L137.146 81.5242L137.148 81.5255L137.245 81.3689ZM136.332 80.6473L136.202 80.7775L136.204 80.7797L136.332 80.6473ZM135.64 79.6753L135.804 79.593L135.804 79.593L135.64 79.6753ZM135.581 77.0393L135.413 76.9645L135.412 76.9668L135.581 77.0393ZM136.214 76.1852L136.33 76.3279L136.333 76.3253L136.214 76.1852ZM137.157 75.6992L137.205 75.877L137.209 75.8756L137.157 75.6992ZM139.719 75.6845L139.76 75.505L139.76 75.505L139.719 75.6845ZM140.794 76.0821L140.968 76.1431L141.018 76L140.887 75.9233L140.794 76.0821ZM140.22 77.7167L140.114 77.8671L140.313 78.0076L140.393 77.7777L140.22 77.7167ZM139.469 77.3927L139.415 77.5689L139.417 77.5693L139.469 77.3927ZM137.525 77.4811L137.636 77.6275L137.636 77.6275L137.525 77.4811ZM137.495 78.9096L137.356 79.0299L137.359 79.0331L137.495 78.9096ZM138.187 79.5133L138.08 79.6632L138.083 79.6649L138.187 79.5133ZM139.101 80.1319L138.998 80.2851L139.004 80.2885L139.101 80.1319ZM140.014 80.8682L139.881 80.9961L139.886 81.0006L140.014 80.8682ZM140.72 81.8548L140.555 81.9355L140.556 81.9372L140.72 81.8548ZM140.765 84.5498L140.594 84.4799L140.593 84.4837L140.765 84.5498ZM140.117 85.507L140.239 85.6443L140.24 85.6441L140.117 85.507ZM139.115 86.0666L139.172 86.2417L139.172 86.2417L139.115 86.0666ZM136.199 86.0813L136.153 86.2595L136.154 86.2597L136.199 86.0813ZM135.154 85.6837L134.981 85.6209L134.929 85.7635L135.059 85.8416L135.154 85.6837ZM135.758 84.0196L135.852 83.8618L135.661 83.7469L135.585 83.9568L135.758 84.0196ZM136.568 84.3731L136.627 84.1989L136.627 84.1989L136.568 84.3731ZM139.329 83.4011C139.329 83.0476 139.223 82.7385 139.004 82.4856L138.726 82.7262C138.88 82.9053 138.961 83.1263 138.961 83.4011H139.329ZM139.007 82.4887C138.808 82.2476 138.559 82.0254 138.263 81.8211L138.054 82.1242C138.327 82.3126 138.549 82.5125 138.723 82.7231L139.007 82.4887ZM138.265 81.8229C137.986 81.6238 137.678 81.4203 137.342 81.2123L137.148 81.5255C137.479 81.7298 137.78 81.9288 138.051 82.1225L138.265 81.8229ZM137.344 81.2136C137.031 81.0142 136.736 80.7814 136.46 80.5149L136.204 80.7797C136.497 81.0629 136.811 81.3112 137.146 81.5242L137.344 81.2136ZM136.462 80.5171C136.202 80.2572 135.983 79.9497 135.804 79.593L135.475 79.7577C135.67 80.1471 135.912 80.4876 136.202 80.7774L136.462 80.5171ZM135.804 79.593C135.634 79.2519 135.544 78.8253 135.544 78.3058H135.176C135.176 78.8662 135.273 79.3526 135.475 79.7577L135.804 79.593ZM135.544 78.3058C135.544 77.822 135.615 77.4262 135.75 77.1118L135.412 76.9668C135.252 77.3397 135.176 77.7881 135.176 78.3058H135.544ZM135.749 77.1141C135.896 76.7835 136.091 76.5233 136.33 76.3279L136.098 76.0425C135.808 76.279 135.58 76.5882 135.413 76.9645L135.749 77.1141ZM136.333 76.3253C136.576 76.1185 136.866 75.9686 137.205 75.8769L137.109 75.5215C136.721 75.6262 136.382 75.8002 136.095 76.045L136.333 76.3253ZM137.209 75.8756C137.554 75.7731 137.924 75.7213 138.32 75.7213V75.3531C137.891 75.3531 137.486 75.4093 137.104 75.5228L137.209 75.8756ZM138.32 75.7213C138.809 75.7213 139.261 75.7692 139.678 75.864L139.76 75.505C139.313 75.4034 138.833 75.3531 138.32 75.3531V75.7213ZM139.678 75.864C140.098 75.9593 140.437 76.0862 140.701 76.2409L140.887 75.9233C140.582 75.7442 140.204 75.606 139.76 75.505L139.678 75.864ZM140.62 76.0211L140.046 77.6557L140.393 77.7777L140.968 76.1431L140.62 76.0211ZM140.326 77.5663C140.135 77.4315 139.862 77.3166 139.521 77.2161L139.417 77.5693C139.743 77.6652 139.971 77.7663 140.114 77.8671L140.326 77.5663ZM139.522 77.2166C139.179 77.1125 138.807 77.0614 138.408 77.0614V77.4296C138.775 77.4296 139.111 77.4766 139.415 77.5689L139.522 77.2166ZM138.408 77.0614C138.004 77.0614 137.664 77.144 137.413 77.3347L137.636 77.6275C137.798 77.5041 138.047 77.4296 138.408 77.4296V77.0614ZM137.413 77.3347C137.153 77.5329 137.031 77.8227 137.031 78.1732H137.4C137.4 77.915 137.484 77.7435 137.636 77.6275L137.413 77.3347ZM137.031 78.1732C137.031 78.4941 137.142 78.7818 137.356 79.0299L137.635 78.7892C137.476 78.6053 137.4 78.4021 137.4 78.1732H137.031ZM137.359 79.0331C137.556 79.2509 137.797 79.4607 138.08 79.6631L138.294 79.3636C138.028 79.1733 137.808 78.9806 137.632 78.7861L137.359 79.0331ZM138.083 79.6649C138.369 79.8618 138.674 80.0686 138.998 80.285L139.203 79.9787C138.879 79.7632 138.576 79.5575 138.292 79.3618L138.083 79.6649ZM139.004 80.2885C139.324 80.4865 139.617 80.7223 139.881 80.996L140.146 80.7403C139.861 80.4447 139.544 80.1895 139.197 79.9752L139.004 80.2885ZM139.886 81.0006C140.154 81.2595 140.377 81.5704 140.555 81.9355L140.886 81.7742C140.691 81.3735 140.443 81.0267 140.141 80.7357L139.886 81.0006ZM140.556 81.9372C140.727 82.2791 140.816 82.6963 140.816 83.195H141.184C141.184 82.653 141.087 82.1767 140.885 81.7725L140.556 81.9372ZM140.816 83.195C140.816 83.6973 140.74 84.1241 140.594 84.4799L140.935 84.6197C141.103 84.2097 141.184 83.7333 141.184 83.195H140.816ZM140.593 84.4837C140.455 84.8414 140.255 85.1355 139.994 85.3699L140.24 85.6441C140.547 85.3679 140.779 85.0239 140.936 84.6159L140.593 84.4837ZM139.994 85.3697C139.74 85.5962 139.43 85.7708 139.058 85.8915L139.172 86.2417C139.586 86.1071 139.943 85.9087 140.239 85.6443L139.994 85.3697ZM139.058 85.8915C138.687 86.0123 138.269 86.074 137.805 86.074V86.4421C138.302 86.4421 138.758 86.3762 139.172 86.2417L139.058 85.8915ZM137.805 86.074C137.207 86.074 136.688 86.0161 136.245 85.903L136.154 86.2597C136.634 86.3822 137.185 86.4421 137.805 86.4421V86.074ZM136.246 85.9032C135.802 85.7874 135.472 85.6603 135.249 85.5259L135.059 85.8416C135.326 86.0017 135.694 86.1396 136.153 86.2595L136.246 85.9032ZM135.327 85.7465L135.931 84.0824L135.585 83.9568L134.981 85.6209L135.327 85.7465ZM135.663 84.1775C135.875 84.3046 136.158 84.4273 136.508 84.5472L136.627 84.1989C136.29 84.0832 136.033 83.9703 135.852 83.8618L135.663 84.1775ZM136.508 84.5472C136.872 84.6721 137.261 84.7339 137.672 84.7339V84.3657C137.298 84.3657 136.95 84.3096 136.627 84.1989L136.508 84.5472ZM137.672 84.7339C138.182 84.7339 138.598 84.6353 138.89 84.4078C139.19 84.1734 139.329 83.8263 139.329 83.4011H138.961C138.961 83.7417 138.854 83.9689 138.663 84.1175C138.464 84.2728 138.144 84.3657 137.672 84.3657V84.7339ZM141.404 78.6887V78.5046H141.22V78.6887H141.404ZM142.214 78.6887V78.8727H142.399V78.6887H142.214ZM142.214 77.3044L142.16 77.1286L142.03 77.1688V77.3044H142.214ZM143.967 76.7595H144.151V76.5095L143.912 76.5837L143.967 76.7595ZM143.967 78.6887H143.783V78.8727H143.967V78.6887ZM145.395 78.6887H145.579V78.5046H145.395V78.6887ZM145.395 80.2497V80.4337H145.579V80.2497H145.395ZM143.967 80.2497V80.0656H143.783V80.2497H143.967ZM144.085 84.3583L143.916 84.4332L143.92 84.4407L144.085 84.3583ZM144.939 84.5792L144.983 84.7578L144.983 84.7578L144.939 84.5792ZM145.322 84.4467L145.504 84.418L145.467 84.1843L145.249 84.2775L145.322 84.4467ZM145.543 85.8457L145.625 86.0104L145.745 85.9501L145.724 85.817L145.543 85.8457ZM144.792 86.1108L144.748 85.9318L144.743 85.9333L144.792 86.1108ZM142.627 85.7426L142.486 85.8617L142.489 85.8641L142.627 85.7426ZM142.214 80.2497H142.399V80.0656H142.214V80.2497ZM141.404 80.2497H141.22V80.4337H141.404V80.2497ZM141.404 78.8727H142.214V78.5046H141.404V78.8727ZM142.399 78.6887V77.3044H142.03V78.6887H142.399ZM142.269 77.4802L144.022 76.9353L143.912 76.5837L142.16 77.1286L142.269 77.4802ZM143.783 76.7595V78.6887H144.151V76.7595H143.783ZM143.967 78.8727H145.395V78.5046H143.967V78.8727ZM145.211 78.6887V80.2497H145.579V78.6887H145.211ZM145.395 80.0656H143.967V80.4337H145.395V80.0656ZM143.783 80.2497V83.46H144.151V80.2497H143.783ZM143.783 83.46C143.783 83.8846 143.821 84.2182 143.916 84.4331L144.253 84.2836C144.191 84.1451 144.151 83.8798 144.151 83.46H143.783ZM143.92 84.4407C143.978 84.5571 144.062 84.652 144.173 84.7163C144.283 84.7801 144.408 84.8075 144.541 84.8075V84.4393C144.458 84.4393 144.4 84.4225 144.358 84.398C144.316 84.374 144.28 84.3363 144.249 84.276L143.92 84.4407ZM144.541 84.8075C144.7 84.8075 144.848 84.7916 144.983 84.7578L144.894 84.4007C144.794 84.4258 144.677 84.4393 144.541 84.4393V84.8075ZM144.983 84.7578C145.113 84.7255 145.25 84.6778 145.394 84.6159L145.249 84.2775C145.119 84.3334 145.001 84.3741 144.894 84.4007L144.983 84.7578ZM145.14 84.4754L145.361 85.8744L145.724 85.817L145.504 84.418L145.14 84.4754ZM145.46 85.6811C145.259 85.7817 145.022 85.8657 144.748 85.9318L144.835 86.2897C145.13 86.2184 145.394 86.1257 145.625 86.0104L145.46 85.6811ZM144.743 85.9333C144.475 86.0072 144.192 86.0445 143.893 86.0445V86.4127C144.223 86.4127 144.539 86.3714 144.841 86.2882L144.743 85.9333ZM143.893 86.0445C143.37 86.0445 143.005 85.8943 142.765 85.6211L142.489 85.8641C142.818 86.239 143.297 86.4127 143.893 86.4127V86.0445ZM142.767 85.6235C142.536 85.3507 142.399 84.8614 142.399 84.108H142.03C142.03 84.8862 142.168 85.4866 142.486 85.8617L142.767 85.6235ZM142.399 84.108V80.2497H142.03V84.108H142.399ZM142.214 80.0656H141.404V80.4337H142.214V80.0656ZM141.589 80.2497V78.6887H141.22V80.2497H141.589ZM147.958 78.6887H148.142V78.5046H147.958V78.6887ZM148.12 84.2994L148.286 84.22L148.286 84.22L148.12 84.2994ZM149.401 84.3436L149.535 84.4704L149.538 84.4671L149.401 84.3436ZM149.799 83.6073L149.976 83.6562L149.983 83.6322V83.6073H149.799ZM149.799 78.6887V78.5046H149.615V78.6887H149.799ZM151.551 78.6887H151.735V78.5046H151.551V78.6887ZM151.595 85.0063L151.412 85.0201L151.412 85.0204L151.595 85.0063ZM151.757 86.0519V86.236H151.993L151.936 86.0072L151.757 86.0519ZM150.432 86.0519L150.256 86.1062L150.296 86.236H150.432V86.0519ZM150.123 85.0505L150.299 84.9962L150.259 84.8664H150.123V85.0505ZM150.079 85.0505V84.8664H149.969L149.917 84.9627L150.079 85.0505ZM149.313 85.9046L149.208 85.7536L149.205 85.7551L149.313 85.9046ZM147.325 86.1108L147.389 85.9383L147.383 85.9362L147.325 86.1108ZM146.721 85.6837L146.578 85.7995L146.578 85.7995L146.721 85.6837ZM146.338 84.8443L146.159 84.8878L146.159 84.889L146.338 84.8443ZM146.206 78.6887V78.5046H146.021V78.6887H146.206ZM147.774 78.6887V83.0919H148.142V78.6887H147.774ZM147.774 83.0919C147.774 83.6716 147.826 84.1119 147.954 84.3789L148.286 84.22C148.198 84.0353 148.142 83.6706 148.142 83.0919H147.774ZM147.954 84.3789C148.022 84.5217 148.123 84.6361 148.256 84.713C148.389 84.7892 148.543 84.8222 148.709 84.8222V84.4541C148.591 84.4541 148.504 84.4307 148.44 84.3939C148.378 84.358 148.326 84.303 148.286 84.22L147.954 84.3789ZM148.709 84.8222C149.034 84.8222 149.313 84.704 149.535 84.4704L149.268 84.2168C149.117 84.376 148.934 84.4541 148.709 84.4541V84.8222ZM149.538 84.4671C149.745 84.2383 149.891 83.9669 149.976 83.6562L149.621 83.5583C149.55 83.8171 149.431 84.0366 149.265 84.2201L149.538 84.4671ZM149.983 83.6073V78.6887H149.615V83.6073H149.983ZM149.799 78.8727H151.551V78.5046H149.799V78.8727ZM151.367 78.6887V83.8135H151.735V78.6887H151.367ZM151.367 83.8135C151.367 84.2205 151.382 84.6227 151.412 85.0201L151.779 84.9925C151.75 84.6045 151.735 84.2115 151.735 83.8135H151.367ZM151.412 85.0204C151.442 85.4118 151.497 85.7707 151.579 86.0965L151.936 86.0072C151.86 85.7047 151.808 85.3666 151.779 84.9922L151.412 85.0204ZM151.757 85.8678H150.432V86.236H151.757V85.8678ZM150.608 85.9976L150.299 84.9962L149.947 85.1048L150.256 86.1062L150.608 85.9976ZM150.123 84.8664H150.079V85.2346H150.123V84.8664ZM149.917 84.9627C149.744 85.2808 149.508 85.544 149.208 85.7536L149.418 86.0556C149.765 85.8136 150.04 85.5074 150.24 85.1383L149.917 84.9627ZM149.205 85.7551C148.929 85.9539 148.576 86.0592 148.135 86.0592V86.4274C148.636 86.4274 149.068 86.3069 149.42 86.0541L149.205 85.7551ZM148.135 86.0592C147.848 86.0592 147.601 86.0176 147.389 85.9384L147.26 86.2831C147.52 86.3807 147.813 86.4274 148.135 86.4274V86.0592ZM147.383 85.9362C147.183 85.8695 147.01 85.7487 146.864 85.5679L146.578 85.7995C146.765 86.0311 146.995 86.195 147.267 86.2854L147.383 85.9362ZM146.864 85.5679C146.719 85.3888 146.601 85.1362 146.517 84.7997L146.159 84.889C146.252 85.2593 146.389 85.5663 146.578 85.7995L146.864 85.5679ZM146.517 84.8008C146.433 84.4568 146.39 84.0161 146.39 83.4748H146.021C146.021 84.033 146.066 84.5054 146.159 84.8878L146.517 84.8008ZM146.39 83.4748V78.6887H146.021V83.4748H146.39ZM146.206 78.8727H147.958V78.5046H146.206V78.8727ZM158.138 84.697L158.322 84.6927L158.322 84.6927L158.138 84.697ZM158.256 86.0666V86.2507H158.467L158.438 86.0416L158.256 86.0666ZM157.019 86.0666L156.842 86.1156L156.879 86.2507H157.019V86.0666ZM156.783 85.2125L156.961 85.1635L156.924 85.0284H156.783V85.2125ZM156.724 85.2125V85.0284H156.609L156.559 85.132L156.724 85.2125ZM153.205 85.3597L153.055 85.467L153.056 85.4686L153.205 85.3597ZM153.264 79.5428L153.415 79.6475L153.416 79.6464L153.264 79.5428ZM155.915 78.5709L155.881 78.7518L155.881 78.7518L155.915 78.5709ZM156.371 78.7181L156.293 78.8849L156.555 79.0072V78.7181H156.371ZM156.371 75.7434V75.5593H156.187V75.7434H156.371ZM158.123 75.7434H158.308V75.5593H158.123V75.7434ZM156.018 84.4467L156.134 84.5897L156.139 84.5852L156.018 84.4467ZM156.371 83.8576L156.547 83.9118L156.555 83.8853V83.8576H156.371ZM156.371 80.3822H156.555V80.3002L156.494 80.2454L156.371 80.3822ZM156.032 80.1908L155.974 80.3654L155.978 80.3667L156.032 80.1908ZM154.678 80.662L154.517 80.5726L154.517 80.5726L154.678 80.662ZM154.619 84.108L154.45 84.1811L154.452 84.1866L154.619 84.108ZM157.939 83.46C157.939 83.8738 157.944 84.2876 157.954 84.7014L158.322 84.6927C158.312 84.2818 158.308 83.8709 158.308 83.46H157.939ZM157.954 84.7014C157.964 85.122 158.004 85.5856 158.074 86.0916L158.438 86.0416C158.37 85.5463 158.332 85.0968 158.322 84.6927L157.954 84.7014ZM158.256 85.8825H157.019V86.2507H158.256V85.8825ZM157.196 86.0177L156.961 85.1635L156.606 85.2614L156.842 86.1156L157.196 86.0177ZM156.783 85.0284H156.724V85.3966H156.783V85.0284ZM156.559 85.132C156.406 85.4473 156.2 85.6758 155.943 85.8269C155.685 85.9787 155.364 86.0592 154.972 86.0592V86.4274C155.415 86.4274 155.803 86.3362 156.129 86.1443C156.457 85.9518 156.709 85.6648 156.89 85.2929L156.559 85.132ZM154.972 86.0592C154.283 86.0592 153.75 85.7915 153.353 85.2509L153.056 85.4686C153.524 86.1061 154.169 86.4274 154.972 86.4274V86.0592ZM153.354 85.2525C152.967 84.7115 152.756 83.8027 152.756 82.4881H152.388C152.388 83.8242 152.599 84.8299 153.055 85.467L153.354 85.2525ZM152.756 82.4881C152.756 81.2091 152.984 80.2709 153.415 79.6475L153.112 79.4381C152.62 80.1499 152.388 81.1753 152.388 82.4881H152.756ZM153.416 79.6464C153.839 79.0257 154.465 78.7108 155.325 78.7108V78.3426C154.36 78.3426 153.612 78.7051 153.112 79.4392L153.416 79.6464ZM155.325 78.7108C155.555 78.7108 155.739 78.7252 155.881 78.7518L155.948 78.3899C155.776 78.3576 155.568 78.3426 155.325 78.3426V78.7108ZM155.881 78.7518C156.022 78.7783 156.16 78.8226 156.293 78.8849L156.449 78.5513C156.288 78.4762 156.121 78.4223 155.948 78.3899L155.881 78.7518ZM156.555 78.7181V75.7434H156.187V78.7181H156.555ZM156.371 75.9275H158.123V75.5593H156.371V75.9275ZM157.939 75.7434V83.46H158.308V75.7434H157.939ZM155.384 84.8222C155.679 84.8222 155.935 84.7511 156.134 84.5896L155.902 84.3038C155.786 84.3975 155.62 84.4541 155.384 84.4541V84.8222ZM156.139 84.5852C156.328 84.4198 156.461 84.1907 156.547 83.9118L156.195 83.8035C156.124 84.0351 156.021 84.1987 155.896 84.3082L156.139 84.5852ZM156.555 83.8576V80.3822H156.187V83.8576H156.555ZM156.494 80.2454C156.376 80.1389 156.239 80.0619 156.086 80.0148L155.978 80.3667C156.081 80.3982 156.17 80.4488 156.248 80.519L156.494 80.2454ZM156.091 80.0161C155.946 79.9681 155.767 79.9478 155.561 79.9478V80.3159C155.748 80.3159 155.883 80.3349 155.974 80.3654L156.091 80.0161ZM155.561 79.9478C155.336 79.9478 155.131 79.9987 154.951 80.1065C154.771 80.2142 154.628 80.3727 154.517 80.5726L154.838 80.7514C154.924 80.5979 155.025 80.4913 155.14 80.4222C155.255 80.3534 155.393 80.3159 155.561 80.3159V79.9478ZM154.517 80.5726C154.295 80.971 154.199 81.6422 154.199 82.547H154.567C154.567 81.6454 154.667 81.0598 154.838 80.7514L154.517 80.5726ZM154.199 82.547C154.199 83.2342 154.278 83.7839 154.45 84.1811L154.788 84.0349C154.645 83.7056 154.567 83.2146 154.567 82.547H154.199ZM154.452 84.1866C154.546 84.3851 154.67 84.546 154.83 84.657C154.992 84.7689 155.179 84.8222 155.384 84.8222V84.4541C155.246 84.4541 155.134 84.419 155.04 84.3543C154.945 84.2885 154.858 84.1843 154.785 84.0294L154.452 84.1866ZM159.542 78.6887V78.5046H159.358V78.6887H159.542ZM161.294 78.6887H161.478V78.5046H161.294V78.6887ZM161.294 86.0519V86.236H161.478V86.0519H161.294ZM159.542 86.0519H159.358V86.236H159.542V86.0519ZM159.615 75.8906L159.746 76.0208L159.749 76.0174L159.615 75.8906ZM161.235 75.8759L161.359 75.7394L161.359 75.7394L161.235 75.8759ZM161.235 77.3338L161.355 77.4736L161.355 77.4736L161.235 77.3338ZM159.615 77.3338L159.485 77.464L159.489 77.4675L159.615 77.3338ZM159.542 78.8727H161.294V78.5046H159.542V78.8727ZM161.11 78.6887V86.0519H161.478V78.6887H161.11ZM161.294 85.8678H159.542V86.236H161.294V85.8678ZM159.726 86.0519V78.6887H159.358V86.0519H159.726ZM159.52 76.6122C159.52 76.3603 159.598 76.1687 159.746 76.0208L159.485 75.7605C159.26 75.9857 159.152 76.2751 159.152 76.6122H159.52ZM159.749 76.0174C159.892 75.8669 160.103 75.7802 160.411 75.7802V75.412C160.031 75.412 159.712 75.5217 159.482 75.7639L159.749 76.0174ZM160.411 75.7802C160.72 75.7802 160.947 75.8633 161.112 76.0124L161.359 75.7394C161.111 75.5155 160.789 75.412 160.411 75.412V75.7802ZM161.112 76.0124C161.276 76.1605 161.361 76.3544 161.361 76.6122H161.729C161.729 76.2614 161.608 75.9644 161.359 75.7394L161.112 76.0124ZM161.361 76.6122C161.361 76.8701 161.276 77.0568 161.116 77.1941L161.355 77.4736C161.607 77.2574 161.729 76.963 161.729 76.6122H161.361ZM161.116 77.1941C160.951 77.3352 160.722 77.4148 160.411 77.4148V77.783C160.786 77.783 161.108 77.6859 161.355 77.4736L161.116 77.1941ZM160.411 77.4148C160.098 77.4148 159.884 77.3348 159.742 77.2002L159.489 77.4675C159.72 77.6863 160.036 77.783 160.411 77.783V77.4148ZM159.746 77.2037C159.598 77.0558 159.52 76.8642 159.52 76.6122H159.152C159.152 76.9494 159.26 77.2388 159.485 77.464L159.746 77.2037ZM163.203 79.4544L163.347 79.5694L163.347 79.5694L163.203 79.4544ZM167.533 79.4692L167.68 79.3594L167.68 79.3594L167.533 79.4692ZM167.488 85.3008L167.631 85.4169L167.632 85.4158L167.488 85.3008ZM164.499 84.0785L164.329 84.149L164.329 84.149L164.499 84.0785ZM166.163 84.1669L166 84.081L165.999 84.0827L166.163 84.1669ZM166.192 80.6473L166.023 80.7193L166.023 80.7193L166.192 80.6473ZM164.528 80.5884L164.367 80.499L164.367 80.5006L164.528 80.5884ZM162.621 82.3703C162.621 81.083 162.874 80.1605 163.347 79.5694L163.059 79.3394C162.511 80.0247 162.253 81.0461 162.253 82.3703H162.621ZM163.347 79.5694C163.818 78.9805 164.474 78.6813 165.338 78.6813V78.3131C164.377 78.3131 163.609 78.6521 163.059 79.3394L163.347 79.5694ZM165.338 78.6813C166.276 78.6813 166.946 78.988 167.385 79.5789L167.68 79.3594C167.157 78.6544 166.364 78.3131 165.338 78.3131V78.6813ZM167.385 79.5789C167.832 80.1813 168.07 81.1019 168.07 82.3703H168.438C168.438 81.0664 168.195 80.053 167.68 79.3594L167.385 79.5789ZM168.07 82.3703C168.07 83.6678 167.817 84.595 167.345 85.1858L167.632 85.4158C168.18 84.7304 168.438 83.7039 168.438 82.3703H168.07ZM167.345 85.1848C166.875 85.7637 166.214 86.0592 165.338 86.0592V86.4274C166.308 86.4274 167.081 86.0946 167.631 85.4169L167.345 85.1848ZM165.338 86.0592C164.416 86.0592 163.751 85.7543 163.31 85.1647C162.861 84.5651 162.621 83.6436 162.621 82.3703H162.253C162.253 83.679 162.497 84.694 163.015 85.3854C163.541 86.0868 164.326 86.4274 165.338 86.4274V86.0592ZM164.064 82.3703C164.064 83.1164 164.148 83.7139 164.329 84.149L164.669 84.008C164.516 83.6381 164.433 83.0968 164.433 82.3703H164.064ZM164.329 84.149C164.422 84.3736 164.552 84.5555 164.726 84.6808C164.902 84.807 165.109 84.8664 165.338 84.8664V84.4982C165.175 84.4982 165.046 84.457 164.941 84.3819C164.836 84.3059 164.743 84.186 164.669 84.008L164.329 84.149ZM165.338 84.8664C165.554 84.8664 165.751 84.8164 165.922 84.7096C166.092 84.603 166.226 84.4467 166.327 84.2511L165.999 84.0827C165.923 84.2307 165.831 84.3321 165.727 84.3974C165.623 84.4624 165.496 84.4982 165.338 84.4982V84.8664ZM166.326 84.2528C166.535 83.8567 166.627 83.2183 166.627 82.3703H166.259C166.259 83.2109 166.164 83.7702 166 84.081L166.326 84.2528ZM166.627 82.3703C166.627 81.6057 166.543 81.002 166.362 80.5753L166.023 80.7193C166.175 81.078 166.259 81.6229 166.259 82.3703H166.627ZM166.362 80.5753C166.268 80.3543 166.135 80.1761 165.958 80.0539C165.78 79.9313 165.571 79.8741 165.338 79.8741V80.2423C165.509 80.2423 165.642 80.2834 165.749 80.357C165.857 80.4312 165.95 80.5475 166.023 80.7193L166.362 80.5753ZM165.338 79.8741C164.915 79.8741 164.589 80.0995 164.367 80.499L164.689 80.6778C164.86 80.3704 165.075 80.2423 165.338 80.2423V79.8741ZM164.367 80.5006C164.156 80.888 164.064 81.5231 164.064 82.3703H164.433C164.433 81.5288 164.527 80.976 164.69 80.6762L164.367 80.5006ZM177.983 85.6395L178.102 85.7801L178.189 85.7072L178.163 85.5973L177.983 85.6395ZM176.953 86.1108L176.912 85.9313L176.911 85.9315L176.953 86.1108ZM174.199 85.993L174.128 86.1632L174.133 86.1649L174.199 85.993ZM173.006 85.0799L172.863 85.1961L172.863 85.1961L173.006 85.0799ZM172.196 83.4158L172.019 83.4664L172.019 83.4664L172.196 83.4158ZM172.225 78.2911L172.051 78.2336L172.05 78.2359L172.225 78.2911ZM173.094 76.6564L172.956 76.5347L172.956 76.535L173.094 76.6564ZM176.982 75.655L176.942 75.8347L176.943 75.8349L176.982 75.655ZM177.866 75.9201L178.045 75.9605L178.079 75.812L177.939 75.7513L177.866 75.9201ZM177.497 77.5547L177.412 77.7176L177.624 77.8295L177.677 77.5952L177.497 77.5547ZM176.835 77.3338L176.792 77.513L176.8 77.5146L176.835 77.3338ZM174.39 78.1291L174.234 78.0324L174.234 78.0324L174.39 78.1291ZM173.963 82.385L173.782 82.4165L173.783 82.4211L173.963 82.385ZM174.361 83.5337L174.199 83.6218L174.201 83.6255L174.361 83.5337ZM175.053 84.2847L174.953 84.4396L174.956 84.4411L175.053 84.2847ZM176.953 84.4172L177.015 84.5906L177.021 84.5882L176.953 84.4172ZM177.615 84.0785L177.794 84.0363L177.734 83.7816L177.515 83.9242L177.615 84.0785ZM177.865 85.499C177.638 85.6908 177.324 85.8376 176.912 85.9313L176.993 86.2903C177.445 86.1876 177.818 86.0203 178.102 85.7801L177.865 85.499ZM176.911 85.9315C176.502 86.0266 176.094 86.074 175.686 86.074V86.4421C176.123 86.4421 176.559 86.3914 176.994 86.2901L176.911 85.9315ZM175.686 86.074C175.177 86.074 174.704 85.9892 174.265 85.8211L174.133 86.1649C174.617 86.3502 175.135 86.4421 175.686 86.4421V86.074ZM174.269 85.8228C173.849 85.6493 173.475 85.3649 173.149 84.9637L172.863 85.1961C173.224 85.6393 173.646 85.9636 174.128 86.1631L174.269 85.8228ZM173.149 84.9637C172.825 84.5659 172.565 84.0357 172.373 83.3653L172.019 83.4664C172.22 84.1705 172.5 84.7496 172.863 85.1961L173.149 84.9637ZM172.373 83.3653C172.183 82.6996 172.086 81.8735 172.086 80.8829H171.717C171.717 81.8951 171.816 82.7576 172.019 83.4664L172.373 83.3653ZM172.086 80.8829C172.086 79.8534 172.193 79.0096 172.401 78.3462L172.05 78.2359C171.826 78.947 171.717 79.8311 171.717 80.8829H172.086ZM172.4 78.3485C172.621 77.6771 172.9 77.1564 173.233 76.7779L172.956 76.535C172.581 76.9614 172.282 77.5306 172.051 78.2336L172.4 78.3485ZM173.232 76.7781C173.578 76.3861 173.965 76.1158 174.394 75.9607L174.269 75.6145C173.775 75.7931 173.337 76.102 172.956 76.5347L173.232 76.7781ZM174.394 75.9607C174.836 75.8007 175.281 75.7213 175.73 75.7213V75.3531C175.237 75.3531 174.749 75.4406 174.269 75.6145L174.394 75.9607ZM175.73 75.7213C176.202 75.7213 176.605 75.7599 176.942 75.8347L177.022 75.4753C176.652 75.3931 176.221 75.3531 175.73 75.3531V75.7213ZM176.943 75.8349C177.3 75.9121 177.582 75.9973 177.792 76.0889L177.939 75.7513C177.698 75.6465 177.391 75.555 177.021 75.4751L176.943 75.8349ZM177.686 75.8796L177.318 77.5143L177.677 77.5952L178.045 75.9605L177.686 75.8796ZM177.583 77.3918C177.377 77.2835 177.139 77.2048 176.87 77.1531L176.8 77.5146C177.041 77.561 177.244 77.6296 177.412 77.7176L177.583 77.3918ZM176.878 77.1548C176.614 77.0916 176.304 77.0614 175.951 77.0614V77.4296C176.285 77.4296 176.564 77.4583 176.792 77.5128L176.878 77.1548ZM175.951 77.0614C175.208 77.0614 174.629 77.3905 174.234 78.0324L174.547 78.2257C174.878 77.6895 175.339 77.4296 175.951 77.4296V77.0614ZM174.234 78.0324C173.843 78.6657 173.661 79.6308 173.661 80.8976H174.029C174.029 79.6512 174.211 78.7705 174.547 78.2257L174.234 78.0324ZM173.661 80.8976C173.661 81.4464 173.701 81.9529 173.782 82.4165L174.145 82.3535C174.068 81.9139 174.029 81.4288 174.029 80.8976H173.661ZM173.783 82.4211C173.874 82.8772 174.012 83.2784 174.199 83.6218L174.522 83.4455C174.356 83.141 174.229 82.7764 174.144 82.3489L173.783 82.4211ZM174.201 83.6255C174.4 83.9713 174.65 84.2448 174.953 84.4396L175.152 84.1299C174.906 83.9712 174.694 83.744 174.52 83.4418L174.201 83.6255ZM174.956 84.4411C175.274 84.6388 175.648 84.7339 176.069 84.7339V84.3657C175.705 84.3657 175.401 84.284 175.15 84.1283L174.956 84.4411ZM176.069 84.7339C176.428 84.7339 176.744 84.6879 177.015 84.5904L176.89 84.244C176.67 84.3233 176.398 84.3657 176.069 84.3657V84.7339ZM177.021 84.5882C177.276 84.4861 177.508 84.3678 177.716 84.2329L177.515 83.9242C177.33 84.0445 177.12 84.1521 176.884 84.2463L177.021 84.5882ZM177.436 84.1208L177.804 85.6818L178.163 85.5973L177.794 84.0363L177.436 84.1208ZM178.907 79.4544L179.051 79.5694L179.051 79.5694L178.907 79.4544ZM183.237 79.4692L183.385 79.3594L183.385 79.3594L183.237 79.4692ZM183.193 85.3008L183.336 85.4169L183.336 85.4158L183.193 85.3008ZM180.203 84.0785L180.033 84.149L180.033 84.149L180.203 84.0785ZM181.867 84.1669L181.705 84.081L181.704 84.0827L181.867 84.1669ZM181.897 80.6473L181.727 80.7193L181.727 80.7193L181.897 80.6473ZM180.233 80.5884L180.072 80.499L180.071 80.5006L180.233 80.5884ZM178.326 82.3703C178.326 81.083 178.578 80.1605 179.051 79.5694L178.764 79.3394C178.215 80.0247 177.957 81.0461 177.957 82.3703H178.326ZM179.051 79.5694C179.522 78.9805 180.178 78.6813 181.043 78.6813V78.3131C180.081 78.3131 179.313 78.6521 178.764 79.3394L179.051 79.5694ZM181.043 78.6813C181.98 78.6813 182.65 78.988 183.089 79.5789L183.385 79.3594C182.861 78.6544 182.069 78.3131 181.043 78.3131V78.6813ZM183.089 79.5789C183.536 80.1813 183.774 81.1019 183.774 82.3703H184.143C184.143 81.0664 183.9 80.053 183.385 79.3594L183.089 79.5789ZM183.774 82.3703C183.774 83.6678 183.522 84.595 183.049 85.1858L183.336 85.4158C183.885 84.7304 184.143 83.7039 184.143 82.3703H183.774ZM183.05 85.1848C182.579 85.7637 181.919 86.0592 181.043 86.0592V86.4274C182.012 86.4274 182.785 86.0946 183.336 85.4169L183.05 85.1848ZM181.043 86.0592C180.121 86.0592 179.456 85.7543 179.014 85.1647C178.565 84.5651 178.326 83.6436 178.326 82.3703H177.957C177.957 83.679 178.202 84.694 178.719 85.3854C179.245 86.0868 180.031 86.4274 181.043 86.4274V86.0592ZM179.769 82.3703C179.769 83.1164 179.853 83.7139 180.033 84.149L180.373 84.008C180.22 83.6381 180.137 83.0968 180.137 82.3703H179.769ZM180.033 84.149C180.126 84.3736 180.257 84.5555 180.431 84.6808C180.606 84.807 180.813 84.8664 181.043 84.8664V84.4982C180.879 84.4982 180.75 84.457 180.646 84.3819C180.54 84.3059 180.447 84.186 180.373 84.008L180.033 84.149ZM181.043 84.8664C181.258 84.8664 181.455 84.8164 181.626 84.7096C181.797 84.603 181.93 84.4467 182.031 84.2511L181.704 84.0827C181.628 84.2307 181.535 84.3321 181.431 84.3974C181.327 84.4624 181.2 84.4982 181.043 84.4982V84.8664ZM182.03 84.2528C182.239 83.8567 182.331 83.2183 182.331 82.3703H181.963C181.963 83.2109 181.869 83.7702 181.705 84.081L182.03 84.2528ZM182.331 82.3703C182.331 81.6057 182.248 81.002 182.066 80.5753L181.727 80.7193C181.88 81.078 181.963 81.6229 181.963 82.3703H182.331ZM182.066 80.5753C181.972 80.3543 181.84 80.1761 181.663 80.0539C181.485 79.9313 181.275 79.8741 181.043 79.8741V80.2423C181.213 80.2423 181.347 80.2834 181.454 80.357C181.561 80.4312 181.654 80.5475 181.727 80.7193L182.066 80.5753ZM181.043 79.8741C180.619 79.8741 180.294 80.0995 180.072 80.499L180.394 80.6778C180.564 80.3704 180.779 80.2423 181.043 80.2423V79.8741ZM180.071 80.5006C179.861 80.888 179.769 81.5231 179.769 82.3703H180.137C180.137 81.5288 180.232 80.976 180.394 80.6762L180.071 80.5006ZM190.266 84.697L190.45 84.6927L190.45 84.6927L190.266 84.697ZM190.384 86.0666V86.2507H190.595L190.566 86.0416L190.384 86.0666ZM189.147 86.0666L188.969 86.1156L189.007 86.2507H189.147V86.0666ZM188.911 85.2125L189.089 85.1635L189.051 85.0284H188.911V85.2125ZM188.852 85.2125V85.0284H188.737L188.687 85.132L188.852 85.2125ZM185.333 85.3597L185.183 85.467L185.184 85.4686L185.333 85.3597ZM185.392 79.5428L185.543 79.6475L185.544 79.6464L185.392 79.5428ZM188.042 78.5709L188.008 78.7518L188.008 78.7518L188.042 78.5709ZM188.499 78.7181L188.421 78.8849L188.683 79.0072V78.7181H188.499ZM188.499 75.7434V75.5593H188.315V75.7434H188.499ZM190.251 75.7434H190.435V75.5593H190.251V75.7434ZM188.145 84.4467L188.262 84.5897L188.267 84.5852L188.145 84.4467ZM188.499 83.8576L188.675 83.9118L188.683 83.8853V83.8576H188.499ZM188.499 80.3822H188.683V80.3002L188.622 80.2454L188.499 80.3822ZM188.16 80.1908L188.102 80.3654L188.106 80.3667L188.16 80.1908ZM186.805 80.662L186.644 80.5726L186.644 80.5726L186.805 80.662ZM186.746 84.108L186.577 84.1811L186.58 84.1866L186.746 84.108ZM190.067 83.46C190.067 83.8738 190.072 84.2876 190.082 84.7014L190.45 84.6927C190.44 84.2818 190.435 83.8709 190.435 83.46H190.067ZM190.082 84.7014C190.092 85.122 190.132 85.5856 190.201 86.0916L190.566 86.0416C190.498 85.5463 190.46 85.0968 190.45 84.6927L190.082 84.7014ZM190.384 85.8825H189.147V86.2507H190.384V85.8825ZM189.324 86.0177L189.089 85.1635L188.734 85.2614L188.969 86.1156L189.324 86.0177ZM188.911 85.0284H188.852V85.3966H188.911V85.0284ZM188.687 85.132C188.534 85.4473 188.327 85.6758 188.07 85.8269C187.813 85.9787 187.492 86.0592 187.1 86.0592V86.4274C187.542 86.4274 187.931 86.3362 188.257 86.1443C188.584 85.9518 188.837 85.6648 189.018 85.2929L188.687 85.132ZM187.1 86.0592C186.411 86.0592 185.878 85.7915 185.481 85.2509L185.184 85.4686C185.652 86.1061 186.297 86.4274 187.1 86.4274V86.0592ZM185.482 85.2525C185.095 84.7115 184.883 83.8027 184.883 82.4881H184.515C184.515 83.8242 184.726 84.8299 185.183 85.467L185.482 85.2525ZM184.883 82.4881C184.883 81.2091 185.112 80.2709 185.543 79.6475L185.24 79.4381C184.748 80.1499 184.515 81.1753 184.515 82.4881H184.883ZM185.544 79.6464C185.966 79.0257 186.593 78.7108 187.453 78.7108V78.3426C186.487 78.3426 185.739 78.7051 185.239 79.4392L185.544 79.6464ZM187.453 78.7108C187.682 78.7108 187.866 78.7252 188.008 78.7518L188.076 78.3899C187.904 78.3576 187.695 78.3426 187.453 78.3426V78.7108ZM188.008 78.7518C188.15 78.7783 188.287 78.8226 188.421 78.8849L188.577 78.5513C188.416 78.4762 188.249 78.4223 188.076 78.3899L188.008 78.7518ZM188.683 78.7181V75.7434H188.315V78.7181H188.683ZM188.499 75.9275H190.251V75.5593H188.499V75.9275ZM190.067 75.7434V83.46H190.435V75.7434H190.067ZM187.512 84.8222C187.806 84.8222 188.063 84.7511 188.261 84.5896L188.029 84.3038C187.914 84.3975 187.748 84.4541 187.512 84.4541V84.8222ZM188.267 84.5852C188.456 84.4198 188.589 84.1907 188.675 83.9118L188.323 83.8035C188.252 84.0351 188.149 84.1987 188.024 84.3082L188.267 84.5852ZM188.683 83.8576V80.3822H188.315V83.8576H188.683ZM188.622 80.2454C188.504 80.1389 188.367 80.0619 188.214 80.0148L188.106 80.3667C188.208 80.3982 188.298 80.4488 188.376 80.519L188.622 80.2454ZM188.218 80.0161C188.074 79.9681 187.895 79.9478 187.689 79.9478V80.3159C187.876 80.3159 188.011 80.3349 188.102 80.3654L188.218 80.0161ZM187.689 79.9478C187.464 79.9478 187.259 79.9987 187.079 80.1065C186.899 80.2142 186.755 80.3727 186.644 80.5726L186.966 80.7514C187.051 80.5979 187.153 80.4913 187.268 80.4222C187.383 80.3534 187.521 80.3159 187.689 80.3159V79.9478ZM186.644 80.5726C186.423 80.971 186.327 81.6422 186.327 82.547H186.695C186.695 81.6454 186.795 81.0598 186.966 80.7514L186.644 80.5726ZM186.327 82.547C186.327 83.2342 186.406 83.7839 186.577 84.1811L186.915 84.0349C186.773 83.7056 186.695 83.2146 186.695 82.547H186.327ZM186.58 84.1866C186.674 84.3851 186.798 84.546 186.958 84.657C187.12 84.7689 187.307 84.8222 187.512 84.8222V84.4541C187.374 84.4541 187.261 84.419 187.168 84.3543C187.073 84.2885 186.986 84.1843 186.913 84.0294L186.58 84.1866ZM196.5 85.507L196.621 85.6452L196.723 85.5557L196.668 85.4321L196.5 85.507ZM195.498 86.0372L195.555 86.2122L195.555 86.2122L195.498 86.0372ZM192.848 85.9782L192.767 86.1438L192.769 86.1446L192.848 85.9782ZM191.949 85.2125L192.1 85.1063L192.1 85.1063L191.949 85.2125ZM191.419 84.0049L191.24 84.0452L191.241 84.0496L191.419 84.0049ZM192.038 79.4397L191.896 79.3221L191.896 79.3223L192.038 79.4397ZM195.145 78.6298L195.087 78.8045L195.092 78.8061L195.145 78.6298ZM195.926 79.101L195.795 79.2313L195.801 79.2367L195.926 79.101ZM196.485 79.9846L196.312 80.0483L196.315 80.0537L196.485 79.9846ZM196.662 82.061L196.479 82.0391L196.478 82.0463L196.662 82.061ZM196.559 82.8562V83.0403H196.714L196.74 82.8875L196.559 82.8562ZM192.98 82.8562V82.6722H192.79L192.796 82.8622L192.98 82.8562ZM193.363 84.2553L193.512 84.147L193.512 84.147L193.363 84.2553ZM195.351 84.594L195.287 84.4213L195.285 84.4222L195.351 84.594ZM195.955 84.2847L196.123 84.2098L196.027 83.9941L195.841 84.14L195.955 84.2847ZM193.363 80.4411L193.519 80.5396L193.52 80.5373L193.363 80.4411ZM193.039 81.6929L192.855 81.6828L192.845 81.8769H193.039V81.6929ZM195.071 81.6929V81.8769H195.246L195.255 81.7025L195.071 81.6929ZM194.895 80.4264L194.73 80.5087L194.731 80.511L194.895 80.4264ZM196.378 85.3688C196.157 85.5635 195.848 85.7298 195.441 85.8621L195.555 86.2122C195.993 86.0696 196.352 85.8825 196.621 85.6452L196.378 85.3688ZM195.441 85.8621C195.038 85.9933 194.616 86.0592 194.173 86.0592V86.4274C194.653 86.4274 195.114 86.3559 195.555 86.2122L195.441 85.8621ZM194.173 86.0592C193.684 86.0592 193.27 85.9745 192.927 85.8119L192.769 86.1446C193.172 86.3354 193.642 86.4274 194.173 86.4274V86.0592ZM192.928 85.8127C192.593 85.6497 192.318 85.4151 192.1 85.1063L191.799 85.3186C192.052 85.6775 192.376 85.9533 192.767 86.1438L192.928 85.8127ZM192.1 85.1063C191.88 84.7943 191.711 84.4135 191.598 83.9603L191.241 84.0496C191.363 84.5388 191.548 84.9631 191.799 85.3186L192.1 85.1063ZM191.599 83.9646C191.494 83.4994 191.441 82.9684 191.441 82.3703H191.073C191.073 82.9895 191.128 83.5483 191.24 84.0452L191.599 83.9646ZM191.441 82.3703C191.441 81.0628 191.699 80.1373 192.18 79.5571L191.896 79.3223C191.336 79.9988 191.073 81.027 191.073 82.3703H191.441ZM192.179 79.5573C192.67 78.9668 193.346 78.6666 194.232 78.6666V78.2984C193.252 78.2984 192.466 78.6363 191.896 79.3221L192.179 79.5573ZM194.232 78.6666C194.527 78.6666 194.811 78.7125 195.087 78.8044L195.203 78.4551C194.89 78.3506 194.566 78.2984 194.232 78.2984V78.6666ZM195.092 78.8061C195.356 78.8853 195.59 79.026 195.795 79.2312L196.056 78.9708C195.809 78.7244 195.523 78.5509 195.198 78.4534L195.092 78.8061ZM195.801 79.2367C196.011 79.4286 196.183 79.6961 196.312 80.0482L196.658 79.921C196.513 79.5269 196.312 79.2054 196.05 78.9653L195.801 79.2367ZM196.315 80.0537C196.45 80.3878 196.522 80.8236 196.522 81.3689H196.89C196.89 80.7949 196.815 80.3079 196.656 79.9154L196.315 80.0537ZM196.522 81.3689C196.522 81.5766 196.508 81.7999 196.479 82.0391L196.845 82.0829C196.875 81.8312 196.89 81.5931 196.89 81.3689H196.522ZM196.478 82.0463C196.459 82.2854 196.426 82.5448 196.377 82.825L196.74 82.8875C196.79 82.5982 196.825 82.3276 196.845 82.0757L196.478 82.0463ZM196.559 82.6722H192.98V83.0403H196.559V82.6722ZM192.796 82.8622C192.817 83.4898 192.948 83.9979 193.214 84.3635L193.512 84.147C193.307 83.8646 193.183 83.4401 193.164 82.8503L192.796 82.8622ZM193.214 84.3635C193.495 84.7489 193.937 84.9253 194.497 84.9253V84.5571C194.016 84.5571 193.703 84.4096 193.512 84.147L193.214 84.3635ZM194.497 84.9253C194.831 84.9253 195.138 84.8732 195.417 84.7658L195.285 84.4222C195.054 84.5111 194.792 84.5571 194.497 84.5571V84.9253ZM195.415 84.7666C195.689 84.6653 195.91 84.5543 196.069 84.4295L195.841 84.14C195.725 84.2311 195.544 84.3262 195.287 84.4213L195.415 84.7666ZM195.787 84.3597L196.332 85.582L196.668 85.4321L196.123 84.2098L195.787 84.3597ZM194.203 79.8005C193.769 79.8005 193.428 79.983 193.206 80.3449L193.52 80.5373C193.671 80.2905 193.89 80.1687 194.203 80.1687V79.8005ZM193.208 80.3426C192.997 80.6745 192.886 81.1272 192.855 81.6828L193.223 81.7029C193.252 81.1786 193.356 80.7968 193.519 80.5396L193.208 80.3426ZM193.039 81.8769H195.071V81.5088H193.039V81.8769ZM195.255 81.7025C195.285 81.1315 195.228 80.67 195.058 80.3418L194.731 80.511C194.856 80.7522 194.916 81.135 194.888 81.6832L195.255 81.7025ZM195.059 80.3441C194.974 80.1731 194.859 80.0347 194.71 79.9399C194.561 79.8447 194.389 79.8005 194.203 79.8005V80.1687C194.33 80.1687 194.431 80.1981 194.512 80.2502C194.594 80.3026 194.668 80.3851 194.73 80.5087L195.059 80.3441Z" fill="black" mask="url(#path-4-inside-1_6_357)"/>
</svg>
